<svg width="24" height="24" viewBox="0 0 24 24" fill="none" xmlns="http://www.w3.org/2000/svg">
<g id="Frame">
<rect width="24" height="24" rx="12" fill="#1349D5"/>
<path id="Vector" d="M14.0802 6C14.3045 6 14.523 6.07119 14.7035 6.20315C14.884 6.3351 15.0172 6.52089 15.0834 6.73328L15.411 7.78378H16.35C17.2612 7.78378 18 8.51588 18 9.41892V15.3649C18 16.2679 17.2612 17 16.35 17H7.65C6.73875 17 6 16.2679 6 15.3649V9.41892C6 8.51588 6.73875 7.78378 7.65 7.78378H8.589L8.9166 6.73328C8.98284 6.52089 9.11598 6.3351 9.29651 6.20315C9.47704 6.07119 9.69547 6 9.9198 6H14.0802ZM12 9.86487C10.7574 9.86487 9.75 10.8632 9.75 12.0946C9.75 13.326 10.7574 14.3243 12 14.3243C13.2426 14.3243 14.25 13.326 14.25 12.0946C14.25 10.8632 13.2426 9.86487 12 9.86487ZM12 13.4324C12.358 13.4324 12.7014 13.2915 12.9546 13.0406C13.2078 12.7897 13.35 12.4494 13.35 12.0946C13.35 11.7398 13.2078 11.3995 12.9546 11.1486C12.7014 10.8977 12.358 10.7568 12 10.7568C11.642 10.7568 11.2986 10.8977 11.0454 11.1486C10.7922 11.3995 10.65 11.7398 10.65 12.0946C10.65 12.4494 10.7922 12.7897 11.0454 13.0406C11.2986 13.2915 11.642 13.4324 12 13.4324Z" fill="white"/>
</g>
</svg>
