<svg width="24" height="24" viewBox="0 0 24 24" fill="none" xmlns="http://www.w3.org/2000/svg">
<g id="fluent:eye-20-filled">
<g id="Group">
<path id="Vector" d="M3.63018 13.9896C4.47711 9.92258 8.01756 7.03284 12.0001 7.03284C15.9814 7.03284 19.5219 9.92258 20.37 13.9896C20.4036 14.1509 20.4999 14.2924 20.6378 14.3827C20.7757 14.4731 20.9438 14.505 21.1052 14.4714C21.2666 14.4378 21.408 14.3415 21.4984 14.2036C21.5887 14.0657 21.6206 13.8976 21.587 13.7362C20.6221 9.11042 16.5862 5.79102 12.0001 5.79102C7.41403 5.79102 3.37809 9.11042 2.41319 13.7362C2.3796 13.8976 2.41149 14.0657 2.50185 14.2036C2.59221 14.3415 2.73364 14.4378 2.89502 14.4714C3.0564 14.505 3.22452 14.4731 3.36239 14.3827C3.50026 14.2924 3.59659 14.1509 3.63018 13.9896ZM11.9877 9.5165C13.1404 9.5165 14.2459 9.97442 15.061 10.7895C15.8762 11.6046 16.3341 12.7102 16.3341 13.8629C16.3341 15.0156 15.8762 16.1212 15.061 16.9363C14.2459 17.7514 13.1404 18.2093 11.9877 18.2093C10.8349 18.2093 9.72942 17.7514 8.91432 16.9363C8.09921 16.1212 7.64129 15.0156 7.64129 13.8629C7.64129 12.7102 8.09921 11.6046 8.91432 10.7895C9.72942 9.97442 10.8349 9.5165 11.9877 9.5165Z" fill="#666666"/>
</g>
</g>
</svg>
