<svg width="18" height="8" viewBox="0 0 18 8" fill="none" xmlns="http://www.w3.org/2000/svg">
<path d="M16.4721 0.453416C15.6957 4.18149 12.4503 6.83041 8.79965 6.83041C5.15012 6.83041 1.90471 4.18149 1.12722 0.453417C1.09643 0.305483 1.00813 0.175841 0.881749 0.0930105C0.755368 0.01018 0.601259 -0.0190534 0.453325 0.0117412C0.305391 0.0425359 0.175748 0.130835 0.0929177 0.257216C0.0100873 0.383596 -0.0191447 0.537705 0.0116494 0.685639C0.896141 4.92596 4.59575 7.96875 8.79965 7.96875C13.0035 7.96875 16.7032 4.92596 17.5876 0.685638C17.6184 0.537704 17.5892 0.383595 17.5064 0.257214C17.4235 0.130834 17.2939 0.0425344 17.146 0.0117398C16.998 -0.0190548 16.8439 0.0101786 16.7175 0.0930091C16.5912 0.17584 16.5029 0.305482 16.4721 0.453416Z" fill="#666666"/>
</svg>
