<svg width="14" height="14" viewBox="0 0 14 14" fill="none" xmlns="http://www.w3.org/2000/svg">
<path d="M13.05 12.4275L10.5825 9.9675C11.5275 8.8725 12.045 7.4925 12.045 6.03C12.045 4.4175 11.415 2.91 10.2825 1.77C9.15 0.63 7.635 0 6.03 0C4.4175 0 2.91 0.63 1.77 1.7625C0.63 2.9025 0 4.4175 0 6.03C0 7.6425 0.63 9.15 1.7625 10.29C2.9025 11.43 4.4175 12.0525 6.0225 12.0525C7.35 12.0525 8.6175 11.625 9.66 10.8375L12.15 13.3275C12.27 13.4475 12.435 13.515 12.6 13.515C12.765 13.515 12.9225 13.455 13.05 13.3275C13.2975 13.08 13.2975 12.675 13.05 12.4275ZM1.2675 6.03C1.2675 3.405 3.405 1.275 6.0225 1.275C8.6475 1.275 10.7775 3.4125 10.7775 6.03C10.7775 8.655 8.6475 10.785 6.0225 10.785C3.3975 10.785 1.2675 8.6475 1.2675 6.03Z" fill="#999999"/>
</svg>
