<svg width="24" height="24" viewBox="0 0 24 24" fill="none" xmlns="http://www.w3.org/2000/svg">
<g id="Frame 3350">
<path id="Vector" d="M18.05 18.4275L15.5825 15.9675C16.5275 14.8725 17.045 13.4925 17.045 12.03C17.045 10.4175 16.415 8.91 15.2825 7.77C14.15 6.63 12.635 6 11.03 6C9.4175 6 7.91 6.63 6.77 7.7625C5.63 8.9025 5 10.4175 5 12.03C5 13.6425 5.63 15.15 6.7625 16.29C7.9025 17.43 9.4175 18.0525 11.0225 18.0525C12.35 18.0525 13.6175 17.625 14.66 16.8375L17.15 19.3275C17.27 19.4475 17.435 19.515 17.6 19.515C17.765 19.515 17.9225 19.455 18.05 19.3275C18.2975 19.08 18.2975 18.675 18.05 18.4275ZM6.2675 12.03C6.2675 9.405 8.405 7.275 11.0225 7.275C13.6475 7.275 15.7775 9.4125 15.7775 12.03C15.7775 14.655 13.6475 16.785 11.0225 16.785C8.3975 16.785 6.2675 14.6475 6.2675 12.03Z" fill="white"/>
</g>
</svg>
