<svg width="24" height="24" viewBox="0 0 24 24" fill="none" xmlns="http://www.w3.org/2000/svg">
<g id="Frame">
<path id="Vector" d="M10.6501 3.31868L10.664 3.30753L10.6775 3.29578C11.0423 2.97665 11.5124 2.8 12 2.8C12.4876 2.8 12.9577 2.97665 13.3225 3.29578L13.336 3.30753L13.3499 3.31868L19.6881 8.3817C19.8477 8.52423 19.9755 8.69801 20.0636 8.89183L20.7919 8.56098L20.0636 8.89183C20.1538 9.09045 20.2002 9.30572 20.2 9.5233V9.52417V19.161C20.2 20.2912 19.2898 21.2 18.1766 21.2H5.82335C4.71018 21.2 3.8 20.2912 3.8 19.161V9.52417C3.8 9.08625 3.98716 8.6705 4.31139 8.38215L10.6501 3.31868ZM9.61765 14.3579C9.19637 14.3579 8.79141 14.5242 8.49209 14.8218C8.19263 15.1195 8.02353 15.5243 8.02353 15.9473C8.02353 16.3704 8.19263 16.7752 8.4921 17.0729C8.79141 17.3705 9.19637 17.5368 9.61765 17.5368H14.3824C14.8036 17.5368 15.2086 17.3705 15.5079 17.0729C15.8074 16.7752 15.9765 16.3704 15.9765 15.9473C15.9765 15.5243 15.8074 15.1195 15.5079 14.8218C15.2086 14.5242 14.8036 14.3579 14.3824 14.3579H9.61765Z" stroke="#A4B9A4" stroke-width="1.6"/>
</g>
</svg>
