<svg width="24" height="24" viewBox="0 0 24 24" fill="none" xmlns="http://www.w3.org/2000/svg">
<g id="Frame">
<path id="Vector" d="M10.1508 2.69362C10.6618 2.24659 11.3193 2 12 2C12.6807 2 13.3382 2.24659 13.8492 2.69362L20.2027 7.7689C20.4536 7.98825 20.6544 8.25828 20.7919 8.56098C20.9294 8.86367 21.0004 9.19205 21 9.52417V19.161C21 20.7289 19.7358 22 18.1766 22H5.82335C4.26424 22 3 20.7289 3 19.161V9.52417C3 8.85048 3.29118 8.20996 3.79729 7.7689L10.1508 2.69362ZM14.3824 15.1579H9.61765C9.40703 15.1579 9.20505 15.241 9.05612 15.3891C8.90719 15.5372 8.82353 15.738 8.82353 15.9473C8.82353 16.1567 8.90719 16.3575 9.05612 16.5056C9.20505 16.6537 9.40703 16.7368 9.61765 16.7368H14.3824C14.593 16.7368 14.795 16.6537 14.9439 16.5056C15.0928 16.3575 15.1765 16.1567 15.1765 15.9473C15.1765 15.738 15.0928 15.5372 14.9439 15.3891C14.795 15.241 14.593 15.1579 14.3824 15.1579Z" fill="#16B13B"/>
</g>
</svg>
