<svg width="18" height="20" viewBox="0 0 18 20" fill="none" xmlns="http://www.w3.org/2000/svg">
<path d="M7.65007 1.31868L7.66402 1.30753L7.67746 1.29578C8.04231 0.976647 8.51244 0.8 9 0.8C9.48755 0.8 9.95768 0.976647 10.3225 1.29578L10.336 1.30753L10.3499 1.31868L16.6881 6.3817C16.8477 6.52423 16.9755 6.69801 17.0636 6.89183L17.7919 6.56098L17.0636 6.89183C17.1538 7.09045 17.2002 7.30572 17.2 7.5233V7.52417V17.161C17.2 18.2912 16.2898 19.2 15.1766 19.2H2.82335C1.71018 19.2 0.8 18.2912 0.8 17.161V7.52417C0.8 7.08625 0.987161 6.6705 1.31139 6.38215L7.65007 1.31868ZM6.61765 12.3579C6.19637 12.3579 5.79141 12.5242 5.49209 12.8218C5.19263 13.1195 5.02353 13.5243 5.02353 13.9473C5.02353 14.3704 5.19263 14.7752 5.4921 15.0729C5.79141 15.3705 6.19637 15.5368 6.61765 15.5368H11.3824C11.8036 15.5368 12.2086 15.3705 12.5079 15.0729C12.8074 14.7752 12.9765 14.3704 12.9765 13.9473C12.9765 13.5243 12.8074 13.1195 12.5079 12.8218C12.2086 12.5242 11.8036 12.3579 11.3824 12.3579H6.61765Z" stroke="#93A1C5" stroke-width="1.6"/>
</svg>
