<svg width="18" height="20" viewBox="0 0 18 20" fill="none" xmlns="http://www.w3.org/2000/svg">
<path d="M7.15076 0.69362C7.66185 0.246586 8.31926 0 9 0C9.68074 0 10.3382 0.246586 10.8492 0.69362L17.2027 5.7689C17.4536 5.98825 17.6544 6.25828 17.7919 6.56098C17.9294 6.86367 18.0004 7.19205 18 7.52417V17.161C18 18.7289 16.7358 20 15.1766 20H2.82335C1.26424 20 0 18.7289 0 17.161V7.52417C0 6.85048 0.291177 6.20996 0.797294 5.7689L7.15076 0.69362ZM11.3824 13.1579H6.61765C6.40703 13.1579 6.20505 13.241 6.05612 13.3891C5.90719 13.5372 5.82353 13.738 5.82353 13.9473C5.82353 14.1567 5.90719 14.3575 6.05612 14.5056C6.20505 14.6537 6.40703 14.7368 6.61765 14.7368H11.3824C11.593 14.7368 11.795 14.6537 11.9439 14.5056C12.0928 14.3575 12.1765 14.1567 12.1765 13.9473C12.1765 13.738 12.0928 13.5372 11.9439 13.3891C11.795 13.241 11.593 13.1579 11.3824 13.1579Z" fill="#1349D5"/>
</svg>
