<svg width="20" height="21" viewBox="0 0 20 21" fill="none" xmlns="http://www.w3.org/2000/svg">
<path fill-rule="evenodd" clip-rule="evenodd" d="M16.8 3.2V4C17.648 4.00236 18.4605 4.34027 19.0601 4.93987C19.6597 5.53947 19.9976 6.35203 20 7.2V17.6C19.9976 18.448 19.6597 19.2605 19.0601 19.8601C18.4605 20.4597 17.648 20.7976 16.8 20.8H3.2C2.35203 20.7976 1.53947 20.4597 0.93987 19.8601C0.340266 19.2605 0.00236438 18.448 0 17.6V3.2C0.00236438 2.35203 0.340266 1.53947 0.93987 0.93987C1.53947 0.340266 2.35203 0.00236439 3.2 0H13.6C14.448 0.00236438 15.2605 0.340266 15.8601 0.93987C16.4597 1.53947 16.7976 2.35203 16.8 3.2ZM4.80024 12.8H8.00024C8.21242 12.8 8.4159 12.8843 8.56593 13.0344C8.71596 13.1844 8.80024 13.3879 8.80024 13.6C8.80024 13.8122 8.71596 14.0157 8.56593 14.1657C8.4159 14.3158 8.21242 14.4 8.00024 14.4H4.80024C4.58807 14.4 4.38459 14.3158 4.23456 14.1657C4.08453 14.0157 4.00024 13.8122 4.00024 13.6C4.00024 13.3879 4.08453 13.1844 4.23456 13.0344C4.38459 12.8843 4.58807 12.8 4.80024 12.8ZM4.80024 8.80005H12.0002C12.2124 8.80005 12.4159 8.88433 12.5659 9.03436C12.716 9.18439 12.8002 9.38788 12.8002 9.60005C12.8002 9.81222 12.716 10.0157 12.5659 10.1657C12.4159 10.3158 12.2124 10.4 12.0002 10.4H4.80024C4.58807 10.4 4.38459 10.3158 4.23456 10.1657C4.08453 10.0157 4.00024 9.81222 4.00024 9.60005C4.00024 9.38788 4.08453 9.18439 4.23456 9.03436C4.38459 8.88433 4.58807 8.80005 4.80024 8.80005ZM4.80024 4.80005H12.0002C12.2124 4.80005 12.4159 4.88433 12.5659 5.03436C12.716 5.18439 12.8002 5.38788 12.8002 5.60005C12.8002 5.81222 12.716 6.01571 12.5659 6.16573C12.4159 6.31576 12.2124 6.40005 12.0002 6.40005H4.80024C4.58807 6.40005 4.38459 6.31576 4.23456 6.16573C4.08453 6.01571 4.00024 5.81222 4.00024 5.60005C4.00024 5.38788 4.08453 5.18439 4.23456 5.03436C4.38459 4.88433 4.58807 4.80005 4.80024 4.80005Z" fill="#16B13B"/>
</svg>
