<svg width="20" height="21" viewBox="0 0 20 21" fill="none" xmlns="http://www.w3.org/2000/svg">
<path fill-rule="evenodd" clip-rule="evenodd" d="M16.8 3.2V4C17.648 4.00236 18.4605 4.34027 19.0601 4.93987C19.6597 5.53947 19.9976 6.35203 20 7.2V17.6C19.9976 18.448 19.6597 19.2605 19.0601 19.8601C18.4605 20.4597 17.648 20.7976 16.8 20.8H3.2C2.35203 20.7976 1.53947 20.4597 0.93987 19.8601C0.340266 19.2605 0.00236438 18.448 0 17.6V3.2C0.00236438 2.35203 0.340266 1.53947 0.93987 0.93987C1.53947 0.340266 2.35203 0.00236439 3.2 0H13.6C14.448 0.00236438 15.2605 0.340266 15.8601 0.93987C16.4597 1.53947 16.7976 2.35203 16.8 3.2ZM17.9299 18.7299C18.2296 18.4301 18.3987 18.0239 18.4 17.6V7.2C18.3987 6.77607 18.2296 6.36989 17.9299 6.07012C17.6301 5.77035 17.2239 5.60135 16.8 5.6V15.2C16.8 15.4122 16.7157 15.6157 16.5657 15.7657C16.4157 15.9157 16.2122 16 16 16C15.7878 16 15.5843 15.9157 15.4343 15.7657C15.2843 15.6157 15.2 15.4122 15.2 15.2V3.2C15.1987 2.77607 15.0296 2.36989 14.7299 2.07012C14.4301 1.77035 14.0239 1.60135 13.6 1.6H3.2C2.77607 1.60135 2.36989 1.77035 2.07012 2.07012C1.77035 2.36989 1.60135 2.77607 1.6 3.2V17.6C1.60101 18.024 1.76991 18.4304 2.06975 18.7303C2.36959 19.0301 2.77597 19.199 3.2 19.2H16.8C17.2239 19.1986 17.6301 19.0296 17.9299 18.7299ZM4.80014 12.8002H8.00014C8.21231 12.8002 8.41579 12.8844 8.56582 13.0345C8.71585 13.1845 8.80014 13.388 8.80014 13.6002C8.80014 13.8123 8.71585 14.0158 8.56582 14.1658C8.41579 14.3159 8.21231 14.4002 8.00014 14.4002H4.80014C4.58796 14.4002 4.38448 14.3159 4.23445 14.1658C4.08442 14.0158 4.00014 13.8123 4.00014 13.6002C4.00014 13.388 4.08442 13.1845 4.23445 13.0345C4.38448 12.8844 4.58796 12.8002 4.80014 12.8002ZM4.80014 8.80016H12.0001C12.2123 8.80016 12.4158 8.88445 12.5658 9.03448C12.7159 9.18451 12.8001 9.38799 12.8001 9.60016C12.8001 9.81234 12.7159 10.0158 12.5658 10.1658C12.4158 10.3159 12.2123 10.4002 12.0001 10.4002H4.80014C4.58796 10.4002 4.38448 10.3159 4.23445 10.1658C4.08442 10.0158 4.00014 9.81234 4.00014 9.60016C4.00014 9.38799 4.08442 9.18451 4.23445 9.03448C4.38448 8.88445 4.58796 8.80016 4.80014 8.80016ZM4.80014 4.80016H12.0001C12.2123 4.80016 12.4158 4.88445 12.5658 5.03448C12.7159 5.18451 12.8001 5.38799 12.8001 5.60016C12.8001 5.81234 12.7159 6.01582 12.5658 6.16585C12.4158 6.31588 12.2123 6.40016 12.0001 6.40016H4.80014C4.58796 6.40016 4.38448 6.31588 4.23445 6.16585C4.08442 6.01582 4.00014 5.81234 4.00014 5.60016C4.00014 5.38799 4.08442 5.18451 4.23445 5.03448C4.38448 4.88445 4.58796 4.80016 4.80014 4.80016Z" fill="#93A1C5"/>
</svg>
