<svg width="22" height="18" viewBox="0 0 22 18" fill="none" xmlns="http://www.w3.org/2000/svg">
<path d="M14.7 0C16.2464 0 17.5 1.2536 17.5 2.8V5.6895L20.315 4.0455C20.4289 3.97901 20.5584 3.94375 20.6903 3.94328C20.8223 3.94281 20.952 3.97715 21.0664 4.04282C21.1808 4.1085 21.2759 4.20319 21.342 4.31735C21.4081 4.4315 21.443 4.56108 21.443 4.693V13.693C21.443 13.825 21.4082 13.9547 21.342 14.0689C21.2759 14.1831 21.1807 14.2778 21.0663 14.3435C20.9518 14.4092 20.822 14.4435 20.69 14.443C20.558 14.4425 20.4285 14.4071 20.3145 14.3405L17.5 12.6925V14.7C17.5 16.2464 16.2464 17.5 14.7 17.5H2.8C1.2536 17.5 0 16.2464 0 14.7V2.8C0 1.2536 1.2536 0 2.8 0H14.7ZM6 5.75V11.75C6.00001 11.8827 6.03524 12.0131 6.1021 12.1277C6.16896 12.2424 6.26505 12.3373 6.38056 12.4027C6.49607 12.468 6.62686 12.5016 6.75958 12.4999C6.8923 12.4982 7.0222 12.4613 7.136 12.393L12.136 9.393C12.247 9.32635 12.3389 9.2321 12.4026 9.11942C12.4664 9.00674 12.4999 8.87947 12.4999 8.75C12.4999 8.62053 12.4664 8.49325 12.4026 8.38058C12.3389 8.2679 12.247 8.17365 12.136 8.107L7.136 5.107C7.0222 5.03869 6.8923 5.0018 6.75958 5.0001C6.62686 4.99841 6.49607 5.03196 6.38056 5.09735C6.26505 5.16273 6.16896 5.25759 6.1021 5.37225C6.03524 5.48692 6.00001 5.61727 6 5.75Z" fill="#1349D5"/>
</svg>
