<svg width="24" height="24" viewBox="0 0 24 24" fill="none" xmlns="http://www.w3.org/2000/svg">
<g id="Frame">
<path id="Vector" d="M15.7 4C17.2464 4 18.5 5.2536 18.5 6.8V9.6895L21.315 8.0455C21.4289 7.97901 21.5584 7.94375 21.6903 7.94328C21.8223 7.94281 21.952 7.97715 22.0664 8.04282C22.1808 8.1085 22.2759 8.20319 22.342 8.31735C22.4081 8.4315 22.443 8.56108 22.443 8.693V17.693C22.443 17.825 22.4082 17.9547 22.342 18.0689C22.2759 18.1831 22.1807 18.2778 22.0663 18.3435C21.9518 18.4092 21.822 18.4435 21.69 18.443C21.558 18.4425 21.4285 18.4071 21.3145 18.3405L18.5 16.6925V18.7C18.5 20.2464 17.2464 21.5 15.7 21.5H3.8C2.2536 21.5 1 20.2464 1 18.7V6.8C1 5.2536 2.2536 4 3.8 4H15.7ZM7 9.75V15.75C7.00001 15.8827 7.03524 16.0131 7.1021 16.1277C7.16896 16.2424 7.26505 16.3373 7.38056 16.4027C7.49607 16.468 7.62686 16.5016 7.75958 16.4999C7.8923 16.4982 8.0222 16.4613 8.136 16.393L13.136 13.393C13.247 13.3264 13.3389 13.2321 13.4026 13.1194C13.4664 13.0067 13.4999 12.8795 13.4999 12.75C13.4999 12.6205 13.4664 12.4933 13.4026 12.3806C13.3389 12.2679 13.247 12.1736 13.136 12.107L8.136 9.107C8.0222 9.03869 7.8923 9.0018 7.75958 9.0001C7.62686 8.99841 7.49607 9.03196 7.38056 9.09735C7.26505 9.16273 7.16896 9.25759 7.1021 9.37225C7.03524 9.48692 7.00001 9.61727 7 9.75Z" fill="#16B13B"/>
</g>
</svg>
