<svg width="24" height="20" viewBox="0 0 24 20" fill="none" xmlns="http://www.w3.org/2000/svg">
<path d="M15.7 1C17.2464 1 18.5 2.2536 18.5 3.8V6.6895L21.315 5.0455C21.4289 4.97901 21.5584 4.94375 21.6903 4.94328C21.8223 4.94281 21.952 4.97715 22.0664 5.04282C22.1808 5.1085 22.2759 5.20319 22.342 5.31735C22.4081 5.4315 22.443 5.56108 22.443 5.693V14.693C22.443 14.825 22.4082 14.9547 22.342 15.0689C22.2759 15.1831 22.1807 15.2778 22.0663 15.3435C21.9518 15.4092 21.822 15.4435 21.69 15.443C21.558 15.4425 21.4285 15.4071 21.3145 15.3405L18.5 13.6925V15.7C18.5 17.2464 17.2464 18.5 15.7 18.5H3.8C2.2536 18.5 1 17.2464 1 15.7V3.8C1 2.2536 2.2536 1 3.8 1H15.7ZM7 6.75V12.75C7.00001 12.8827 7.03524 13.0131 7.1021 13.1277C7.16896 13.2424 7.26505 13.3373 7.38056 13.4027C7.49607 13.468 7.62686 13.5016 7.75958 13.4999C7.8923 13.4982 8.0222 13.4613 8.136 13.393L13.136 10.393C13.247 10.3264 13.3389 10.2321 13.4026 10.1194C13.4664 10.0067 13.4999 9.87947 13.4999 9.75C13.4999 9.62053 13.4664 9.49325 13.4026 9.38058C13.3389 9.2679 13.247 9.17365 13.136 9.107L8.136 6.107C8.0222 6.03869 7.8923 6.0018 7.75958 6.0001C7.62686 5.99841 7.49607 6.03196 7.38056 6.09735C7.26505 6.16273 7.16896 6.25759 7.1021 6.37225C7.03524 6.48692 7.00001 6.61727 7 6.75Z" stroke="#93A1C5" stroke-width="1.6"/>
</svg>
