<svg width="20" height="20" viewBox="0 0 20 20" fill="none" xmlns="http://www.w3.org/2000/svg">
<path d="M14.1893 5.77539L14.1893 5.77539V5.7809C14.1893 8.27967 12.2737 10.2528 9.97884 10.2528C7.60428 10.2528 5.62576 8.11826 5.78772 5.45743C5.9315 3.21514 7.68447 1.43474 9.73546 1.30752C12.1373 1.16239 14.2073 3.16865 14.1893 5.77539ZM0.8 17.538C0.8 16.9366 1.07869 16.3621 1.65097 15.8047C2.23021 15.2405 3.06863 14.7388 4.05838 14.3212C6.04093 13.4847 8.43505 13.0662 10 13.0662C11.565 13.0662 13.9594 13.4847 15.9424 14.3188C16.9325 14.7352 17.7711 15.2351 18.3504 15.7967C18.9229 16.3518 19.2 16.9218 19.2 17.5161C19.2 18.4461 18.4461 19.2 17.5161 19.2H2.46196C1.54408 19.2 0.8 18.4559 0.8 17.538Z" stroke="#93A1C5" stroke-width="1.6"/>
</svg>
