<svg width="24" height="24" viewBox="0 0 24 24" fill="none" xmlns="http://www.w3.org/2000/svg">
<g id="Frame">
<path id="Vector" d="M16.1893 6.77539L16.1893 6.77539V6.7809C16.1893 9.27967 14.2737 11.2528 11.9788 11.2528C9.60428 11.2528 7.62576 9.11826 7.78772 6.45743C7.9315 4.21514 9.68447 2.43474 11.7355 2.30752C14.1373 2.16239 16.2073 4.16865 16.1893 6.77539ZM2.8 18.538C2.8 17.9366 3.07869 17.3621 3.65097 16.8047C4.23021 16.2405 5.06863 15.7388 6.05838 15.3212C8.04093 14.4847 10.435 14.0662 12 14.0662C13.565 14.0662 15.9594 14.4847 17.9424 15.3188C18.9325 15.7352 19.7711 16.2351 20.3504 16.7967C20.9229 17.3518 21.2 17.9218 21.2 18.5161C21.2 19.4461 20.4461 20.2 19.5161 20.2H4.46196C3.54408 20.2 2.8 19.4559 2.8 18.538Z" stroke="#A4B9A4" stroke-width="1.6"/>
</g>
</svg>
