<svg width="375" height="480" viewBox="0 0 375 480" fill="none" xmlns="http://www.w3.org/2000/svg">
<g clip-path="url(#clip0_10452_27324)">
<path d="M184.616 14.3602C150.191 17.23 123.645 42.6007 107.948 71.8239C84.5197 115.559 93.9219 166.513 64.9138 208.817C39.58 245.775 -3.92052 285.677 21.7442 334.195C32.5083 354.543 52.6779 369.779 73.3758 379.183C102.602 392.49 134.945 398.13 163.749 412.342C192.678 426.626 217.514 449.026 248.964 458.164C290.134 470.12 326.711 448.418 343.485 410.417C367.263 356.535 345.418 301.313 314.893 255.612C298.237 230.69 289.133 211.038 288.624 180.602C287.542 116.65 275.306 8.07225 185.764 14.2662L184.616 14.3602Z" fill="#E7ECF9"/>
<path d="M195.924 117.25L191.608 114.267C191.608 114.267 189.699 114.914 189.11 118.324C188.522 121.734 186.975 137.38 189.712 142.88L194.604 140.615L195.924 117.25Z" fill="#C47123"/>
<path d="M197.02 160.648L197.841 165.3L238.503 164.433L238.257 160.305C226.215 142.239 212.213 145.054 197.02 160.648Z" fill="#3A424F"/>
<path d="M209.96 122.588C201.768 125.047 196.695 115.102 196.695 115.102C198.3 114.403 198.028 111.543 197.465 109.149C197.177 107.948 196.816 106.766 196.385 105.609L210.31 105.24C210.31 105.24 210.711 107.731 211.811 108.954C212.03 109.216 212.313 109.416 212.633 109.537C213.099 109.705 214.114 109.161 214.936 108.637C215.583 108.204 216.153 107.783 216.153 107.783C217.039 111.679 218.12 120.123 209.96 122.588Z" fill="#BF6565"/>
<path d="M214.911 108.637C211.604 114.797 201.322 112.927 197.44 109.149C197.152 107.948 196.791 106.766 196.359 105.609L210.284 105.24C210.284 105.24 210.685 107.731 211.785 108.954C212.005 109.216 212.288 109.416 212.607 109.537C213.073 109.705 214.089 109.161 214.911 108.637Z" fill="#91474C"/>
<path d="M216.377 101.073C218.935 99.879 220.356 97.5142 219.552 95.7916C218.748 94.069 216.022 93.6408 213.464 94.8353C210.906 96.0297 209.484 98.3945 210.288 100.117C211.093 101.84 213.819 102.268 216.377 101.073Z" fill="#91474C"/>
<path d="M188.239 100.084C183.871 91.9502 185.599 82.9041 192.581 79.1576C199.563 75.4111 207.845 76.0387 213.112 87.1036C217.079 95.4314 216.911 105.83 209.547 108.632C202.183 111.433 192.6 108.205 188.239 100.084Z" fill="#BF6565"/>
<path d="M215.576 95.7091C214.929 90.5973 212.302 85.6666 209.293 81.6742C207.19 81.9589 205.249 81.163 203.282 81.1759C201.972 81.2458 200.679 81.4962 199.438 81.9201C197.795 82.311 196.224 82.955 194.779 83.8289C193.705 84.5536 192.624 85.5825 191.356 85.3754C191.591 87.6882 191.591 90.0187 191.356 92.3314C190.746 95.5134 190.37 98.7358 190.23 101.973C188.878 101.371 189.117 102.917 187.642 102.866C186.889 102.85 186.17 102.555 185.623 102.037C185.214 101.465 184.962 100.796 184.892 100.096C184.83 99.3878 184.62 98.7002 184.277 98.0774C183.734 97.2556 182.698 96.7833 182.368 95.8644C181.928 94.6415 182.938 93.3732 182.944 92.0791C182.944 91.0955 182.388 90.1379 181.902 89.2708C181.417 88.4037 180.932 87.3878 181.294 86.4107C181.702 85.3107 182.989 84.806 183.604 83.8225C184.452 82.4442 183.831 80.4642 184.853 79.2089C185.966 77.8177 188.224 78.2447 189.771 77.3582C191.026 76.64 191.712 75.087 193.084 74.6017C194.585 74.0647 196.203 75.0353 197.794 74.9059C199.386 74.7764 200.959 73.4758 202.557 73.8641C203.696 74.1423 204.498 75.2229 205.637 75.5141C206.776 75.8053 208.29 75.2876 209.118 76.1612C209.558 76.6335 209.616 77.3518 209.92 77.9212C210.406 78.8336 211.435 79.2736 212.276 79.8624C212.622 80.0794 212.916 80.3688 213.14 80.7106C213.363 81.0524 213.51 81.4385 213.57 81.8424C213.599 82.1228 213.563 82.406 213.466 82.6707C213.353 83.0189 213.331 83.3903 213.403 83.7494C213.474 84.1085 213.636 84.4433 213.874 84.7219C214.362 85.2704 214.732 85.9136 214.961 86.6113C215.097 87.2972 214.845 88.0219 214.961 88.7208C215.15 89.336 215.41 89.9268 215.738 90.4808C216.43 92.0726 216.016 93.975 215.576 95.7091Z" fill="#372247"/>
<path d="M213.551 81.7965C212.975 80.9004 212.14 80.2007 211.157 79.7906C209.811 79.2341 208.213 79.2471 207.048 78.3735C206.246 77.7718 205.715 76.8012 204.79 76.4323C203.25 75.7853 201.619 77.1247 199.956 77.1635C198.416 77.2088 196.921 76.1411 195.427 76.5164C193.777 76.9176 192.948 78.8653 191.382 79.5318C189.687 80.25 187.319 79.383 186.148 80.8259C185.578 81.5183 185.552 82.4954 185.3 83.3624C184.828 84.9801 183.54 86.2031 182.628 87.6201C182.295 88.1305 182.044 88.6893 181.883 89.2766C181.366 88.3254 180.913 87.3937 181.275 86.4166C181.683 85.3166 182.97 84.8119 183.585 83.8283C184.433 82.4501 183.812 80.47 184.834 79.2147C185.947 77.8235 188.205 78.2506 189.752 77.3641C191.007 76.6459 191.693 75.0929 193.065 74.6076C194.566 74.0705 196.184 75.0411 197.775 74.9117C199.367 74.7823 200.94 73.4817 202.538 73.8699C203.677 74.1482 204.479 75.2288 205.618 75.52C206.757 75.8111 208.271 75.2935 209.099 76.167C209.539 76.6394 209.597 77.3576 209.902 77.9271C210.387 78.8394 211.416 79.2794 212.257 79.8683C212.597 80.0797 212.888 80.361 213.111 80.6934C213.334 81.0258 213.484 81.4018 213.551 81.7965Z" fill="#5F436E"/>
<path d="M184.725 101.862C185.145 100.005 187.721 99.015 190.471 99.6426C193.221 100.27 195.11 102.283 194.683 104.14C194.256 105.997 191.687 106.987 188.937 106.353C186.187 105.719 184.304 103.713 184.725 101.862Z" fill="#BF6565"/>
<path d="M200.824 86.3066C199.533 85.4599 198.032 84.9894 196.489 84.9477C195.72 84.9362 194.964 85.1375 194.302 85.5292C193.641 85.9208 193.101 86.4877 192.742 87.1672C195.398 86.5939 198.107 86.3054 200.824 86.3066Z" fill="#372247"/>
<path d="M206.841 85.6334C206.786 85.0391 206.882 84.4404 207.12 83.8928C207.239 83.6223 207.418 83.3817 207.641 83.1882C207.865 82.9947 208.129 82.853 208.414 82.7734C209.248 82.5857 210.07 83.0775 210.782 83.5434C209.322 83.92 207.972 84.6361 206.841 85.6334Z" fill="#372247"/>
<path d="M207.184 88.0986C207.867 89.0909 208.252 90.2589 208.29 91.4634" stroke="#6E2B39" stroke-width="0.647069" stroke-miterlimit="10" stroke-linecap="round"/>
<path d="M210.982 93.5541C210.982 93.5541 204.304 92.8229 203.004 94.3823C201.703 95.9417 201.71 103.525 202.195 104.425C202.68 105.324 211.519 104.082 212.263 102.775C212.619 102.147 210.982 93.5541 210.982 93.5541Z" fill="white"/>
<path d="M198.677 87.9108C198.892 87.879 199.112 87.9141 199.307 88.0112C199.501 88.1084 199.661 88.2629 199.765 88.4539C199.869 88.645 199.911 88.8633 199.887 89.0793C199.863 89.2954 199.773 89.4987 199.629 89.6619C199.485 89.8251 199.295 89.9402 199.084 89.9916C198.872 90.0431 198.65 90.0285 198.448 89.9497C198.245 89.8709 198.072 89.7317 197.951 89.5511C197.83 89.3705 197.767 89.157 197.771 88.9396C197.755 88.6832 197.842 88.4308 198.012 88.238C198.181 88.0451 198.421 87.9274 198.677 87.9108Z" fill="#313A47"/>
<path d="M209.805 86.902C210.021 86.8688 210.241 86.9028 210.436 86.9993C210.632 87.0957 210.793 87.25 210.897 87.4411C211.002 87.6323 211.045 87.851 211.021 88.0676C210.997 88.2842 210.907 88.4882 210.763 88.6518C210.619 88.8154 210.429 88.9307 210.217 88.9821C210.005 89.0335 209.783 89.0184 209.58 88.939C209.377 88.8595 209.203 88.7195 209.083 88.538C208.962 88.3565 208.9 88.1422 208.906 87.9244C208.892 87.67 208.978 87.4203 209.146 87.229C209.314 87.0377 209.551 86.9203 209.805 86.902Z" fill="#313A47"/>
<path d="M287.129 130.722C287.129 130.722 266.766 133.129 256.581 133.213C255.146 133.251 253.71 133.184 252.285 133.012C242.773 131.498 232.264 127.719 232.264 127.719C232.264 127.719 231.876 131.078 230.698 132.598L219.963 108.896L219.316 107.453C219.316 107.453 226.434 103.765 230.472 105.687C233.191 107.046 235.653 108.87 237.745 111.077C238.606 111.873 252.11 118.447 253.695 118.842C255.281 119.236 258.483 118.279 263.88 119.521C273.8 121.805 286.67 122.698 286.67 122.698L287.129 130.722Z" fill="#BF6565"/>
<path d="M256.582 133.213C255.147 133.252 253.711 133.185 252.286 133.013C242.774 131.499 232.266 127.72 232.266 127.72C232.266 127.72 231.877 131.078 230.7 132.599L219.965 108.896C225.81 112.645 230.286 118.184 232.725 124.685C240.011 129.128 248.131 132.03 256.582 133.213Z" fill="#91474C"/>
<path d="M284.043 123.565C287.188 121.107 291.892 116.448 293.749 116.169C294.907 115.995 299.049 116.603 301.721 117.606C303.526 118.285 305.603 119.722 306.076 121.204C306.231 121.676 305.746 122.181 305.267 122.31C304.771 122.416 304.253 122.323 303.824 122.051C303.405 121.778 303.003 121.48 302.62 121.158C301.377 120.281 299.839 119.926 298.337 120.168C300.517 120.815 302.349 122.258 303.96 123.85C304.336 124.188 304.653 124.586 304.898 125.028C305.03 125.245 305.106 125.492 305.12 125.746C305.134 126 305.084 126.254 304.976 126.484C304.852 126.72 304.657 126.912 304.42 127.034C304.183 127.155 303.913 127.2 303.649 127.163C303.649 127.163 303.52 128.121 303.17 128.386C302.374 129.033 301.786 128.619 301.456 128.781C301.119 129.428 300.699 129.473 299.948 129.389C299.215 129.243 298.506 129 297.838 128.664C297.14 128.38 296.376 128.173 295.761 128.664C294.322 129.79 292.634 130.555 290.838 130.892C289.042 131.23 287.191 131.132 285.441 130.606C284.942 128.276 284.425 125.921 284.043 123.565Z" fill="#BF6565"/>
<path d="M303.327 126.775C302.098 125.235 300.408 124.129 298.506 123.617" stroke="#6E2B39" stroke-width="0.647069" stroke-miterlimit="10" stroke-linecap="round"/>
<path d="M300.835 128.243C299.481 126.931 297.842 125.948 296.047 125.37" stroke="#6E2B39" stroke-width="0.647069" stroke-miterlimit="10" stroke-linecap="round"/>
<path d="M289.199 120.667L297.165 118.829C297.967 118.641 298.989 118.531 299.462 119.198C299.619 119.479 299.679 119.804 299.632 120.122C299.586 120.441 299.435 120.734 299.203 120.958C298.239 121.954 296.569 122.504 295.929 122.809C295.7 123.978 295.099 125.042 294.214 125.842C293.33 126.641 292.211 127.132 291.024 127.241" fill="#BF6565"/>
<path d="M289.199 120.667L297.165 118.829C297.967 118.641 298.989 118.531 299.462 119.198C299.619 119.479 299.679 119.804 299.632 120.122C299.586 120.441 299.435 120.734 299.203 120.958C298.239 121.954 296.569 122.504 295.929 122.809C295.7 123.978 295.099 125.042 294.214 125.842C293.33 126.641 292.211 127.132 291.024 127.241" stroke="#6E2B39" stroke-width="0.647069" stroke-miterlimit="10" stroke-linecap="round"/>
<path d="M192.406 141.075C190.982 139.891 189.818 138.784 188.524 137.593C187.229 136.403 185.851 135.186 183.923 133.711C181.471 133.452 178.811 133.109 176.106 132.76C171.616 132.171 166.989 131.582 162.887 131.382C154.798 130.534 141.773 126.438 130.831 121.404C129.828 120.944 128.838 120.472 127.874 119.993C128.456 117.612 124.49 110.637 124.742 110.287C125.7 110.669 132.565 113.07 133.626 113.309C139.676 114.739 147.215 114.331 152.922 115.574C157.147 116.493 159.871 117.89 162.848 118.537C164.634 118.932 172.211 118.99 176.527 118.725C177.522 118.719 178.512 118.582 179.471 118.317C181.943 117.023 186.084 116.111 189.772 115.729C191.255 115.562 192.746 115.487 194.237 115.502C198.411 123.099 198.579 134.539 192.406 141.075Z" fill="#BF6565"/>
<path d="M192.406 141.075C190.982 139.891 189.818 138.784 188.523 137.594C189.515 136.945 190.326 136.054 190.879 135.005C191.959 132.922 192.141 130.476 192.289 128.14C192.549 125.704 192.503 123.246 192.153 120.822C191.833 118.939 191.01 117.177 189.772 115.723C191.255 115.556 192.746 115.48 194.237 115.496C198.411 123.099 198.579 134.539 192.406 141.075Z" fill="#91474C"/>
<path d="M176.111 132.759C171.621 132.17 166.994 131.581 162.892 131.381C154.803 130.533 141.778 126.437 130.836 121.403C132.434 120.2 133.702 116.608 133.631 113.302C139.681 114.732 147.22 114.324 152.927 115.566C157.152 116.485 159.876 117.883 162.853 118.53C164.639 118.925 172.216 118.983 176.532 118.718C178.952 123.383 178.408 129.478 176.111 132.759Z" fill="white"/>
<path d="M243.835 210.143L246.423 214.919C246.423 214.919 230.699 218.4 218.599 210.719L215.732 204.384L242.579 203.355L243.835 210.143Z" fill="#C47123"/>
<path d="M216.833 291.978C216.806 292.5 216.692 293.014 216.497 293.498C215.986 294.793 214.827 295.925 212.537 295.873C209.301 295.802 201.537 285.766 201.498 282.039C201.42 276.921 200.029 278.228 198.955 277.037C196.884 274.753 196.612 269.13 197.098 267.874C197.408 267.079 198.638 266.47 200.165 266.011C202.673 265.345 205.238 264.912 207.826 264.717L216.18 272.158C215.19 278.493 216.95 290.282 216.833 291.978Z" fill="#8B94B0"/>
<path d="M216.497 293.498C215.986 294.792 214.827 295.925 212.537 295.873C209.301 295.802 201.537 285.766 201.498 282.039C201.42 276.92 200.029 278.227 198.955 277.037C196.884 274.753 196.612 269.13 197.098 267.874C197.408 267.078 198.638 266.47 200.165 266.011C199.804 267.49 199.741 269.026 199.978 270.53C200.216 272.034 200.75 273.476 201.549 274.772C202.319 276.001 203.335 277.102 203.84 278.46C204.18 279.647 204.397 280.866 204.487 282.097C204.954 285.057 206.385 287.78 208.56 289.842C210.734 291.904 213.529 293.189 216.51 293.498H216.497Z" fill="#D1DBE8"/>
<path d="M244.359 230.436C243.55 232.862 239.389 239.43 234.413 246.813C225.684 259.755 214.477 275.174 214.477 275.174C210.414 274.825 207.133 268.056 207.049 265.623C207.049 265.623 212.594 254.119 213.869 249.511C215.525 243.507 216.748 239.851 218.813 236.751C220.598 234.079 223.006 231.827 226.849 228.851L222.468 216.174L219.104 206.468L242.444 206.358C242.444 206.358 243.518 210.888 244.281 216.233C245.012 221.312 245.446 227.136 244.359 230.436Z" fill="#BF6565"/>
<path d="M244.256 216.207C239.933 214.453 231.411 212.169 222.443 216.174L219.078 206.468L242.418 206.358C242.418 206.358 243.518 210.868 244.256 216.207Z" fill="#91474C"/>
<path d="M234.413 246.812C225.684 259.753 214.477 275.173 214.477 275.173C210.414 274.824 207.133 268.055 207.049 265.622C207.049 265.622 212.594 254.117 213.869 249.51C215.525 243.505 216.748 239.849 218.813 236.75C220.484 239.903 223 242.529 226.079 244.334C228.628 245.794 231.481 246.642 234.413 246.812Z" fill="white"/>
<path d="M210.007 275.608C210.188 273.304 209.541 270.877 210.621 268.891C211.165 267.888 212.394 267.176 213.462 267.597C214.381 267.933 219.531 269.202 220.159 269.428C220.497 269.594 220.763 269.877 220.908 270.225C221.052 270.573 221.064 270.961 220.942 271.317C220.709 272.139 214.691 276.779 214.691 276.779C214.691 276.779 211.695 275.62 210.007 275.608Z" fill="#8B94B0"/>
<path d="M209.701 276.843C211.731 276.226 213.903 276.27 215.907 276.966" stroke="#D1DBE8" stroke-width="1.94121" stroke-miterlimit="10" stroke-linecap="round"/>
<path d="M209.727 280.9C211.76 280.541 213.84 280.541 215.874 280.9" stroke="#D1DBE8" stroke-width="1.94121" stroke-miterlimit="10" stroke-linecap="round"/>
<path d="M210.607 285.409C212.437 284.758 214.4 284.566 216.321 284.853" stroke="#D1DBE8" stroke-width="1.94121" stroke-miterlimit="10" stroke-linecap="round"/>
<path d="M246.416 214.918C246.416 214.918 227.858 206.882 218.45 210.693L210.607 202.598C210.607 202.598 197.75 200.075 196.424 191.061C196.096 188.889 195.927 186.696 195.919 184.5C195.919 179.672 196.767 176.793 196.812 174.794C196.87 172.05 193.997 167.294 197.278 163.638C197.278 163.638 207.262 158.274 221.698 159.419C233.643 160.37 238.865 162.816 238.865 162.816C242.324 176.525 244.683 190.488 245.918 204.572C246.196 208.021 246.364 211.489 246.416 214.918Z" fill="#FFC061"/>
<path d="M246.415 214.918C246.415 214.918 227.857 206.882 218.449 210.693L210.606 202.598C210.606 202.598 197.749 200.074 196.423 191.061C196.095 188.889 195.926 186.696 195.918 184.499C197.329 186.065 200.674 192.323 207.565 188.291C211.855 185.774 213.589 178.404 217.672 175.57C220.63 173.525 224.383 173.111 229.151 172.335C224.537 167.647 218.855 164.148 212.593 162.137C216.927 162.292 221.107 163.781 224.564 166.401C226.673 168.012 228.55 170.057 231.034 170.93C233.519 171.804 236.981 170.93 237.596 168.342C237.46 169.659 237.056 170.935 236.407 172.089C235.758 173.243 234.878 174.252 233.823 175.052C235.663 176.428 237.777 177.392 240.022 177.88C237.75 179.214 235.142 179.865 232.51 179.756C232.679 183.481 233.787 187.103 235.732 190.284C237.677 193.466 240.395 196.103 243.633 197.952C241.341 199.114 238.71 199.423 236.211 198.826C238.88 201.569 242.229 203.554 245.917 204.578C246.195 208.02 246.363 211.489 246.415 214.918Z" fill="#F0A04A"/>
<path d="M211.642 226.488C211.642 226.488 210.076 239.695 208.336 246.133C208.336 246.191 208.303 246.262 208.284 246.327C208.061 247.221 207.745 248.088 207.339 248.915C203.826 255.25 189.06 253.387 190.994 240.406C191.003 240.302 191.018 240.198 191.04 240.096L191.117 239.656C192.593 232.117 200.014 222.605 200.014 222.605L211.642 226.488Z" fill="#8B94B0"/>
<path d="M208.284 246.354C208.061 247.248 207.745 248.115 207.339 248.942C203.826 255.277 189.06 253.413 190.994 240.433C191.003 240.329 191.018 240.225 191.04 240.123L191.117 239.683C191.394 241.45 192.108 243.121 193.194 244.542C194.379 246.029 195.93 247.182 197.696 247.887C199.461 248.591 201.38 248.824 203.263 248.56C205.101 248.276 206.832 247.516 208.284 246.354Z" fill="#D1DBE8"/>
<path d="M225.938 175.59L228.151 170.621C228.151 170.621 221.758 166.311 216.433 167.456C210.777 168.666 201.55 177.408 205.743 196.956L225.938 175.59Z" fill="#B55C62"/>
<path d="M230.743 175.052C230.219 179.55 229.158 181.523 229.158 181.523C229.158 181.523 228.006 188.473 222.526 199.421C218.682 207.115 214.864 217.778 212.93 223.447C212.101 225.854 211.635 227.362 211.635 227.362C209.118 233.353 199.218 231.587 199.121 224.722C199.121 224.722 201.153 215.947 202.356 209.839C202.732 207.898 203.004 206.189 203.12 205.167C203.534 201.019 204.899 183.167 212.515 176.567C216.747 172.885 218.164 167.954 224.163 168.983C224.15 168.983 231.267 170.562 230.743 175.052Z" fill="#BF6565"/>
<path d="M212.93 223.421C212.101 225.828 211.635 227.336 211.635 227.336C209.118 233.328 199.218 231.561 199.121 224.696C199.121 224.696 201.153 215.922 202.356 209.813C202.911 212.51 203.937 215.088 205.385 217.429C207.166 220.208 209.82 222.316 212.93 223.421Z" fill="#B55C62"/>
<path d="M220.592 171.487C220.22 173.895 220.632 176.359 221.769 178.514C221.05 178.346 220.395 177.975 219.879 177.447C219.363 176.919 219.009 176.254 218.857 175.531C218.744 174.763 218.846 173.978 219.152 173.264C219.459 172.55 219.957 171.935 220.592 171.487Z" fill="#91474C"/>
<path d="M199.738 230.131C199.95 227.672 200.165 225.217 200.385 222.767C200.403 222.252 200.502 221.744 200.677 221.259C200.764 221.023 200.909 220.811 201.099 220.645C201.289 220.479 201.517 220.363 201.764 220.308C202.469 220.205 203.058 220.832 203.621 221.298C204.674 222.183 206.019 222.644 207.393 222.592C207.982 222.592 208.571 222.45 209.16 222.476C209.457 222.471 209.752 222.532 210.024 222.654C210.296 222.776 210.537 222.956 210.732 223.181C211.288 223.912 211.068 224.993 210.784 225.892C210.367 227.154 209.876 228.39 209.315 229.594C208.881 230.545 208.331 231.535 207.374 231.936C206.648 232.166 205.874 232.193 205.135 232.014C203.278 231.723 201.252 231.373 199.738 230.131Z" fill="#8B94B0"/>
<path d="M199.854 230.829C201.03 230.627 202.235 230.668 203.394 230.95C204.554 231.231 205.644 231.747 206.596 232.466" stroke="#D1DBE8" stroke-width="1.94121" stroke-miterlimit="10" stroke-linecap="round"/>
<path d="M198.812 234.356C199.987 234.151 201.191 234.19 202.35 234.47C203.509 234.751 204.598 235.267 205.548 235.987" stroke="#D1DBE8" stroke-width="1.94121" stroke-miterlimit="10" stroke-linecap="round"/>
<path d="M197.875 238.342C199.051 238.14 200.256 238.181 201.416 238.462C202.575 238.744 203.665 239.26 204.617 239.979" stroke="#D1DBE8" stroke-width="1.94121" stroke-miterlimit="10" stroke-linecap="round"/>
<path d="M238.541 161.18C238.541 161.18 230.381 158.313 222.545 157.686C213.648 156.974 200.027 159.73 196.818 162.804C196.337 162.526 195.943 162.12 195.68 161.631C195.417 161.142 195.296 160.589 195.329 160.035C195.357 159.379 195.506 158.733 195.769 158.132C196.785 155.686 195.685 154.211 194.411 152.308C193.813 151.47 193.295 150.578 192.864 149.643C191.777 147.197 190.671 144.867 190.101 143.69L189.713 142.887C189.713 142.887 197.529 131.835 191.356 114.261L192.288 114.151L195.485 113.763L196.662 113.62C196.662 113.62 201.703 121.081 209.96 119.573C217.517 118.195 216.294 113.167 215.602 107.389L216.514 107.137L218.643 106.574L219.97 106.218C219.97 106.218 224.674 112.947 226.868 118.616C228.116 121.851 230.556 126.025 232.432 129.519C233.862 132.191 234.969 134.449 234.943 135.517C234.891 137.982 235.713 147.21 235.713 147.21C235.713 147.21 239.078 158.016 238.541 161.18Z" fill="#FFC061"/>
<path d="M199.381 118.084C207.888 127.307 219.083 133.616 231.378 136.118C218.845 136.506 206.363 129.485 199.381 118.084Z" fill="#F0A04A"/>
<path d="M206.86 155.699C206.517 156.469 205.501 156.573 204.66 156.618C201.27 156.76 198.009 157.954 195.329 160.035C195.356 159.379 195.506 158.734 195.769 158.132C196.785 155.686 195.685 154.211 194.41 152.309C196.974 153.946 200.061 154.556 203.055 154.017C203.892 153.759 204.775 153.684 205.643 153.797C206.465 154.017 207.203 154.903 206.86 155.699Z" fill="#F0A04A"/>
<path d="M190.101 143.664L189.713 142.861C189.713 142.861 197.529 131.809 191.356 114.235L192.288 114.125C194.392 118.846 195.293 124.015 194.912 129.17C194.53 134.324 192.877 139.304 190.101 143.664Z" fill="#3A424F"/>
<path d="M216.333 117.133C214.851 119.274 212.308 120.239 210.302 120.685C207.2 121.356 203.961 120.928 201.14 119.475C198.706 118.202 196.73 116.203 195.484 113.755L196.662 113.613C196.662 113.613 201.703 121.073 209.959 119.566C217.517 118.187 216.294 113.16 215.602 107.381L216.514 107.129C216.896 108.785 218.294 114.285 216.333 117.133Z" fill="#3A424F"/>
<path d="M232.434 129.519C229.845 126.516 227.865 122.912 226.073 119.334C223.86 114.927 221.757 110.359 218.645 106.574L219.971 106.218C219.971 106.218 224.675 112.947 226.869 118.616C228.118 121.825 230.557 126.025 232.434 129.519Z" fill="#3A424F"/>
<path d="M212.108 137.238C211.953 137.778 211.674 138.275 211.293 138.689C210.912 139.102 210.44 139.421 209.914 139.619C210 140.319 210.121 141.015 210.276 141.703C210.985 141.615 211.701 141.602 212.412 141.664C212.566 144.608 213.012 147.53 213.745 150.386C213.156 150.509 212.561 150.619 211.952 150.755C212.026 151.566 212.18 152.368 212.412 153.149C214.225 152.708 216.079 152.454 217.944 152.392C217.815 151.609 217.685 150.826 217.562 149.907C217.006 149.907 216.443 149.907 215.854 149.862C214.79 145.738 214.33 141.481 214.489 137.225C213.696 137.174 212.9 137.178 212.108 137.238Z" fill="#3A424F"/>
<path d="M219.711 149.539L218.728 140.175C218.674 139.76 218.708 139.337 218.827 138.935C218.946 138.533 219.147 138.16 219.418 137.84C219.689 137.52 220.023 137.259 220.4 137.075C220.777 136.892 221.188 136.788 221.607 136.772L224.571 136.727C225.318 136.729 226.037 137.011 226.585 137.518C227.134 138.025 227.473 138.719 227.534 139.464L228.511 148.691C228.563 149.096 228.533 149.507 228.422 149.9C228.311 150.293 228.122 150.66 227.865 150.978C227.609 151.296 227.291 151.559 226.931 151.751C226.57 151.942 226.175 152.059 225.768 152.094L222.811 152.276C222.041 152.307 221.289 152.039 220.711 151.529C220.134 151.019 219.776 150.306 219.711 149.539Z" fill="#3A424F"/>
<path d="M221.652 147.946L221.141 141.773C221.038 140.596 221.717 139.554 222.591 139.541H224.092C224.862 139.541 225.516 140.311 225.6 141.353L226.117 147.422C226.221 148.574 225.58 149.59 224.733 149.661L223.238 149.778C222.442 149.816 221.743 149.021 221.652 147.946Z" fill="#FFC061"/>
<path d="M125.977 111.763C126.275 111.459 126.624 111.168 126.896 110.844C126.987 110.653 127.093 110.469 127.213 110.294C127.676 109.644 128.371 109.195 129.154 109.039C129.575 108.515 130.002 107.991 130.448 107.46L128.255 101.158C128.255 101.158 118.161 96.0783 115.592 99.5919C113.023 103.105 116.472 110.948 116.472 110.948L122.476 115.84C123.52 114.38 124.692 113.016 125.977 111.763Z" fill="#91474C"/>
<path d="M147.842 98.8798C147.79 101.286 147.2 103.649 146.114 105.797C145.776 106.472 145.389 107.121 144.956 107.738C144.768 108.01 144.574 108.262 144.373 108.521C144.173 108.78 144.115 108.851 143.979 109.006L143.933 109.052L143.869 109.123L143.616 109.408L143.273 109.77L143.228 109.815L142.905 110.132C142.266 110.757 141.573 111.325 140.834 111.828C140.636 111.966 140.435 112.095 140.232 112.216H140.2C140.083 112.294 139.954 112.371 139.838 112.436C139.453 112.674 139.056 112.89 138.647 113.083C138.485 113.167 138.31 113.245 138.136 113.316C137.961 113.387 137.845 113.445 137.702 113.497C137.456 113.594 137.21 113.691 136.958 113.769C136.706 113.847 136.279 114.002 135.929 114.092C135.58 114.183 135.282 114.254 134.952 114.325L134.305 114.435C134.13 114.435 133.949 114.494 133.768 114.513C133.251 114.58 132.73 114.621 132.209 114.636C132.017 114.646 131.825 114.646 131.633 114.636H131.367C130.776 114.623 130.187 114.578 129.601 114.5C129.394 114.5 129.18 114.448 128.954 114.409C128.522 114.336 128.108 114.246 127.711 114.138C127.524 114.086 127.336 114.047 127.155 113.982H127.136C126.78 113.879 126.43 113.762 126.087 113.627C125.964 113.588 125.841 113.536 125.725 113.491L125.453 113.374C125.304 113.316 125.156 113.245 125.007 113.174C124.858 113.102 124.709 113.038 124.567 112.96L124.204 112.779C124.148 112.754 124.093 112.724 124.043 112.688L123.7 112.501C123.564 112.417 123.421 112.339 123.285 112.248C123.116 112.152 122.952 112.046 122.794 111.931C122.464 111.718 122.147 111.485 121.836 111.239C121.635 111.077 121.435 110.915 121.241 110.747C121.112 110.644 120.989 110.534 120.872 110.417C120.723 110.288 120.587 110.158 120.451 110.022C120.315 109.886 120.108 109.673 119.947 109.498C119.785 109.324 119.649 109.175 119.507 109.006C119.364 108.838 119.19 108.625 119.041 108.431C118.843 108.172 118.651 107.909 118.465 107.641C118.433 107.606 118.404 107.567 118.381 107.525L118.29 107.389L118.148 107.182L117.792 106.612C117.52 106.133 117.274 105.648 117.048 105.143C116.938 104.891 116.821 104.639 116.724 104.386C116.562 103.966 116.42 103.545 116.297 103.092C116.263 102.99 116.235 102.887 116.213 102.782C116.102 102.405 116.014 102.023 115.948 101.636C115.917 101.524 115.895 101.409 115.883 101.293C115.796 100.847 115.737 100.395 115.708 99.941C115.708 99.7642 115.695 99.5895 115.669 99.4169C115.66 99.3309 115.66 99.2441 115.669 99.1581C115.666 99.0977 115.666 99.0372 115.669 98.9769C115.669 98.7116 115.669 98.4463 115.669 98.1745C115.669 97.9028 115.669 97.6116 115.715 97.3333C115.76 97.0551 115.754 96.8351 115.786 96.5892C115.818 96.3433 115.851 96.1104 115.896 95.8774C115.904 95.7747 115.921 95.6729 115.948 95.5733C115.993 95.3404 116.045 95.101 116.097 94.8745C116.532 92.9916 117.303 91.2029 118.374 89.5944L118.982 88.7661C119.196 88.4879 119.416 88.2097 119.63 87.9508C121.847 85.3883 124.823 83.5979 128.126 82.839C128.723 82.6889 129.331 82.5851 129.944 82.5284C130.654 82.4441 131.37 82.4117 132.086 82.4313C135.262 82.4964 138.347 83.503 140.95 85.3237C141.242 85.5243 141.533 85.7443 141.811 85.9708C143.532 87.3464 144.952 89.0618 145.982 91.0099C147.012 92.958 147.629 95.0973 147.796 97.2945C147.83 97.6515 147.845 98.0101 147.842 98.3687C147.842 98.5498 147.842 98.7116 147.842 98.8798Z" fill="#F78431"/>
<path opacity="0.59" d="M144.956 107.731C144.768 108.003 144.574 108.255 144.373 108.514C144.244 108.676 144.115 108.837 143.966 108.999V109.044L143.901 109.116L143.649 109.4L143.306 109.763L143.261 109.808L142.937 110.125C142.298 110.75 141.605 111.317 140.866 111.82C140.668 111.958 140.467 112.088 140.265 112.209H140.232C140.116 112.286 139.986 112.364 139.87 112.429C139.486 112.667 139.088 112.883 138.679 113.076C138.517 113.16 138.343 113.237 138.168 113.309C137.993 113.38 137.877 113.438 137.735 113.49C137.489 113.587 137.243 113.684 136.99 113.762C136.738 113.839 136.311 113.995 135.962 114.085C135.612 114.176 135.315 114.247 134.985 114.318L134.337 114.428C134.163 114.428 133.982 114.486 133.8 114.506C133.283 114.573 132.762 114.614 132.241 114.629C132.049 114.638 131.857 114.638 131.665 114.629H131.4C130.809 114.616 130.219 114.571 129.633 114.493C129.426 114.493 129.213 114.441 128.986 114.402C128.555 114.329 128.141 114.238 127.744 114.13C127.556 114.079 127.368 114.04 127.187 113.975H127.136C126.78 113.872 126.43 113.755 126.087 113.619C125.964 113.58 125.841 113.529 125.725 113.483L125.453 113.367C125.304 113.309 125.156 113.237 125.007 113.166C124.858 113.095 124.709 113.03 124.567 112.953L124.204 112.772C124.148 112.747 124.093 112.716 124.043 112.681L123.7 112.493C123.564 112.409 123.421 112.332 123.285 112.241C123.116 112.144 122.952 112.039 122.794 111.924C122.464 111.71 122.147 111.477 121.836 111.232C121.635 111.07 121.435 110.908 121.241 110.74C121.112 110.636 120.989 110.526 120.872 110.41C120.723 110.28 120.587 110.151 120.451 110.015C120.315 109.879 120.108 109.666 119.947 109.491C119.785 109.316 119.649 109.167 119.507 108.999C119.364 108.831 119.19 108.617 119.041 108.423C118.843 108.165 118.651 107.901 118.465 107.634C118.433 107.598 118.404 107.559 118.381 107.517L118.29 107.382L118.148 107.174L117.792 106.605C117.52 106.126 117.274 105.641 117.048 105.136C116.938 104.884 116.821 104.631 116.724 104.379C116.562 103.959 116.42 103.538 116.297 103.085C116.263 102.983 116.235 102.879 116.213 102.774C116.102 102.398 116.014 102.016 115.948 101.629C115.917 101.517 115.895 101.402 115.883 101.286C115.796 100.84 115.737 100.388 115.708 99.9337C115.708 99.7569 115.695 99.5822 115.669 99.4096C115.66 99.3236 115.66 99.2368 115.669 99.1508C115.666 99.0904 115.666 99.03 115.669 98.9696C115.669 98.7043 115.669 98.439 115.669 98.1672C115.669 97.8955 115.669 97.6043 115.715 97.3261C115.76 97.0478 115.754 96.8278 115.786 96.5819C115.818 96.336 115.851 96.1031 115.896 95.8701C115.904 95.7674 115.921 95.6656 115.948 95.566C115.993 95.3331 116.045 95.0937 116.097 94.8672C116.102 96.2648 116.271 97.6569 116.601 99.0149C116.66 99.2737 116.731 99.539 116.808 99.7914C117.229 101.245 117.843 102.636 118.633 103.926C118.808 104.217 118.989 104.502 119.183 104.774C120.663 106.941 122.617 108.742 124.897 110.041C127.58 111.563 130.623 112.334 133.707 112.275C136.791 112.216 139.803 111.328 142.426 109.704C142.782 109.472 143.144 109.232 143.487 108.967C144.002 108.586 144.492 108.173 144.956 107.731Z" fill="#F07030"/>
<path d="M147.842 98.8798C147.79 101.286 147.2 103.649 146.114 105.797C144.331 107.12 142.303 108.076 140.148 108.612C139.481 108.788 138.802 108.918 138.116 109C134.739 109.451 131.303 108.899 128.237 107.413C125.171 105.926 122.61 103.571 120.872 100.64C120.71 100.368 120.561 100.09 120.425 99.8116C119.108 97.1949 118.564 94.2564 118.859 91.3415C118.859 91.3027 118.859 91.2509 118.859 91.2121C118.917 90.6678 119.008 90.1276 119.131 89.5944C119.246 89.0329 119.397 88.4795 119.584 87.9379C121.816 85.3719 124.808 83.5855 128.126 82.839C128.723 82.6889 129.331 82.5851 129.944 82.5284C130.654 82.4441 131.37 82.4117 132.086 82.4313C135.262 82.4964 138.347 83.503 140.95 85.3237C141.242 85.5243 141.533 85.7443 141.811 85.9708C143.532 87.3464 144.952 89.0618 145.982 91.0099C147.012 92.958 147.629 95.0973 147.796 97.2945C147.83 97.6515 147.845 98.0101 147.842 98.3687C147.842 98.5498 147.842 98.7116 147.842 98.8798Z" fill="#F78F39"/>
<path d="M118.356 107.505C118.562 106.579 118.822 105.665 119.132 104.768C119.473 103.716 119.882 102.687 120.355 101.688C120.472 101.429 120.595 101.183 120.724 100.924C120.776 100.834 120.821 100.73 120.873 100.64C121.309 99.7977 121.788 98.9792 122.309 98.1872C122.465 97.9543 122.62 97.7213 122.788 97.4884C123.289 96.7683 123.826 96.075 124.399 95.4113C125.029 94.6798 125.701 93.9862 126.412 93.3342C126.599 93.1465 126.8 92.9718 126.988 92.8036C131.168 89.1443 136.315 86.7674 141.812 85.9576C141.534 85.7247 141.243 85.5047 140.951 85.3105C135.614 86.2325 130.63 88.5978 126.541 92.1501L125.952 92.6807C125.197 93.384 124.48 94.127 123.804 94.9066C123.282 95.5058 122.791 96.1321 122.335 96.7831C122.159 97.0094 121.995 97.2448 121.844 97.4884C121.327 98.2371 120.854 99.0149 120.426 99.8178C120.323 99.999 120.232 100.174 120.142 100.355C120.006 100.592 119.883 100.836 119.773 101.086C119.33 102.01 118.935 102.956 118.589 103.92C118.272 104.792 118 105.68 117.773 106.58L118.356 107.505Z" fill="#332726"/>
<path d="M147.843 98.3684C146.428 97.05 144.755 96.0397 142.929 95.4015C141.103 94.7633 139.165 94.511 137.237 94.6607C136.461 94.7255 135.639 94.8678 134.849 94.9972C132.598 95.379 130.262 95.7802 128.178 94.7384C127.496 94.3987 126.896 93.9153 126.418 93.3213C126.246 93.1196 126.092 92.9031 125.959 92.6742C125.373 91.6599 125.036 90.5208 124.976 89.3508C124.917 88.1808 125.136 87.0134 125.616 85.9447C126.202 84.7226 127.064 83.6529 128.133 82.8194C128.73 82.6693 129.338 82.5655 129.951 82.5088C128.388 83.3678 127.122 84.681 126.321 86.2747C125.904 87.2042 125.707 88.2176 125.746 89.2357C125.786 90.2539 126.06 91.2491 126.548 92.1436C126.678 92.3714 126.827 92.5878 126.994 92.7907C127.41 93.3133 127.935 93.7375 128.534 94.0331C130.385 94.9649 132.494 94.6025 134.72 94.2272C135.522 94.0849 136.351 93.949 137.166 93.8713C139.075 93.71 140.998 93.927 142.823 94.5099C144.649 95.0929 146.341 96.0303 147.804 97.2684C147.836 97.6342 147.849 98.0013 147.843 98.3684Z" fill="#332726"/>
<path d="M143.273 109.763C142.976 109.763 142.671 109.731 142.374 109.705C136.57 109.203 131.071 106.887 126.657 103.086C125.009 101.64 123.548 99.9946 122.308 98.1872C122.146 97.9543 121.991 97.7213 121.842 97.4819C120.6 95.5648 119.599 93.5024 118.859 91.3412C118.659 90.7588 118.484 90.1765 118.322 89.5812L118.931 88.7529C118.989 89.0312 119.06 89.3159 119.144 89.5941C119.845 92.1334 120.92 94.5541 122.334 96.7766C122.476 97.016 122.632 97.2554 122.787 97.4884C124.028 99.3374 125.503 101.019 127.174 102.49C130.856 105.68 135.344 107.798 140.148 108.611C141.234 108.807 142.332 108.926 143.435 108.967C143.616 108.967 143.778 108.967 143.959 108.967L143.273 109.763Z" fill="#332726"/>
<path d="M131.438 114.635L129.607 114.493C127.748 113.338 126.136 111.827 124.864 110.048C124.406 109.407 123.995 108.735 123.634 108.035C123.265 107.317 122.955 106.56 122.644 105.842C122.334 105.123 121.965 104.224 121.551 103.46C121.225 102.831 120.83 102.241 120.373 101.7C120.198 101.48 120.001 101.278 119.784 101.099C119.345 100.685 118.837 100.352 118.283 100.115C117.803 99.9154 117.289 99.81 116.769 99.8044C116.406 99.7999 116.044 99.8479 115.695 99.9468C115.695 99.7699 115.682 99.5952 115.656 99.4226C115.646 99.3366 115.646 99.2498 115.656 99.1638C115.955 99.0798 116.264 99.0341 116.575 99.0279C117.271 98.9908 117.966 99.1148 118.606 99.3903C119.174 99.6319 119.701 99.9617 120.166 100.367C120.376 100.543 120.571 100.735 120.748 100.943C121.343 101.587 121.85 102.308 122.256 103.085C122.683 103.887 123.039 104.729 123.382 105.544C123.679 106.256 123.99 106.987 124.339 107.679C124.935 108.85 125.681 109.938 126.559 110.915C127.932 112.456 129.588 113.719 131.438 114.635Z" fill="#332726"/>
<path d="M128.307 120.201C128.307 120.201 120.963 117.677 118.601 115.671C116.239 113.665 115.54 109.382 115.851 107.421C116.064 106.094 116.938 104.541 118.594 102.82C120.251 101.099 120.62 103.532 120.257 104.645C119.895 105.758 119.371 107.945 119.371 107.945L120.063 110.372C120.063 110.372 124.677 110.048 126.696 113.736C128.714 117.425 128.307 120.201 128.307 120.201Z" fill="#BF6565"/>
<path d="M322.001 237.162C322.001 237.338 322.001 237.514 322.001 237.698C321.93 244.418 319.201 250.838 314.411 255.553C309.621 260.268 303.16 262.895 296.439 262.859C289.717 262.824 283.284 260.129 278.544 255.364C273.803 250.599 271.143 244.151 271.143 237.43C271.143 230.709 273.803 224.261 278.544 219.496C283.284 214.731 289.717 212.036 296.439 212C303.16 211.965 309.621 214.592 314.411 219.307C319.201 224.022 321.93 230.441 322.001 237.162Z" fill="white"/>
<path d="M320.518 245.754C319.332 249.054 317.478 252.074 315.072 254.626C312.666 257.178 309.76 259.206 306.535 260.584C303.31 261.963 299.836 262.661 296.329 262.636C292.822 262.611 289.357 261.863 286.152 260.439C282.947 259.015 280.071 256.946 277.701 254.36C275.332 251.774 273.521 248.727 272.383 245.41C271.244 242.093 270.801 238.577 271.082 235.081C271.363 231.585 272.362 228.185 274.016 225.093C271.837 231.156 272.033 237.82 274.565 243.745C277.097 249.67 281.777 254.417 287.666 257.033C293.554 259.65 300.214 259.941 306.308 257.848C312.402 255.756 317.479 251.435 320.518 245.754Z" fill="#CBD2D8"/>
<mask id="mask0_10452_27324" style="mask-type:luminance" maskUnits="userSpaceOnUse" x="271" y="212" width="51" height="51">
<path d="M321.999 237.163C321.999 237.339 321.999 237.515 321.999 237.698C321.928 244.419 319.2 250.838 314.409 255.553C309.619 260.268 303.158 262.895 296.437 262.86C289.715 262.824 283.282 260.13 278.542 255.365C273.801 250.599 271.141 244.152 271.141 237.43C271.141 230.709 273.801 224.261 278.542 219.496C283.282 214.731 289.715 212.036 296.437 212.001C303.158 211.965 309.619 214.592 314.409 219.307C319.2 224.022 321.928 230.442 321.999 237.163Z" fill="white"/>
</mask>
<g mask="url(#mask0_10452_27324)">
<path d="M321.295 251.557C319.755 251.621 318.223 251.295 316.842 250.611C318.041 247.607 318.707 244.416 318.808 241.183C320.408 240.581 322.007 239.987 323.269 239.591C324.993 243.861 324.406 248.989 321.295 251.557Z" fill="#222F38"/>
<path d="M308.983 230.353C308.883 227.197 308.432 224.062 307.641 221.006C303.891 218.995 299.783 218.218 296.232 219.575C294.666 222.034 293.493 224.723 292.754 227.543C294.639 230.561 296.736 233.442 299.027 236.164C302.439 234.234 305.85 232.297 308.983 230.353Z" fill="#222F38"/>
<path d="M290.244 253.86C290.288 255.838 290.673 257.794 291.381 259.642C294.855 260.87 298.601 261.112 302.203 260.339C303.715 258.967 304.338 257.463 305.182 255.694C303.495 253.911 300.78 252.224 298.403 250.36C295.804 251.79 293.071 252.962 290.244 253.86Z" fill="#222F38"/>
<path d="M299.238 233.436L298.182 253.157" stroke="#222F38" stroke-width="0.733694" stroke-miterlimit="10"/>
<path d="M294.932 227.191C291.059 227.537 287.328 228.819 284.06 230.927C280.792 233.034 278.085 235.904 276.172 239.29" stroke="#222F38" stroke-width="0.733694" stroke-miterlimit="10"/>
<path d="M306.988 229.444C310.118 230.429 312.927 232.236 315.12 234.677C317.314 237.117 318.813 240.101 319.461 243.318" stroke="#222F38" stroke-width="0.733694" stroke-miterlimit="10"/>
<path d="M306.941 222.092C309.204 220.636 311.27 218.895 313.09 216.913" stroke="#222F38" stroke-width="0.733694" stroke-miterlimit="10"/>
<path d="M297.772 220.295C295.655 217.121 292.538 214.745 288.916 213.545" stroke="#222F38" stroke-width="0.733694" stroke-miterlimit="10"/>
<path d="M274.507 251.131L279.899 248.644C278.162 245.142 277.144 241.328 276.906 237.426C274.621 236.651 272.14 236.685 269.877 237.521C269.262 239.995 269.371 242.593 270.192 245.006C271.013 247.42 272.511 249.546 274.507 251.131Z" fill="#222F38"/>
<path d="M280.494 215.137C283.853 214.731 287.24 214.616 290.619 214.792C291.067 213.112 291.514 211.439 291.962 209.751C287.787 210.603 283.51 211.505 280.494 215.137Z" fill="#222F38"/>
<path d="M292.43 258.998L286.707 261.69" stroke="#222F38" stroke-width="0.733694" stroke-miterlimit="10"/>
<path d="M301.668 260.347C303.148 261.743 304.27 263.474 304.94 265.395" stroke="#222F38" stroke-width="0.733694" stroke-miterlimit="10"/>
<path d="M304.236 255.571C309.305 255.084 314.073 252.941 317.802 249.474" stroke="#222F38" stroke-width="0.733694" stroke-miterlimit="10"/>
<path d="M291.821 254.147C289.209 254.086 286.645 253.432 284.323 252.235C282 251.038 279.981 249.328 278.416 247.236" stroke="#222F38" stroke-width="0.733694" stroke-miterlimit="10"/>
</g>
<path d="M178.789 342.225L182.154 346.281L184.898 350.772L146.213 366.86L154.204 351.955L178.789 342.225Z" fill="#6F7B9E"/>
<path d="M189.31 377.702C186.352 383.675 180.578 389.535 175.767 389.713L151.88 390.533C134.437 391.117 113.423 391.802 110.087 391.802C110.087 391.802 101.697 381.95 109.624 376.041C109.624 376.041 125.049 372.206 133.204 370.21C139.343 368.821 145.696 368.649 151.901 369.704L151.823 369.562L150.248 366.454L148.059 362.177L177.157 340.678C177.157 340.678 180.543 347.628 183.807 355.597C187.407 364.429 190.872 374.558 189.31 377.702Z" fill="#F69887"/>
<path d="M183.78 355.562C173.572 352.525 155.174 363.36 150.22 366.454L148.031 362.177L177.129 340.678C177.129 340.678 180.515 347.592 183.78 355.562Z" fill="#DB6F60"/>
<path d="M122.689 325.274C122.689 325.274 143.597 360.467 146.02 366.882C146.02 366.882 175.474 347.422 178.96 346.609C182.446 345.797 184.827 350.744 184.827 350.744L170.827 311.403L122.689 325.274Z" fill="#C5D1DE"/>
<path d="M165.751 324.319C162.658 336.426 157.319 347.843 150.012 357.979C154.902 347.244 159.756 336.502 165.751 324.319Z" fill="#A1B2CC"/>
<path d="M163.861 324.54C158.831 333.339 151.418 340.539 142.477 345.311C150.107 338.924 157.255 331.981 163.861 324.54Z" fill="#A1B2CC"/>
<path d="M166.984 326.849L170.242 328.524L175.624 315.679L167.077 316.62L166.984 326.849Z" fill="#6F7B9E"/>
<path d="M276.211 317.562C276.444 318.246 276.819 318.874 277.31 319.404C277.801 319.934 278.398 320.356 279.062 320.641C287.167 320.156 290.004 314.318 296.42 311.417C302.999 308.452 310.462 307.989 316.906 304.731C323.742 301.288 326.558 296.384 326.558 296.384C326.558 296.384 325.731 293.718 325.189 293.796C309.885 300.675 293.796 307.739 276.211 317.562Z" fill="#2E191F"/>
<path d="M280.289 319.822C280.752 320.435 281.209 321.048 281.672 321.654C282.438 321.56 283.185 321.351 283.889 321.034C283.775 320.392 283.668 319.75 283.561 319.109" fill="#2E191F"/>
<path d="M284.395 318.495L285.877 320.241C286.693 320.06 287.444 319.661 288.051 319.086C287.902 318.452 287.559 317.661 287.41 317.026" fill="#2E191F"/>
<path d="M288.914 315.302C289.406 315.886 289.905 316.471 290.404 317.048C291.207 316.862 291.946 316.463 292.542 315.894C292.393 315.259 292.058 314.468 291.901 313.833" fill="#2E191F"/>
<path d="M303.57 308.516C304.005 309.15 304.433 309.778 304.875 310.412C305.702 310.308 306.487 309.986 307.149 309.478C307.07 308.837 306.814 308.01 306.728 307.34" fill="#2E191F"/>
<path d="M310.135 306.442C310.577 307.069 311.004 307.703 311.446 308.331C312.275 308.23 313.06 307.907 313.72 307.397C313.635 306.755 313.385 305.928 313.3 305.258" fill="#2E191F"/>
<path d="M316.715 303.811C317.157 304.439 317.584 305.073 318.026 305.7C318.853 305.599 319.638 305.279 320.3 304.774C320.215 304.125 319.965 303.298 319.88 302.635" fill="#2E191F"/>
<path d="M322.096 299.491C322.531 300.119 323.144 301.316 323.586 301.943C324.555 301.71 325.461 301.265 326.237 300.639C326.159 299.997 325.339 298.415 325.254 297.788" fill="#2E191F"/>
<path d="M271.9 302.627C271.9 302.627 271.579 316.741 276.034 318.523C281.573 320.74 289.25 313.996 291.631 312.05C294.012 310.104 305.089 306.633 308.945 305.806C312.802 304.979 326.388 299.198 325.647 292.861C325.091 288.121 321.413 287.6 318.611 288.228C312.274 289.653 290.547 289.867 283.526 290.124L271.9 302.627Z" fill="#CF3045"/>
<path d="M291.673 289.711C290.672 291.563 290.029 293.588 289.777 295.678" stroke="#F7D9D7" stroke-width="2.85131" stroke-miterlimit="10" stroke-linecap="round"/>
<path d="M296.755 289.711C295.754 291.563 295.111 293.588 294.859 295.678" stroke="#F7D9D7" stroke-width="2.85131" stroke-miterlimit="10" stroke-linecap="round"/>
<path d="M302.351 289.711C301.35 291.563 300.707 293.588 300.455 295.678" stroke="#F7D9D7" stroke-width="2.85131" stroke-miterlimit="10" stroke-linecap="round"/>
<path d="M285.75 290.403L272.812 306.413C272.812 306.413 259.675 305.921 252.618 305.7C247.008 305.507 232.338 307.888 218.402 304.224C214.715 303.271 211.17 301.832 207.86 299.947C207.86 299.947 194.145 309.107 180.658 315.501C174.414 318.474 168.212 320.847 163.443 321.446L173.009 283.417C173.009 283.417 175.861 282.704 179.853 281.663C188.264 279.525 201.95 276.217 205.857 276.068C207.282 276.011 212.906 276.859 220.534 278.206C243.779 282.141 285.75 290.403 285.75 290.403Z" fill="#F69887"/>
<path d="M285.749 290.403L272.812 306.413C272.812 306.413 259.674 305.921 252.617 305.7C247.007 305.507 232.337 307.888 218.402 304.224C217.527 302.169 216.907 300.015 216.555 297.809C215.785 293.339 215.714 288.67 217.104 284.365C217.829 282.101 218.994 280.003 220.533 278.192C243.778 282.141 285.749 290.403 285.749 290.403Z" fill="#271F64"/>
<path d="M87.8588 394.589L95.4453 378.478C95.4453 378.478 106.587 376.195 112.563 374.932C117.317 373.942 129.157 368.93 141.621 369.148C142.778 370.696 143.741 372.38 144.489 374.161C146.054 377.759 147.072 381.668 146.788 385.572C146.644 387.623 146.095 389.625 145.173 391.464C124.827 392.916 87.8588 394.589 87.8588 394.589Z" fill="#271F64"/>
<path d="M180.666 315.508C174.422 318.48 168.22 320.854 163.451 321.453L173.017 283.423C173.017 283.423 175.869 282.711 179.86 281.67C177.95 286.645 170.686 307.66 180.666 315.508Z" fill="#DB6F60"/>
<path d="M289.627 290.231C287.675 287.23 284.873 284.878 281.579 283.474C281.011 283.137 280.345 283.004 279.69 283.096C278.628 283.367 278.229 284.636 278.265 285.683C278.3 286.731 278.65 287.822 278.265 288.82C277.937 289.682 277.089 290.431 277.238 291.343C277.367 292.106 278.151 292.591 278.871 292.969C281.009 294.116 283.148 295.25 285.286 296.39C286.911 294.594 287.745 292.07 289.627 290.231Z" fill="#CF3045"/>
<path d="M179.852 281.015C175.675 288.143 173.28 299.042 171.904 308.622C170.969 315.224 170.374 321.869 170.122 328.532C170.122 328.532 141.024 335.154 130.054 332.146C123.182 330.264 116.724 325.303 114.778 313.783C112.575 300.724 118.057 286.133 118.057 286.133L128.193 287.558L139.092 289.091L179.852 281.015Z" fill="#E4EAF0"/>
<path opacity="0.78" d="M179.852 281.015C175.674 288.143 173.279 299.042 171.904 308.622C171.913 307.625 171.823 306.629 171.633 305.65C171.302 303.539 170.178 301.634 168.489 300.325C166.821 299.156 164.711 298.899 162.68 298.686C155.829 298.065 148.772 298.172 142.278 300.425C135.785 302.677 129.854 307.311 127.309 313.698C128.561 306.863 132.18 300.687 137.531 296.255C131.336 297.718 125.54 300.532 120.559 304.495C125.07 299.128 130.806 294.923 137.282 292.235C132.433 290.761 127.378 290.077 122.312 290.21C124.261 289.312 126.216 288.428 128.179 287.558L139.078 289.091L179.852 281.015Z" fill="white"/>
<path d="M151.88 287.295C139.969 292.962 130.495 304.346 126.254 316.835C127.893 303.526 138.208 290.981 151.88 287.295Z" fill="#BDCBDE"/>
<path d="M151.881 287.295C141.189 290.731 126.169 299.378 117.965 307.026C124.387 297.596 140.134 288.308 151.881 287.295Z" fill="#BDCBDE"/>
<path d="M205.371 232.707C205.371 232.707 225.409 238.517 226.25 247.085C227.091 255.653 221.26 258.889 216.983 258.739C209.705 258.483 193.324 250.471 193.324 250.471L205.371 232.707Z" fill="#DB6F60"/>
<path d="M100.015 237.041C97.388 238.506 94.6436 239.748 91.81 240.755C79.3925 245.446 58.6707 251.22 58.6707 251.22L55.8906 240.263C59.5617 238.225 72.9272 229.393 79.3426 226.399C82.3294 225.03 86.4068 224.26 89.921 223.883C92.3735 223.609 94.8383 223.459 97.3059 223.434L100.015 237.041Z" fill="#F69887"/>
<path d="M100.014 237.041C97.3877 238.506 94.6432 239.748 91.8096 240.755C90.2406 235.277 89.6186 229.571 89.9705 223.883C92.4231 223.609 94.8878 223.459 97.3554 223.434L100.014 237.041Z" fill="#DB6F60"/>
<path d="M42.6535 255.96C42.6535 255.96 40.85 261.185 48.0425 260.757C50.8082 260.607 54.4579 257.906 56.1188 255.653C57.7797 253.4 58.9701 250.87 61.2939 248.603C59.8683 246.065 58.6422 243.421 57.3449 240.762C53.3966 238.894 49.1675 237.69 44.8276 237.198C43.7166 236.99 42.571 237.069 41.4987 237.426C40.1087 238.003 39.2319 239.365 38.5048 240.684C37.4498 242.591 36.5257 244.568 35.7391 246.6C35.1608 247.794 34.9145 249.121 35.0262 250.442C35.2206 251.256 35.604 252.012 36.1452 252.65C36.6864 253.288 37.3702 253.789 38.1413 254.113C39.6739 254.876 42.6535 255.96 42.6535 255.96Z" fill="#F69887"/>
<path d="M42.9883 255.596C44.0483 253.08 44.6518 250.396 44.7703 247.669" stroke="#BD3E42" stroke-width="0.712827" stroke-miterlimit="10" stroke-linecap="round"/>
<path d="M44.0216 252.387C42.94 251.128 41.6196 250.096 40.1367 249.351" stroke="#BD3E42" stroke-width="0.712827" stroke-miterlimit="10" stroke-linecap="round"/>
<path d="M139.021 289.176C134.908 289.924 121.464 291.058 115.99 293.538C112.746 293.032 112.005 290.095 112.732 287.836C113.459 285.576 115.213 283.773 116.923 282.09C114.208 266.615 116.467 255.594 118.349 246.342C111.071 246.342 106.794 246.306 100.243 245.85C94.2341 239.363 91.3757 228.528 90.2637 218.977C99.5304 219.625 107.721 217.636 117.009 215.84C126.297 214.044 136.17 210.736 146.171 214.222C168.736 216.273 190.727 222.477 211.038 232.52C204.623 240.582 198.257 248.652 192.69 256.428C188.413 256.428 182.746 255.83 178.433 255.402C177.328 259.558 174.869 268.133 173.857 272.439C175.596 276.003 176.366 278.711 175.824 282.204C162.031 285.255 142.685 288.513 139.021 289.176Z" fill="#3B6BEA"/>
<path d="M138.508 216.561C138.508 222.734 155.808 238.844 155.808 238.844C155.808 238.844 168.447 231.438 167.434 225.115C158.98 222.563 148.395 221.087 138.508 216.561Z" fill="#DB6F60"/>
<path d="M155.822 238.858C166.401 231.202 168.903 225.571 167.377 218.949C168.872 218.43 170.437 218.144 172.018 218.101C177.792 218.25 179.253 225.079 180.436 233.419C173.985 231.202 163.008 235.094 155.822 238.858Z" fill="#D9FBFF"/>
<path d="M155.822 238.858C146.94 229.976 145.7 223.746 147.368 215.598C144.025 214.172 141.181 213.11 137.631 213.873C134.73 220.346 133.154 224.359 133.154 232.506C138.864 231.287 150.006 234.381 155.822 238.858Z" fill="#D9FBFF"/>
<path d="M178.654 254.342C180.894 248.187 182.564 241.84 183.644 235.38C184.209 242.086 182.447 248.782 178.654 254.342Z" fill="#1F4BBF"/>
<path d="M179.715 252.616C184.506 247.512 188.323 241.574 190.978 235.095C190.214 238.889 188.834 242.532 186.893 245.88C184.89 249.159 182.117 252.039 179.715 252.616Z" fill="#1F4BBF"/>
<path d="M171.041 272.875C161.949 271.036 152.612 270.751 143.426 272.034C152.372 268.391 162.822 268.691 171.041 272.875Z" fill="#1F4BBF"/>
<path d="M119.781 245.702C123.681 239.947 126.273 233.406 127.373 226.542C127.569 230.094 126.992 233.648 125.682 236.956C124.371 240.264 122.358 243.248 119.781 245.702Z" fill="#1F4BBF"/>
<path d="M120.744 246.421C124.96 243.032 128.55 238.931 131.351 234.303C131.357 236.029 131.017 237.739 130.349 239.331C129.682 240.923 128.702 242.364 127.466 243.57C124.964 245.951 121.514 247.255 120.744 246.421Z" fill="#1F4BBF"/>
<path d="M167.84 253.244C168.667 250.592 170.891 248.967 172.83 249.53C174.769 250.093 175.624 252.766 174.79 255.411C173.956 258.055 171.739 259.723 169.8 259.124C167.861 258.526 167.02 255.888 167.84 253.244Z" fill="#FFC061"/>
<path d="M205.985 238.487C209.877 238.131 213.826 237.775 217.654 238.708C221.482 239.642 225.11 242.08 226.429 245.758C227.854 249.807 226.037 254.633 222.537 257.164C219.037 259.694 214.239 259.958 210.219 258.432C206.199 256.907 202.941 253.728 200.76 250.028C202.549 246.307 204.331 242.629 205.985 238.487Z" fill="#F08678"/>
<path d="M192.211 239.913C191.105 240.472 190.193 241.353 189.595 242.439C188.997 243.525 188.741 244.766 188.861 246C189.02 247.23 189.509 248.394 190.275 249.369C191.042 250.344 192.058 251.094 193.216 251.539C194.383 251.955 195.634 252.085 196.862 251.917C198.09 251.75 199.26 251.29 200.273 250.576C198.483 246.425 195.717 242.767 192.211 239.913Z" fill="#F08678"/>
<path d="M213.198 243.57C212.235 240.062 209.177 237.411 206.298 235.187C203.418 232.963 199.49 231.765 196.076 233.048C194.127 233.837 192.464 235.199 191.307 236.955C190.486 238.006 190.01 239.286 189.945 240.618C189.986 241.375 190.238 242.106 190.671 242.728C191.104 243.35 191.702 243.839 192.397 244.14C192.195 244.76 192.148 245.421 192.261 246.064C192.374 246.706 192.644 247.311 193.046 247.825C193.859 248.837 195.185 249.415 197.323 249.336C197.301 249.892 197.405 250.446 197.627 250.955C197.849 251.465 198.184 251.918 198.606 252.28C199.454 252.993 200.652 253.278 202.299 253.407C202.733 255.224 204.979 256.137 206.789 255.666C208.6 255.196 209.954 253.699 210.931 252.102C212.214 249.999 214.26 247.469 213.198 243.57Z" fill="#F69887"/>
<path d="M192.725 243.449C194.089 241.043 195.974 238.972 198.242 237.39" stroke="#BD3E42" stroke-width="0.712827" stroke-miterlimit="10" stroke-linecap="round"/>
<path d="M197.672 249.023C199.631 247.097 201.351 244.943 202.797 242.607" stroke="#BD3E42" stroke-width="0.712827" stroke-miterlimit="10" stroke-linecap="round"/>
<path d="M203.162 252.801C205.019 250.987 206.509 248.833 207.553 246.457" stroke="#BD3E42" stroke-width="0.712827" stroke-miterlimit="10" stroke-linecap="round"/>
<path d="M173.672 208.876C177.486 207.251 181.513 208.163 182.711 210.943C183.908 213.723 181.755 217.273 177.935 218.898C174.114 220.524 170.093 219.611 168.896 216.831C167.698 214.051 169.873 210.501 173.672 208.876Z" fill="#DB6F60"/>
<path d="M136.862 212.719C134.766 199.404 142.294 187.157 153.663 185.375C165.033 183.593 175.54 186.509 178.042 206.254C179.731 219.627 175.989 232.187 164.619 233.969C153.25 235.751 138.958 226.035 136.862 212.719Z" fill="#F69887"/>
<path d="M160.998 211.108C160.313 210.362 159.481 209.766 158.555 209.355C157.63 208.944 156.629 208.728 155.617 208.72C153.597 208.718 151.598 209.138 149.75 209.953C153.336 210.502 156.935 210.794 160.998 211.108Z" fill="#271F64"/>
<path d="M170.379 210.103C170.385 209.288 170.597 208.488 170.994 207.776C171.392 207.065 171.962 206.465 172.653 206.032C173.317 205.628 174.066 205.38 174.84 205.31C175.615 205.24 176.396 205.348 177.122 205.626C174.863 207.009 172.724 208.627 170.379 210.103Z" fill="#271F64"/>
<path d="M157.974 218.657C158.698 218.657 159.285 217.946 159.285 217.068C159.285 216.19 158.698 215.478 157.974 215.478C157.249 215.478 156.662 216.19 156.662 217.068C156.662 217.946 157.249 218.657 157.974 218.657Z" fill="#323F6E"/>
<path d="M173.743 215.471C174.468 215.471 175.055 214.759 175.055 213.881C175.055 213.003 174.468 212.292 173.743 212.292C173.019 212.292 172.432 213.003 172.432 213.881C172.432 214.759 173.019 215.471 173.743 215.471Z" fill="#323F6E"/>
<path d="M170.484 215.185C171.084 217.063 171.039 219.088 170.355 220.938" stroke="#BD3E42" stroke-width="0.712827" stroke-miterlimit="10" stroke-linecap="round"/>
<path d="M169.821 229.307C170.402 228.659 170.807 227.874 170.998 227.025C171.189 226.177 171.159 225.293 170.912 224.459C170.746 224.029 170.466 223.652 170.101 223.37C169.737 223.087 169.302 222.909 168.844 222.855C167.879 222.9 166.968 223.313 166.3 224.01C165.026 224.973 164.133 226.354 163.776 227.909C163.681 228.444 163.748 228.995 163.969 229.492C164.184 229.864 164.487 230.178 164.851 230.406C165.215 230.635 165.629 230.771 166.057 230.804C166.905 230.896 168.167 230.896 169.821 229.307Z" fill="white"/>
<path d="M178.425 212.677C178.14 208.043 177.363 201.129 175.823 196.994C169.03 198.833 156.341 199.696 147.018 199.133C147.018 206.119 144.879 212.484 142.028 218.971C140.12 218.076 138.354 216.904 136.789 215.492C134.301 209.418 132.623 203.043 131.799 196.531C131.65 195.452 131.619 194.359 131.706 193.273C131.779 192.008 132.265 190.801 133.089 189.838C134.187 188.647 135.855 188.113 136.988 186.986C138.685 185.24 138.863 182.431 140.552 180.671C142.349 178.782 145.307 178.653 147.887 179.031C150.468 179.409 153.091 180.172 155.629 179.594C157.653 179.131 159.563 177.819 161.631 178.076C164.596 178.454 166.392 181.833 169.308 182.46C170.733 182.773 172.295 182.381 173.642 182.937C175.431 183.65 176.187 185.789 176.629 187.671C176.8 188.417 176.956 189.172 177.099 189.937C177.569 192.397 177.876 194.877 178.133 197.265C178.674 202.227 179.223 207.138 178.425 212.677Z" fill="#271F64"/>
<path d="M177.129 189.887C177.033 189.712 176.925 189.543 176.808 189.381C175.567 187.606 173.657 186.181 171.504 186.052C169.352 185.924 167.313 186.979 165.381 186.259C163.678 185.617 162.601 183.743 160.819 183.351C158.103 182.752 155.901 185.91 153.128 186.109C150.355 186.309 147.76 183.336 144.98 183.971C142.599 184.534 141.623 187.328 139.848 189.003C138.194 190.557 135.877 191.106 133.803 192.019C133.073 192.339 132.384 192.746 131.75 193.23C131.823 191.965 132.309 190.758 133.133 189.795C134.231 188.604 135.899 188.07 137.032 186.943C138.729 185.197 138.907 182.388 140.596 180.628C142.393 178.739 145.351 178.61 147.931 178.988C150.512 179.366 153.135 180.129 155.672 179.551C157.697 179.088 159.607 177.776 161.674 178.033C164.64 178.411 166.436 181.79 169.352 182.417C170.777 182.73 172.338 182.338 173.686 182.894C175.475 183.607 176.23 185.746 176.672 187.628C176.834 188.383 176.986 189.136 177.129 189.887Z" fill="#45478C"/>
<path d="M131.266 216.083C132.136 213.232 136.063 211.856 140.034 213.061C144.004 214.265 146.506 217.573 145.637 220.453C144.767 223.332 140.832 224.687 136.869 223.475C132.906 222.263 130.389 218.963 131.266 216.083Z" fill="#F69887"/>
<path d="M92.917 364.693C92.4032 364.184 91.7885 363.789 91.1125 363.533C90.4366 363.277 89.7143 363.165 88.9926 363.206C81.9518 367.249 82.0116 373.74 77.5596 379.195C72.9894 384.78 66.5135 388.519 62.1947 394.305C57.6074 400.432 57.2705 406.077 57.2705 406.077C57.2705 406.077 59.1982 408.096 59.6483 407.785C70.2876 394.81 81.5464 381.32 92.917 364.693Z" fill="#2E191F"/>
<path d="M88.2587 364.485C87.5708 364.142 86.8893 363.797 86.2047 363.46C85.5606 363.886 84.9845 364.406 84.4959 365.003C84.8838 365.527 85.2652 366.053 85.6467 366.58" fill="#2E191F"/>
<path d="M85.1742 367.502L83.0688 366.598C82.4193 367.124 81.9244 367.816 81.6365 368.601C82.0531 369.102 82.7118 369.658 83.1284 370.159" fill="#2E191F"/>
<path d="M82.5492 372.374C81.8485 372.069 81.1414 371.768 80.4375 371.474C79.8012 371.998 79.3176 372.684 79.0371 373.46C79.4536 373.961 80.106 374.52 80.5289 375.019" fill="#2E191F"/>
<path d="M72.4508 384.976C71.7789 384.602 71.1166 384.231 70.4384 383.859C69.7438 384.321 69.1847 384.959 68.8183 385.708C69.1742 386.248 69.7722 386.874 70.1472 387.436" fill="#2E191F"/>
<path d="M67.4945 389.757C66.8194 389.392 66.1539 389.015 65.4789 388.65C64.7822 389.109 64.2225 389.748 63.8588 390.499C64.2211 391.035 64.8127 391.664 65.1877 392.226" fill="#2E191F"/>
<path d="M62.775 395.043C62.0999 394.678 61.4345 394.3 60.7594 393.935C60.0641 394.394 59.5037 395.03 59.1361 395.778C59.5016 396.321 60.0933 396.95 60.4651 397.505" fill="#2E191F"/>
<path d="M59.8819 401.307C59.2132 400.939 58.131 400.139 57.4559 399.775C56.6915 400.415 56.079 401.217 55.6626 402.124C56.0186 402.663 57.4573 403.715 57.8132 404.238" fill="#2E191F"/>
<path d="M103.428 376.144C103.428 376.144 97.4298 363.364 92.6472 363.753C86.7008 364.235 82.8303 373.691 81.5653 376.494C80.3002 379.297 71.9282 387.338 68.8436 389.796C65.759 392.254 56.169 403.481 59.655 408.825C62.2639 412.821 65.7889 411.649 68.0178 409.84C73.0568 405.741 92.4148 395.873 98.5871 392.517L103.428 376.144Z" fill="#CF3045"/>
<path d="M91.4761 396.514C91.5479 394.41 91.2224 392.311 90.5167 390.327" stroke="#F7D9D7" stroke-width="2.85131" stroke-miterlimit="10" stroke-linecap="round"/>
<path d="M86.9253 398.778C86.9971 396.673 86.6716 394.575 85.9659 392.591" stroke="#F7D9D7" stroke-width="2.85131" stroke-miterlimit="10" stroke-linecap="round"/>
<path d="M81.9156 401.27C81.9874 399.166 81.6619 397.067 80.9561 395.084" stroke="#F7D9D7" stroke-width="2.85131" stroke-miterlimit="10" stroke-linecap="round"/>
<path d="M93.0763 395.138C96.1612 396.955 99.7172 397.814 103.292 397.604C103.951 397.653 104.606 397.475 105.151 397.101C105.981 396.386 105.774 395.072 105.275 394.149C104.777 393.227 103.978 392.406 103.878 391.341C103.788 390.423 104.214 389.375 103.674 388.625C103.219 387.999 102.301 387.914 101.488 387.897C99.0623 387.821 96.6429 387.759 94.2203 387.69C93.5651 390.022 93.9422 392.653 93.0763 395.138Z" fill="#CF3045"/>
<path d="M321.836 450.573L328.596 450.737L327.889 456.386L321.085 456.221L319.235 470.933L313.573 470.796L315.422 456.084L307.829 455.9L308.58 450.252L316.174 450.436L317.101 442.992L315.301 442.949C314.502 444.51 313.485 446.008 312.25 447.442L308.503 446.21L305.367 470.51L299.573 470.369L302.248 450.582L296.539 448.731C298.089 447.597 299.684 445.835 301.323 443.445C302.962 441.025 304.34 438.555 305.455 436.034C306.571 433.485 307.175 431.508 307.267 430.105L313.389 431.22C312.414 434.007 311.019 437.223 309.203 440.869L308.829 443.626C310.157 441.96 311.317 439.997 312.309 437.738C313.302 435.448 313.877 433.427 314.037 431.674L317.532 432.462C317.295 434.974 317.109 436.595 316.975 437.323L317.809 437.344L318.675 430.601L324.337 430.738L323.471 437.481L328.958 437.614L328.25 443.262L322.763 443.129L321.836 450.573Z" fill="#271F64"/>
<path d="M286.441 447.125L286.18 448.831C286.398 453.141 286.998 456.786 287.98 459.767C288.992 462.72 290.589 465.672 292.772 468.623L286.853 470.017C285.784 468.235 284.947 466.516 284.343 464.862C283.767 463.237 283.355 461.544 283.104 459.781C281.459 463.635 279.168 466.962 276.231 469.76L272.309 468.479L272.147 469.749L266.791 469.619L267.588 463.929C266.525 464.284 265.302 464.62 263.918 464.938L260.937 459.288C262.784 459.187 265.285 458.691 268.439 457.801L269.191 452.153L265.764 452.202C265.236 452.219 264.742 452.06 264.282 451.727C263.851 451.395 263.568 450.978 263.434 450.477C263.354 450.153 263.317 449.844 263.324 449.552C263.339 448.937 263.578 448.167 264.039 447.241C264.9 445.564 266.099 442.577 267.638 438.281L265.619 438.232L266.278 432.758L269.439 432.834L270.399 429.476L276.309 430.234L275.365 432.978L278.481 433.053L277.822 438.527L273.432 438.421C273.116 439.38 272.819 440.178 272.54 440.815L276.051 440.9L275.735 443.089C277.205 441.631 278.367 439.595 279.221 436.98C280.075 434.336 280.516 431.829 280.545 429.458L286.143 430.428C286.124 431.189 285.954 432.195 285.631 433.446L290.414 433.606C291.702 433.637 292.63 434.011 293.198 434.727C293.796 435.415 294.078 436.476 294.043 437.91C293.956 441.509 292.938 444.852 290.989 447.938L286.441 447.125ZM283.608 438.975C283.205 439.902 282.82 440.698 282.452 441.363L287.017 441.473L286.667 445.066L286.498 446.599C287.766 445.02 288.434 442.825 288.502 440.016C288.516 439.431 288.304 439.133 287.865 439.122L283.608 438.975ZM272.397 441.251C271.426 443.863 270.71 445.617 270.25 446.513L271.698 446.548L272.397 441.251ZM272.682 465.765C275.205 463.162 277.119 460.295 278.424 457.164C279.731 454.004 280.725 449.841 281.406 444.675L281.626 442.836C280.709 444.424 279.83 445.662 278.989 446.549L275.519 444.752L275.251 446.722L276.7 446.757L276.087 452.101L274.55 452.107L274.068 455.697C274.69 455.39 275.284 455.039 275.85 454.642L276.498 458.743C275.92 459.636 274.844 460.533 273.27 461.431L272.682 465.765Z" fill="#271F64"/>
<path d="M237.709 450.293C237.231 450.691 236.858 450.975 236.59 451.144L235.086 462.483C234.763 464.935 234.164 466.707 233.289 467.798C232.442 468.919 231.008 469.456 228.989 469.407C227.76 469.377 226.777 468.87 226.04 467.886C225.331 466.903 224.995 465.665 225.031 464.172C225.074 462.417 225.628 460.702 226.693 459.03L230.119 459.025L230.858 453.904C230.15 454.121 229.503 454.238 228.917 454.253L227.702 448.206C229.495 447.927 230.863 447.653 231.806 447.383L232.974 439.067L230.956 438.974L231.659 433.501L233.765 433.596L234.505 428.431L239.597 428.554L238.899 433.808L240.26 433.841L239.556 439.314L238.151 439.28L237.399 444.971C237.488 444.915 237.815 444.703 238.38 444.336L239.291 448.443C240.541 447.595 241.665 446.553 242.661 445.318L238.622 445.22L238.996 440.662L246.458 440.842L247.206 435.371C246.151 435.404 245.36 435.414 244.833 435.401C243.458 435.368 242.245 435.28 241.194 435.137L240.199 430.897L241.866 430.981C244.617 431.048 247.271 430.863 249.829 430.427C252.388 429.962 254.587 429.225 256.427 428.215L258.806 433.324C257.385 433.992 255.337 434.528 252.663 434.932L251.814 440.972L252.428 440.987C252.705 440.437 252.925 439.828 253.087 439.158C253.279 438.489 253.382 437.862 253.396 437.277C253.413 436.604 253.323 436.075 253.127 435.69L257.828 435.628C257.866 436.478 257.785 437.398 257.586 438.389C257.387 439.35 257.101 440.251 256.73 441.091L258.881 441.143L258.375 445.699L254.117 445.596C255.107 447.054 256.811 448.618 259.23 450.287L254.965 452.292C253.324 451.14 251.972 449.555 250.908 447.538L250.381 451.171L244.982 451.04L245.454 447.845C244.423 449.343 242.972 450.596 241.103 451.605L237.709 450.293ZM242.378 440.656C242.046 438.657 241.376 437.294 240.369 436.567L245.266 435.675C245.862 436.451 246.147 437.394 246.12 438.506C246.106 439.062 246.006 439.587 245.818 440.08L242.378 440.656ZM252.951 452.024C254.473 452.06 255.531 452.511 256.125 453.374C256.749 454.209 256.99 455.137 256.848 456.159L255.18 468.811L236.174 468.351L238.335 451.67L252.951 452.024ZM242.964 456.393L242.698 458.276L244.981 458.331L245.246 456.449L242.964 456.393ZM251.46 457.39C251.473 456.863 251.201 456.593 250.645 456.579L249.241 456.545L248.975 458.428L250.599 458.467L250.07 462.187L248.534 462.15L248.269 464.032L250.595 464.089L251.457 457.521L251.46 457.39ZM228.905 463.827C229.109 463.861 229.257 463.777 229.35 463.574C229.472 463.372 229.57 462.979 229.642 462.395L230.115 459.201C229.722 459.689 229.37 460.325 229.059 461.108C228.776 461.891 228.628 462.561 228.615 463.117C228.604 463.556 228.701 463.793 228.905 463.827ZM241.992 463.88L244.23 463.934L244.496 462.052L242.257 461.998L241.992 463.88Z" fill="#271F64"/>
<path d="M212.073 435.53L211.537 437.713L215.137 437.8C216.424 437.832 217.411 438.192 218.097 438.882C218.812 439.573 219.156 440.489 219.129 441.63C219.122 441.894 219.103 442.098 219.07 442.244L216.294 462.556L220.113 462.648L219.411 468.077L190.835 467.385L191.538 461.956L195.049 462.041L198.325 437.393L205.699 437.572L206.235 435.389L195.481 435.129L196.179 429.875L207.548 430.15L208.036 428.142L213.874 428.283L213.386 430.292L223.613 430.539L222.915 435.793L212.073 435.53ZM213.274 443.992C213.287 443.436 213.016 443.151 212.46 443.138L203.154 442.913L202.888 444.839L212.018 445.06L211.486 448.912L202.4 448.692L202.133 450.618L211.22 450.838L210.687 454.69L201.645 454.471L201.379 456.397L210.421 456.616L209.888 460.468L200.846 460.249L200.624 462.176L210.72 462.421L213.272 444.08L213.274 443.992Z" fill="#271F64"/>
<path d="M184.013 433.885C185.213 433.914 186.169 434.361 186.88 435.228C187.621 436.065 187.918 437.097 187.771 438.324L184.69 460.341C184.339 462.763 183.593 464.545 182.453 465.689C181.313 466.833 179.733 467.38 177.714 467.331C176.543 467.303 175.555 467.001 174.749 466.425C173.972 465.879 173.404 465.119 173.047 464.144C172.316 465.326 171.619 466.32 170.955 467.123L165.235 465.755C166.842 464.652 168.261 462.886 169.491 460.456C165.443 461.968 161.973 462.616 159.079 462.4C158.143 462.348 157.463 462.024 157.038 461.428C156.614 460.832 156.412 460.096 156.433 459.218C156.456 458.252 156.698 457.335 157.158 456.468C159.06 452.913 160.689 449.117 162.046 445.079L158.139 444.985L158.89 439.381L172.76 439.717L172.054 445.322L167.489 445.211C167.205 446.053 166.751 447.258 166.128 448.824L168.965 447.706C169.615 448.688 170.142 449.902 170.546 451.346C170.951 452.791 171.236 454.291 171.404 455.847C172.728 451.955 173.862 446.83 174.806 440.469L175.013 439.201L173.038 439.153L173.742 433.636L175.805 433.686L176.756 427.077L182.243 427.21L181.248 433.818L184.013 433.885ZM172.767 434.008L160.432 433.709L161.139 428.104L173.474 428.403L172.767 434.008ZM181.796 440.199C181.802 439.965 181.719 439.773 181.547 439.622C181.375 439.443 181.158 439.349 180.895 439.343L180.412 439.331L180.2 440.819C179.154 447.763 177.771 453.468 176.053 457.936L178.516 457.776C178.126 458.176 177.82 458.711 177.599 459.379C177.408 460.018 177.305 460.616 177.292 461.172C177.285 461.465 177.308 461.699 177.363 461.876C177.417 462.053 177.488 462.143 177.576 462.145C177.898 462.153 178.211 461.897 178.517 461.377C178.851 460.858 179.107 459.972 179.284 458.717L181.792 440.375L181.796 440.199ZM165.384 450.519C164.453 452.663 163.42 454.848 162.282 457.075C163.658 457.109 165.351 456.696 167.363 455.837C166.982 453.427 166.323 451.654 165.384 450.519Z" fill="#271F64"/>
<path d="M128.981 436.066C129.014 435.92 129.034 435.701 129.041 435.409C129.064 434.472 128.897 433.487 128.542 432.454C128.216 431.392 127.697 430.457 126.985 429.649C126.273 428.812 125.393 428.264 124.345 428.004L131.948 425.992C132.656 426.976 133.212 428.204 133.616 429.678C134.049 431.123 134.25 432.49 134.219 433.777C134.202 434.509 134.098 435.165 133.908 435.746L128.981 436.066ZM152.617 433.959L136.464 433.568L137.217 427.877L153.37 428.268L152.617 433.959ZM141.424 460.919C143.414 460.967 145.063 460.568 146.372 459.721C147.71 458.875 148.732 457.787 149.438 456.457L153.003 463.395C150.022 465.577 145.971 466.607 140.85 466.483C137.982 466.413 135.578 465.96 133.636 465.122C131.724 464.285 130.114 463.046 128.807 461.404C128.106 462.558 127.175 463.487 126.017 464.191C124.857 464.924 123.518 465.214 121.999 465.06L120.17 458.955C121.196 458.892 122.005 458.765 122.595 458.574C123.215 458.355 123.752 457.943 124.206 457.34C124.66 456.736 125.018 455.837 125.281 454.643L127.074 444.101L127.078 443.926C127.084 443.691 127.001 443.499 126.829 443.349C126.657 443.169 126.44 443.076 126.177 443.069L123.279 442.999L123.984 437.482L129.207 437.609C130.554 437.641 131.6 437.974 132.346 438.607C133.092 439.211 133.451 440.098 133.423 441.268C133.411 441.766 133.373 442.145 133.308 442.407L130.677 454.905C131.189 456.762 132.442 458.212 134.437 459.256C136.461 460.301 138.79 460.855 141.424 460.919ZM133.976 443.829L134.685 438.137L153.779 438.599L153.026 444.29L144.862 444.093L143.62 446.39L147.875 444.824C149.077 445.937 149.976 447.51 150.571 449.545C151.166 451.58 151.428 453.46 151.357 455.186C149.927 456.176 147.901 457.035 145.277 457.762C142.684 458.46 140.158 458.78 137.7 458.72C136.588 458.693 135.551 458.58 134.59 458.381C133.687 458.184 133.008 457.787 132.554 457.19C132.13 456.565 131.928 455.858 131.947 455.067C131.968 454.19 132.25 453.45 132.791 452.848C135.081 450.18 137.086 447.213 138.804 443.946L133.976 443.829ZM146.652 451.778C145.997 449.83 144.879 448.221 143.299 446.953C141.835 449.378 140.292 451.419 138.671 453.078C141.131 453.079 143.791 452.646 146.652 451.778Z" fill="#271F64"/>
<path d="M320.581 380.971C321.707 380.994 322.568 381.283 323.164 381.837C323.78 382.392 324.037 383.091 323.932 383.934L323.333 389.286L321.09 389.239L322.757 391.907C321.386 392.182 319.379 392.324 316.734 392.334L316.653 393.112L318.83 393.158C319.675 393.175 320.342 393.417 320.83 393.882C321.32 394.326 321.525 394.872 321.446 395.521L320.866 399.93L315.764 399.823L315.684 400.569L319.193 400.643C320.233 400.664 321.007 400.973 321.515 401.569C322.044 402.144 322.258 402.82 322.155 403.598L321.548 407.747C321.346 409.086 320.871 410.073 320.12 410.708C319.391 411.364 318.269 411.677 316.752 411.645C315.626 411.621 314.721 411.353 314.038 410.84C313.377 410.35 313.053 409.747 313.068 409.032C313.076 408.642 313.192 408.276 313.416 407.934L316.966 407.651C316.615 407.838 316.437 408.051 316.432 408.29C316.427 408.55 316.63 408.684 317.042 408.692C317.562 408.703 317.872 408.374 317.973 407.704L318.092 406.666C317.392 406.955 316.825 407.138 316.39 407.216C315.649 407.395 314.779 407.529 313.781 407.616C312.803 407.726 311.805 407.77 310.787 407.749C310.202 407.736 309.769 407.717 309.488 407.689L309.093 406.348L308.623 410.174L304.918 410.096L306.325 400.373L311.979 400.491L312.06 399.745L307.251 399.645L308.139 392.934L312.948 393.034L313.03 392.256L309.489 392.117L308.248 389.262C309.782 389.533 311.404 389.686 313.115 389.722C315.238 389.766 317.388 389.595 319.563 389.207L307.897 388.962L307.7 390.616L307.5 392.4C307.286 394.325 307.044 396.075 306.772 397.651C306.523 399.207 306.072 401.05 305.421 403.182C304.792 405.293 303.92 407.605 302.805 410.117L298.663 409.185C299.765 407.301 300.654 405.206 301.331 402.902C302.03 400.576 302.528 398.484 302.827 396.626C303.149 394.747 303.441 392.684 303.705 390.435L304.885 380.642L320.581 380.971ZM319.651 385.015C319.655 384.82 319.593 384.656 319.466 384.523C319.339 384.391 319.178 384.322 318.983 384.318L308.487 384.098L308.325 385.59L319.569 385.826L319.65 385.08L319.651 385.015ZM310.981 396.959L312.735 396.996L312.89 395.829L311.135 395.792L310.981 396.959ZM317.815 396.615C317.819 396.42 317.757 396.256 317.63 396.123C317.503 395.991 317.342 395.922 317.147 395.918L315.944 395.893L315.79 397.06L317.772 397.102L317.813 396.68L317.815 396.615ZM309.322 404.76C310.229 404.909 310.92 405.01 311.396 405.063L311.592 403.442L309.48 403.397L309.322 404.76ZM315.297 403.519L315.099 405.206L316.044 405.095C315.836 404.679 315.572 404.37 315.251 404.169L317.31 403.659C317.542 403.924 317.731 404.253 317.874 404.646C318.039 405.04 318.15 405.432 318.207 405.824L318.401 404.332L318.402 404.267C318.406 404.072 318.345 403.908 318.217 403.776C318.09 403.643 317.929 403.574 317.734 403.57L315.297 403.519Z" fill="#271F64"/>
<path d="M283.689 393.332C283.351 393.953 283.014 394.521 282.678 395.034L290.932 395.207C291.777 395.225 292.401 395.454 292.803 395.896C293.206 396.338 293.4 396.917 293.385 397.631C293.376 398.043 293.268 398.561 293.06 399.185C292.438 400.928 290.833 403.04 288.245 405.521C289.161 406.321 289.913 407.16 290.501 408.039L287.225 410.766C286.632 410.104 285.781 409.36 284.671 408.535C283.583 407.71 282.332 406.936 280.916 406.213C279.501 405.49 278.071 404.95 276.626 404.595L280.291 400.348C282.222 401.32 283.87 402.276 285.238 403.215C286.566 401.877 287.501 400.716 288.042 399.73C288.064 399.687 288.076 399.623 288.078 399.536C288.081 399.428 288.039 399.34 287.954 399.273C287.89 399.207 287.804 399.173 287.696 399.17L280.288 398.95C279.444 398.911 278.788 398.68 278.32 398.259C277.852 397.837 277.625 397.29 277.639 396.619C277.652 395.991 277.86 395.377 278.262 394.779C278.486 394.437 278.801 393.923 279.205 393.238L274.688 393.143L275.198 388.96L281.08 389.084C281.265 388.546 281.485 387.857 281.741 387.017L276.542 386.908L277.085 382.725L282.739 382.844L283.178 380.48L288.071 381.265C287.998 381.654 287.867 382.214 287.678 382.947L295.737 383.116L295.227 387.299L286.453 387.116C286.176 387.933 285.923 388.622 285.694 389.18L296.191 389.4L295.68 393.583L283.689 393.332Z" fill="#271F64"/>
<path d="M268.567 384.563C269.564 384.583 270.381 384.861 271.02 385.394C271.682 385.907 272.001 386.672 271.98 387.69C271.976 387.907 271.961 388.08 271.937 388.209L269.827 403.575C269.571 405.455 269.183 406.866 268.665 407.809C268.169 408.752 267.516 409.367 266.708 409.654C265.9 409.962 264.803 410.102 263.416 410.072C261.726 410.037 260.479 409.588 259.673 408.726C258.867 407.886 258.477 406.837 258.504 405.581C258.522 404.714 258.712 403.905 259.075 403.154L264.384 402.648C263.988 402.965 263.688 403.327 263.484 403.734C263.302 404.142 263.207 404.541 263.199 404.931C263.192 405.256 263.251 405.528 263.377 405.748C263.523 405.989 263.705 406.112 263.922 406.117C264.247 406.124 264.498 406.031 264.675 405.84C264.853 405.649 265.001 405.305 265.119 404.809C265.239 404.291 265.375 403.481 265.528 402.379L267.291 389.607L267.294 389.477C267.298 389.282 267.236 389.129 267.108 389.018C266.981 388.886 266.82 388.817 266.625 388.813L265.325 388.786C264.225 390.605 263.136 391.883 262.059 392.619L259.709 391.497L257.48 409.428L246.627 409.201L249.995 383.458L252.334 383.507C252.717 382.822 252.915 382.143 252.93 381.472C252.94 380.973 252.852 380.495 252.667 380.036L257.719 380.954C257.571 381.84 257.26 382.722 256.786 383.6L257.144 383.608C258.27 383.632 259.098 383.941 259.627 384.538C260.179 385.113 260.402 385.833 260.297 386.697L259.948 389.421C260.815 388.377 261.569 387.049 262.209 385.437C262.872 383.825 263.215 382.413 263.241 381.2C263.245 380.983 263.229 380.723 263.192 380.419L268.664 381.476C268.408 382.316 268.018 383.337 267.495 384.54L268.567 384.563ZM255.819 387.872C255.823 387.655 255.762 387.491 255.634 387.38C255.507 387.247 255.346 387.179 255.151 387.175L253.851 387.148L252.996 393.794L254.719 393.83L254.321 397.301L252.566 397.264L251.48 405.661L253.657 405.707L255.817 387.937L255.819 387.872ZM260.814 402.378C260.913 401.773 260.973 401.016 260.992 400.106C261.04 397.788 260.635 395.916 259.776 394.489L262.69 393.51C263.218 394.171 263.663 395.177 264.025 396.529C264.409 397.88 264.587 399.206 264.559 400.506C264.551 400.918 264.534 401.221 264.508 401.415L260.814 402.378Z" fill="#271F64"/>
<path d="M243.627 382.024C244.537 382.043 245.214 382.296 245.659 382.782C246.126 383.247 246.353 383.826 246.338 384.519C246.33 384.888 246.257 385.265 246.119 385.653C245.73 386.641 245.412 387.361 245.164 387.811C244.938 388.261 244.515 388.783 243.896 389.377L239.697 388.054C240.404 387.397 240.892 386.898 241.159 386.556C241.203 386.514 241.227 386.428 241.229 386.298C241.232 386.189 241.19 386.091 241.105 386.003C241.042 385.915 240.946 385.869 240.816 385.866L235.649 385.758C234.464 387.467 233.423 388.529 232.526 388.944L229.361 387.967L228.69 393.577C229.263 393.156 229.839 392.572 230.418 391.826C230.997 391.079 231.292 390.424 231.304 389.861C231.306 389.753 231.287 389.633 231.247 389.502L234.49 389.863C234.455 390.491 234.266 391.267 233.921 392.192C233.599 393.095 233.282 393.749 232.97 394.155L228.653 393.837L227.95 399.446L223.92 399.362L225.084 390.348L220.847 389.349C221.986 388.766 223.122 387.836 224.254 386.56C225.386 385.283 226.334 383.97 227.099 382.621C227.865 381.271 228.277 380.218 228.336 379.461L232.81 380.075C231.993 381.791 230.947 383.633 229.67 385.6L229.479 386.962C230.712 386.056 231.733 384.885 232.544 383.45C233.354 382.015 233.804 380.724 233.893 379.577L238.723 380.231C238.405 380.918 238.134 381.476 237.908 381.904L243.627 382.024ZM234.095 394.763C233.5 395.206 233.199 395.601 233.192 395.947C233.189 396.077 233.231 396.187 233.315 396.275C233.422 396.342 233.562 396.378 233.736 396.381C234.234 396.392 234.56 395.814 234.715 394.646L235.888 386.739L239.723 386.819L238.606 395.118C238.404 396.501 237.937 397.586 237.205 398.372C236.473 399.159 235.349 399.536 233.833 399.504C232.576 399.478 231.531 399.196 230.697 398.658C229.885 398.121 229.487 397.463 229.503 396.683C229.518 395.99 229.901 395.282 230.653 394.561L234.095 394.763ZM243.137 389.881C243.045 390.161 242.993 390.561 242.982 391.081C242.959 392.164 243.13 393.327 243.494 394.57C243.88 395.814 244.35 396.647 244.905 397.071L240.824 397.863C240.467 397.335 240.201 396.582 240.027 395.603C239.852 394.624 239.775 393.625 239.797 392.607C239.82 391.481 239.935 390.649 240.142 390.111L243.137 389.881ZM242.201 398.867C243.005 399.816 243.606 401.118 244.005 402.773C244.426 404.408 244.619 406.048 244.585 407.695C244.576 408.128 244.558 408.442 244.532 408.636L239.776 409.089C240.057 408.098 240.213 406.888 240.243 405.458C240.258 404.743 240.247 404.212 240.211 403.864C240.172 405.727 239.633 407.147 238.594 408.122C237.576 409.097 235.714 409.557 233.006 409.5C228.695 409.41 226.575 407.675 226.645 404.295C226.668 403.212 226.934 401.896 227.443 400.346L231.148 400.423C230.954 401.395 230.851 402.173 230.839 402.758C230.821 403.624 231.002 404.257 231.384 404.655C231.788 405.053 232.477 405.263 233.452 405.283C234.535 405.306 235.331 405.073 235.84 404.586C236.369 404.12 236.643 403.486 236.66 402.685C236.673 402.035 236.535 401.371 236.246 400.693L240.074 402.659C239.843 401.245 239.42 400.25 238.803 399.674L242.201 398.867ZM232.519 404.809C232.535 404.029 232.37 403.104 232.024 402.035C231.7 400.966 231.248 400.285 230.669 399.991L234.968 399.658C235.199 399.967 235.393 400.556 235.548 401.426C235.703 402.296 235.775 403.035 235.762 403.641C235.757 403.879 235.731 404.063 235.685 404.192L232.519 404.809ZM226.244 400.191C226.365 400.583 226.419 401.115 226.405 401.787C226.378 403.087 226.133 404.447 225.67 405.868C225.228 407.311 224.687 408.296 224.047 408.825L220.31 407.186C221.019 406.442 221.647 405.469 222.192 404.267C222.759 403.065 223.054 401.923 223.077 400.84C223.084 400.471 223.039 400.069 222.939 399.634L226.244 400.191Z" fill="#271F64"/>
</g>
<defs>
<clipPath id="clip0_10452_27324">
<rect width="375" height="480" fill="white"/>
</clipPath>
</defs>
</svg>
