<svg width="375" height="480" viewBox="0 0 375 480" fill="none" xmlns="http://www.w3.org/2000/svg">
<g clip-path="url(#clip0_2593_3828)">
<path d="M184.617 14.3602C150.192 17.23 123.646 42.6007 107.949 71.8239C84.5207 115.559 93.9229 166.513 64.9148 208.817C39.581 245.775 -3.91954 285.677 21.7452 334.195C32.5093 354.543 52.6789 369.779 73.3768 379.183C102.603 392.49 134.946 398.13 163.75 412.342C192.679 426.626 217.515 449.026 248.965 458.164C290.135 470.12 326.712 448.418 343.486 410.417C367.264 356.535 345.419 301.313 314.894 255.612C298.238 230.69 289.134 211.038 288.625 180.602C287.543 116.65 275.307 8.07225 185.765 14.2662L184.617 14.3602Z" fill="#D6F1DD"/>
<path d="M195.925 117.25L191.609 114.267C191.609 114.267 189.7 114.914 189.111 118.324C188.523 121.734 186.976 137.38 189.713 142.88L194.605 140.615L195.925 117.25Z" fill="#C47123"/>
<path d="M197.019 160.648L197.84 165.3L238.502 164.433L238.256 160.305C226.214 142.239 212.212 145.054 197.019 160.648Z" fill="#3A424F"/>
<path d="M209.96 122.588C201.768 125.047 196.695 115.102 196.695 115.102C198.3 114.403 198.028 111.543 197.465 109.149C197.177 107.948 196.816 106.766 196.385 105.609L210.31 105.24C210.31 105.24 210.711 107.731 211.811 108.954C212.03 109.216 212.313 109.416 212.633 109.537C213.099 109.705 214.114 109.161 214.936 108.637C215.583 108.204 216.153 107.783 216.153 107.783C217.039 111.679 218.12 120.123 209.96 122.588Z" fill="#BF6565"/>
<path d="M214.911 108.637C211.604 114.797 201.322 112.927 197.44 109.149C197.152 107.948 196.791 106.766 196.359 105.609L210.284 105.24C210.284 105.24 210.685 107.731 211.785 108.954C212.005 109.216 212.288 109.416 212.607 109.537C213.073 109.705 214.089 109.161 214.911 108.637Z" fill="#91474C"/>
<path d="M216.376 101.073C218.934 99.879 220.355 97.5142 219.551 95.7916C218.747 94.069 216.021 93.6408 213.463 94.8353C210.905 96.0297 209.483 98.3945 210.288 100.117C211.092 101.84 213.818 102.268 216.376 101.073Z" fill="#91474C"/>
<path d="M188.238 100.084C183.87 91.9502 185.598 82.9041 192.58 79.1576C199.562 75.4111 207.844 76.0387 213.111 87.1036C217.078 95.4314 216.91 105.83 209.546 108.632C202.182 111.433 192.599 108.205 188.238 100.084Z" fill="#BF6565"/>
<path d="M215.577 95.7091C214.93 90.5973 212.303 85.6666 209.294 81.6742C207.191 81.9589 205.25 81.163 203.283 81.1759C201.973 81.2458 200.68 81.4962 199.439 81.9201C197.796 82.311 196.225 82.955 194.78 83.8289C193.706 84.5536 192.625 85.5825 191.357 85.3754C191.592 87.6882 191.592 90.0187 191.357 92.3314C190.747 95.5134 190.371 98.7358 190.231 101.973C188.879 101.371 189.118 102.917 187.643 102.866C186.89 102.85 186.171 102.555 185.624 102.037C185.215 101.465 184.963 100.796 184.893 100.096C184.831 99.3878 184.621 98.7002 184.278 98.0774C183.735 97.2556 182.699 96.7833 182.369 95.8644C181.929 94.6415 182.939 93.3732 182.945 92.0791C182.945 91.0955 182.389 90.1379 181.903 89.2708C181.418 88.4037 180.933 87.3878 181.295 86.4107C181.703 85.3107 182.99 84.806 183.605 83.8225C184.453 82.4442 183.832 80.4642 184.854 79.2089C185.967 77.8177 188.225 78.2447 189.772 77.3582C191.027 76.64 191.713 75.087 193.085 74.6017C194.586 74.0647 196.204 75.0353 197.795 74.9059C199.387 74.7764 200.96 73.4758 202.558 73.8641C203.697 74.1423 204.499 75.2229 205.638 75.5141C206.777 75.8053 208.291 75.2876 209.119 76.1612C209.559 76.6335 209.617 77.3518 209.921 77.9212C210.407 78.8336 211.436 79.2736 212.277 79.8624C212.623 80.0794 212.917 80.3688 213.141 80.7106C213.364 81.0524 213.511 81.4385 213.571 81.8424C213.6 82.1228 213.564 82.406 213.467 82.6707C213.354 83.0189 213.332 83.3903 213.404 83.7494C213.475 84.1085 213.637 84.4433 213.875 84.7219C214.363 85.2704 214.733 85.9136 214.962 86.6113C215.098 87.2972 214.846 88.0219 214.962 88.7208C215.151 89.336 215.411 89.9268 215.739 90.4808C216.431 92.0726 216.017 93.975 215.577 95.7091Z" fill="#372247"/>
<path d="M213.552 81.7965C212.976 80.9004 212.141 80.2007 211.158 79.7906C209.812 79.2341 208.214 79.2471 207.049 78.3735C206.247 77.7718 205.716 76.8012 204.791 76.4323C203.251 75.7853 201.62 77.1247 199.957 77.1635C198.417 77.2088 196.922 76.1411 195.428 76.5164C193.778 76.9176 192.949 78.8653 191.383 79.5318C189.688 80.25 187.32 79.383 186.149 80.8259C185.579 81.5183 185.553 82.4954 185.301 83.3624C184.829 84.9801 183.541 86.2031 182.629 87.6201C182.296 88.1305 182.045 88.6893 181.884 89.2766C181.367 88.3254 180.914 87.3937 181.276 86.4166C181.684 85.3166 182.971 84.8119 183.586 83.8283C184.434 82.4501 183.813 80.47 184.835 79.2147C185.948 77.8235 188.206 78.2506 189.753 77.3641C191.008 76.6459 191.694 75.0929 193.066 74.6076C194.567 74.0705 196.185 75.0411 197.776 74.9117C199.368 74.7823 200.941 73.4817 202.539 73.8699C203.678 74.1482 204.48 75.2288 205.619 75.52C206.758 75.8111 208.272 75.2935 209.1 76.167C209.54 76.6394 209.598 77.3576 209.902 77.9271C210.388 78.8394 211.417 79.2794 212.258 79.8683C212.598 80.0797 212.889 80.361 213.112 80.6934C213.335 81.0258 213.485 81.4018 213.552 81.7965Z" fill="#5F436E"/>
<path d="M184.725 101.862C185.145 100.005 187.721 99.015 190.471 99.6426C193.221 100.27 195.11 102.283 194.683 104.14C194.256 105.997 191.687 106.987 188.937 106.353C186.187 105.719 184.304 103.713 184.725 101.862Z" fill="#BF6565"/>
<path d="M200.824 86.3066C199.533 85.4599 198.032 84.9894 196.489 84.9477C195.72 84.9362 194.964 85.1375 194.302 85.5292C193.641 85.9208 193.101 86.4877 192.742 87.1672C195.398 86.5939 198.107 86.3054 200.824 86.3066Z" fill="#372247"/>
<path d="M206.841 85.6334C206.786 85.0391 206.882 84.4404 207.12 83.8928C207.239 83.6223 207.418 83.3817 207.641 83.1882C207.865 82.9947 208.129 82.853 208.414 82.7734C209.248 82.5857 210.07 83.0775 210.782 83.5434C209.322 83.92 207.972 84.6361 206.841 85.6334Z" fill="#372247"/>
<path d="M207.185 88.0986C207.868 89.0909 208.253 90.2589 208.291 91.4634" stroke="#6E2B39" stroke-width="0.647069" stroke-miterlimit="10" stroke-linecap="round"/>
<path d="M210.982 93.5541C210.982 93.5541 204.304 92.8229 203.004 94.3823C201.703 95.9417 201.71 103.525 202.195 104.425C202.68 105.324 211.519 104.082 212.263 102.775C212.619 102.147 210.982 93.5541 210.982 93.5541Z" fill="white"/>
<path d="M198.676 87.9108C198.891 87.879 199.111 87.9141 199.306 88.0112C199.5 88.1084 199.66 88.2629 199.764 88.4539C199.868 88.645 199.91 88.8633 199.886 89.0793C199.862 89.2954 199.772 89.4987 199.628 89.6619C199.484 89.8251 199.294 89.9402 199.083 89.9916C198.871 90.0431 198.649 90.0285 198.447 89.9497C198.244 89.8709 198.071 89.7317 197.95 89.5511C197.829 89.3705 197.766 89.157 197.77 88.9396C197.754 88.6832 197.841 88.4308 198.011 88.238C198.181 88.0451 198.42 87.9274 198.676 87.9108Z" fill="#313A47"/>
<path d="M209.805 86.902C210.021 86.8688 210.241 86.9028 210.436 86.9993C210.632 87.0957 210.793 87.25 210.897 87.4411C211.002 87.6323 211.045 87.851 211.021 88.0676C210.997 88.2842 210.907 88.4882 210.763 88.6518C210.619 88.8154 210.429 88.9307 210.217 88.9821C210.005 89.0335 209.783 89.0184 209.58 88.939C209.377 88.8595 209.203 88.7195 209.083 88.538C208.962 88.3565 208.9 88.1422 208.906 87.9244C208.892 87.67 208.978 87.4203 209.146 87.229C209.314 87.0377 209.551 86.9203 209.805 86.902Z" fill="#313A47"/>
<path d="M287.129 130.722C287.129 130.722 266.766 133.129 256.581 133.213C255.146 133.251 253.71 133.184 252.285 133.012C242.773 131.498 232.264 127.719 232.264 127.719C232.264 127.719 231.876 131.078 230.698 132.598L219.963 108.896L219.316 107.453C219.316 107.453 226.434 103.765 230.472 105.687C233.191 107.046 235.653 108.87 237.745 111.077C238.606 111.873 252.11 118.447 253.695 118.842C255.281 119.236 258.483 118.279 263.88 119.521C273.8 121.805 286.67 122.698 286.67 122.698L287.129 130.722Z" fill="#BF6565"/>
<path d="M256.582 133.213C255.146 133.252 253.71 133.185 252.285 133.013C242.773 131.499 232.265 127.72 232.265 127.72C232.265 127.72 231.876 131.078 230.699 132.599L219.964 108.896C225.809 112.645 230.285 118.184 232.724 124.685C240.011 129.128 248.13 132.03 256.582 133.213Z" fill="#91474C"/>
<path d="M284.043 123.565C287.188 121.107 291.892 116.448 293.749 116.169C294.907 115.995 299.049 116.603 301.721 117.606C303.526 118.285 305.603 119.722 306.076 121.204C306.231 121.676 305.746 122.181 305.267 122.31C304.771 122.416 304.253 122.323 303.824 122.051C303.405 121.778 303.003 121.48 302.62 121.158C301.377 120.281 299.839 119.926 298.337 120.168C300.517 120.815 302.349 122.258 303.96 123.85C304.336 124.188 304.653 124.586 304.898 125.028C305.03 125.245 305.106 125.492 305.12 125.746C305.134 126 305.084 126.254 304.976 126.484C304.852 126.72 304.657 126.912 304.42 127.034C304.183 127.155 303.913 127.2 303.649 127.163C303.649 127.163 303.52 128.121 303.17 128.386C302.374 129.033 301.786 128.619 301.456 128.781C301.119 129.428 300.699 129.473 299.948 129.389C299.215 129.243 298.506 129 297.838 128.664C297.14 128.38 296.376 128.173 295.761 128.664C294.322 129.79 292.634 130.555 290.838 130.892C289.042 131.23 287.191 131.132 285.441 130.606C284.942 128.276 284.425 125.921 284.043 123.565Z" fill="#BF6565"/>
<path d="M303.327 126.775C302.098 125.235 300.408 124.129 298.506 123.617" stroke="#6E2B39" stroke-width="0.647069" stroke-miterlimit="10" stroke-linecap="round"/>
<path d="M300.835 128.243C299.481 126.931 297.842 125.948 296.047 125.37" stroke="#6E2B39" stroke-width="0.647069" stroke-miterlimit="10" stroke-linecap="round"/>
<path d="M289.2 120.667L297.166 118.829C297.968 118.641 298.99 118.531 299.463 119.198C299.62 119.479 299.68 119.804 299.633 120.122C299.587 120.441 299.436 120.734 299.204 120.958C298.24 121.954 296.57 122.504 295.93 122.809C295.701 123.978 295.1 125.042 294.215 125.842C293.331 126.641 292.212 127.132 291.025 127.241" fill="#BF6565"/>
<path d="M289.2 120.667L297.166 118.829C297.968 118.641 298.99 118.531 299.463 119.198C299.62 119.479 299.68 119.804 299.633 120.122C299.587 120.441 299.436 120.734 299.204 120.958C298.24 121.954 296.57 122.504 295.93 122.809C295.701 123.978 295.1 125.042 294.215 125.842C293.331 126.641 292.212 127.132 291.025 127.241" stroke="#6E2B39" stroke-width="0.647069" stroke-miterlimit="10" stroke-linecap="round"/>
<path d="M192.405 141.075C190.982 139.891 189.817 138.784 188.523 137.593C187.229 136.403 185.85 135.186 183.922 133.711C181.47 133.452 178.81 133.109 176.105 132.76C171.615 132.171 166.988 131.582 162.886 131.382C154.797 130.534 141.772 126.438 130.83 121.404C129.827 120.944 128.837 120.472 127.873 119.993C128.455 117.612 124.489 110.637 124.741 110.287C125.699 110.669 132.564 113.07 133.625 113.309C139.675 114.739 147.214 114.331 152.921 115.574C157.146 116.493 159.87 117.89 162.847 118.537C164.633 118.932 172.21 118.99 176.526 118.725C177.521 118.719 178.511 118.582 179.47 118.317C181.942 117.023 186.083 116.111 189.771 115.729C191.254 115.562 192.745 115.487 194.236 115.502C198.41 123.099 198.578 134.539 192.405 141.075Z" fill="#BF6565"/>
<path d="M192.405 141.075C190.981 139.891 189.817 138.784 188.522 137.594C189.514 136.945 190.325 136.054 190.878 135.005C191.958 132.922 192.14 130.476 192.288 128.14C192.548 125.704 192.502 123.246 192.153 120.822C191.832 118.939 191.009 117.177 189.771 115.723C191.254 115.556 192.745 115.48 194.236 115.496C198.41 123.099 198.578 134.539 192.405 141.075Z" fill="#91474C"/>
<path d="M176.112 132.759C171.622 132.17 166.995 131.581 162.893 131.381C154.804 130.533 141.779 126.437 130.837 121.403C132.435 120.2 133.703 116.608 133.632 113.302C139.682 114.732 147.221 114.324 152.928 115.566C157.153 116.485 159.877 117.883 162.854 118.53C164.64 118.925 172.217 118.983 176.533 118.718C178.953 123.383 178.409 129.478 176.112 132.759Z" fill="white"/>
<path d="M243.835 210.143L246.423 214.919C246.423 214.919 230.699 218.4 218.599 210.719L215.732 204.384L242.579 203.355L243.835 210.143Z" fill="#C47123"/>
<path d="M216.832 291.978C216.805 292.5 216.691 293.014 216.496 293.498C215.985 294.793 214.826 295.925 212.536 295.873C209.3 295.802 201.536 285.766 201.497 282.039C201.419 276.921 200.028 278.228 198.954 277.037C196.883 274.753 196.611 269.13 197.097 267.874C197.407 267.079 198.637 266.47 200.164 266.011C202.672 265.345 205.237 264.912 207.825 264.717L216.179 272.158C215.189 278.493 216.949 290.282 216.832 291.978Z" fill="#8B94B0"/>
<path d="M216.496 293.498C215.985 294.792 214.826 295.925 212.536 295.873C209.3 295.802 201.536 285.766 201.497 282.039C201.419 276.92 200.028 278.227 198.954 277.037C196.883 274.753 196.611 269.13 197.097 267.874C197.407 267.078 198.637 266.47 200.164 266.011C199.803 267.49 199.74 269.026 199.977 270.53C200.215 272.034 200.749 273.476 201.549 274.772C202.319 276.001 203.334 277.102 203.839 278.46C204.179 279.647 204.396 280.866 204.486 282.097C204.953 285.057 206.384 287.78 208.559 289.842C210.733 291.904 213.528 293.189 216.509 293.498H216.496Z" fill="#D1DBE8"/>
<path d="M244.359 230.436C243.55 232.862 239.389 239.43 234.413 246.813C225.684 259.755 214.477 275.174 214.477 275.174C210.414 274.825 207.133 268.056 207.049 265.623C207.049 265.623 212.594 254.119 213.869 249.511C215.525 243.507 216.748 239.851 218.813 236.751C220.598 234.079 223.006 231.827 226.849 228.851L222.468 216.174L219.104 206.468L242.444 206.358C242.444 206.358 243.518 210.888 244.281 216.233C245.012 221.312 245.446 227.136 244.359 230.436Z" fill="#BF6565"/>
<path d="M244.255 216.207C239.932 214.453 231.41 212.169 222.442 216.174L219.077 206.468L242.417 206.358C242.417 206.358 243.517 210.868 244.255 216.207Z" fill="#91474C"/>
<path d="M234.413 246.812C225.684 259.753 214.477 275.173 214.477 275.173C210.414 274.824 207.133 268.055 207.049 265.622C207.049 265.622 212.594 254.117 213.869 249.51C215.525 243.505 216.748 239.849 218.813 236.75C220.484 239.903 223 242.529 226.079 244.334C228.628 245.794 231.481 246.642 234.413 246.812Z" fill="white"/>
<path d="M210.006 275.608C210.187 273.304 209.54 270.877 210.62 268.891C211.164 267.888 212.393 267.176 213.461 267.597C214.38 267.933 219.53 269.202 220.158 269.428C220.496 269.594 220.762 269.877 220.907 270.225C221.051 270.573 221.063 270.961 220.941 271.317C220.708 272.139 214.69 276.779 214.69 276.779C214.69 276.779 211.694 275.62 210.006 275.608Z" fill="#8B94B0"/>
<path d="M209.701 276.843C211.731 276.226 213.903 276.27 215.907 276.966" stroke="#D1DBE8" stroke-width="1.94121" stroke-miterlimit="10" stroke-linecap="round"/>
<path d="M209.728 280.9C211.761 280.541 213.841 280.541 215.875 280.9" stroke="#D1DBE8" stroke-width="1.94121" stroke-miterlimit="10" stroke-linecap="round"/>
<path d="M210.607 285.409C212.437 284.758 214.4 284.566 216.321 284.853" stroke="#D1DBE8" stroke-width="1.94121" stroke-miterlimit="10" stroke-linecap="round"/>
<path d="M246.416 214.918C246.416 214.918 227.858 206.882 218.45 210.693L210.607 202.598C210.607 202.598 197.75 200.075 196.424 191.061C196.096 188.889 195.927 186.696 195.919 184.5C195.919 179.672 196.767 176.793 196.812 174.794C196.87 172.05 193.997 167.294 197.278 163.638C197.278 163.638 207.262 158.274 221.698 159.419C233.643 160.37 238.865 162.816 238.865 162.816C242.324 176.525 244.683 190.488 245.918 204.572C246.196 208.021 246.364 211.489 246.416 214.918Z" fill="#FFC061"/>
<path d="M246.416 214.918C246.416 214.918 227.858 206.882 218.45 210.693L210.607 202.598C210.607 202.598 197.75 200.074 196.424 191.061C196.096 188.889 195.927 186.696 195.919 184.499C197.33 186.065 200.675 192.323 207.566 188.291C211.856 185.774 213.59 178.404 217.673 175.57C220.631 173.525 224.384 173.111 229.152 172.335C224.538 167.647 218.856 164.148 212.594 162.137C216.928 162.292 221.108 163.781 224.565 166.401C226.674 168.012 228.551 170.057 231.035 170.93C233.52 171.804 236.982 170.93 237.597 168.342C237.461 169.659 237.057 170.935 236.408 172.089C235.759 173.243 234.879 174.252 233.824 175.052C235.664 176.428 237.778 177.392 240.023 177.88C237.751 179.214 235.143 179.865 232.511 179.756C232.68 183.481 233.788 187.103 235.733 190.284C237.678 193.466 240.396 196.103 243.634 197.952C241.342 199.114 238.711 199.423 236.212 198.826C238.881 201.569 242.23 203.554 245.918 204.578C246.196 208.02 246.364 211.489 246.416 214.918Z" fill="#F0A04A"/>
<path d="M211.643 226.488C211.643 226.488 210.077 239.695 208.337 246.133C208.337 246.191 208.304 246.262 208.285 246.327C208.062 247.221 207.746 248.088 207.34 248.915C203.827 255.25 189.061 253.387 190.995 240.406C191.004 240.302 191.019 240.198 191.041 240.096L191.118 239.656C192.594 232.117 200.015 222.605 200.015 222.605L211.643 226.488Z" fill="#8B94B0"/>
<path d="M208.285 246.354C208.062 247.248 207.746 248.115 207.34 248.942C203.827 255.277 189.061 253.413 190.995 240.433C191.004 240.329 191.019 240.225 191.041 240.123L191.118 239.683C191.395 241.45 192.109 243.121 193.195 244.542C194.379 246.029 195.931 247.182 197.697 247.887C199.462 248.591 201.381 248.824 203.264 248.56C205.102 248.276 206.833 247.516 208.285 246.354Z" fill="#D1DBE8"/>
<path d="M225.937 175.59L228.15 170.621C228.15 170.621 221.757 166.311 216.432 167.456C210.776 168.666 201.549 177.408 205.742 196.956L225.937 175.59Z" fill="#B55C62"/>
<path d="M230.744 175.052C230.22 179.55 229.159 181.523 229.159 181.523C229.159 181.523 228.007 188.473 222.527 199.421C218.683 207.115 214.865 217.778 212.931 223.447C212.102 225.854 211.636 227.362 211.636 227.362C209.119 233.353 199.219 231.587 199.122 224.722C199.122 224.722 201.154 215.947 202.357 209.839C202.733 207.898 203.004 206.189 203.121 205.167C203.535 201.019 204.9 183.167 212.516 176.567C216.748 172.885 218.165 167.954 224.164 168.983C224.151 168.983 231.268 170.562 230.744 175.052Z" fill="#BF6565"/>
<path d="M212.931 223.421C212.102 225.828 211.636 227.336 211.636 227.336C209.119 233.328 199.219 231.561 199.122 224.696C199.122 224.696 201.154 215.922 202.357 209.813C202.912 212.51 203.937 215.088 205.386 217.429C207.167 220.208 209.821 222.316 212.931 223.421Z" fill="#B55C62"/>
<path d="M220.592 171.487C220.22 173.895 220.632 176.359 221.769 178.514C221.05 178.346 220.395 177.975 219.879 177.447C219.363 176.919 219.009 176.254 218.857 175.531C218.744 174.763 218.846 173.978 219.152 173.264C219.459 172.55 219.957 171.935 220.592 171.487Z" fill="#91474C"/>
<path d="M199.737 230.131C199.949 227.672 200.164 225.217 200.384 222.767C200.402 222.252 200.501 221.744 200.676 221.259C200.763 221.023 200.908 220.811 201.098 220.645C201.288 220.479 201.516 220.363 201.763 220.308C202.468 220.205 203.057 220.832 203.62 221.298C204.673 222.183 206.018 222.644 207.392 222.592C207.981 222.592 208.57 222.45 209.159 222.476C209.456 222.471 209.751 222.532 210.023 222.654C210.295 222.776 210.536 222.956 210.731 223.181C211.287 223.912 211.067 224.993 210.783 225.892C210.366 227.154 209.875 228.39 209.314 229.594C208.88 230.545 208.33 231.535 207.373 231.936C206.648 232.166 205.873 232.193 205.134 232.014C203.277 231.723 201.251 231.373 199.737 230.131Z" fill="#8B94B0"/>
<path d="M199.854 230.829C201.03 230.627 202.235 230.668 203.394 230.95C204.554 231.231 205.644 231.747 206.596 232.466" stroke="#D1DBE8" stroke-width="1.94121" stroke-miterlimit="10" stroke-linecap="round"/>
<path d="M198.812 234.356C199.987 234.151 201.191 234.19 202.35 234.47C203.509 234.751 204.598 235.267 205.548 235.987" stroke="#D1DBE8" stroke-width="1.94121" stroke-miterlimit="10" stroke-linecap="round"/>
<path d="M197.874 238.342C199.05 238.14 200.255 238.181 201.415 238.462C202.574 238.744 203.664 239.26 204.616 239.979" stroke="#D1DBE8" stroke-width="1.94121" stroke-miterlimit="10" stroke-linecap="round"/>
<path d="M238.541 161.18C238.541 161.18 230.381 158.313 222.545 157.686C213.648 156.974 200.027 159.73 196.818 162.804C196.337 162.526 195.943 162.12 195.68 161.631C195.417 161.142 195.296 160.589 195.329 160.035C195.357 159.379 195.506 158.733 195.769 158.132C196.785 155.686 195.685 154.211 194.411 152.308C193.813 151.47 193.295 150.578 192.864 149.643C191.777 147.197 190.671 144.867 190.101 143.69L189.713 142.887C189.713 142.887 197.529 131.835 191.356 114.261L192.288 114.151L195.485 113.763L196.662 113.62C196.662 113.62 201.703 121.081 209.96 119.573C217.517 118.195 216.294 113.167 215.602 107.389L216.514 107.137L218.643 106.574L219.97 106.218C219.97 106.218 224.674 112.947 226.868 118.616C228.116 121.851 230.556 126.025 232.432 129.519C233.862 132.191 234.969 134.449 234.943 135.517C234.891 137.982 235.713 147.21 235.713 147.21C235.713 147.21 239.078 158.016 238.541 161.18Z" fill="#FFC061"/>
<path d="M199.381 118.084C207.888 127.307 219.083 133.616 231.378 136.118C218.845 136.506 206.363 129.485 199.381 118.084Z" fill="#F0A04A"/>
<path d="M206.861 155.699C206.518 156.469 205.502 156.573 204.661 156.618C201.271 156.76 198.01 157.954 195.33 160.035C195.357 159.379 195.507 158.734 195.77 158.132C196.786 155.686 195.686 154.211 194.411 152.309C196.975 153.946 200.062 154.556 203.056 154.017C203.893 153.759 204.776 153.684 205.644 153.797C206.466 154.017 207.204 154.903 206.861 155.699Z" fill="#F0A04A"/>
<path d="M190.101 143.664L189.713 142.861C189.713 142.861 197.529 131.809 191.356 114.235L192.288 114.125C194.392 118.846 195.293 124.015 194.912 129.17C194.53 134.324 192.877 139.304 190.101 143.664Z" fill="#3A424F"/>
<path d="M216.334 117.133C214.852 119.274 212.309 120.239 210.303 120.685C207.201 121.356 203.962 120.928 201.141 119.475C198.707 118.202 196.731 116.203 195.485 113.755L196.663 113.613C196.663 113.613 201.704 121.073 209.96 119.566C217.518 118.187 216.295 113.16 215.603 107.381L216.515 107.129C216.897 108.785 218.295 114.285 216.334 117.133Z" fill="#3A424F"/>
<path d="M232.433 129.519C229.844 126.516 227.864 122.912 226.072 119.334C223.859 114.927 221.756 110.359 218.644 106.574L219.97 106.218C219.97 106.218 224.674 112.947 226.868 118.616C228.117 121.825 230.556 126.025 232.433 129.519Z" fill="#3A424F"/>
<path d="M212.109 137.238C211.954 137.778 211.675 138.275 211.294 138.689C210.913 139.102 210.441 139.421 209.915 139.619C210.001 140.319 210.122 141.015 210.277 141.703C210.986 141.615 211.702 141.602 212.413 141.664C212.567 144.608 213.013 147.53 213.746 150.386C213.157 150.509 212.562 150.619 211.953 150.755C212.027 151.566 212.181 152.368 212.413 153.149C214.226 152.708 216.08 152.454 217.945 152.392C217.816 151.609 217.686 150.826 217.563 149.907C217.007 149.907 216.444 149.907 215.855 149.862C214.791 145.738 214.331 141.481 214.49 137.225C213.697 137.174 212.901 137.178 212.109 137.238Z" fill="#3A424F"/>
<path d="M219.711 149.539L218.728 140.175C218.674 139.76 218.708 139.337 218.827 138.935C218.946 138.533 219.147 138.16 219.418 137.84C219.689 137.52 220.023 137.259 220.4 137.075C220.777 136.892 221.188 136.788 221.607 136.772L224.571 136.727C225.318 136.729 226.037 137.011 226.585 137.518C227.134 138.025 227.473 138.719 227.534 139.464L228.511 148.691C228.563 149.096 228.533 149.507 228.422 149.9C228.311 150.293 228.122 150.66 227.865 150.978C227.609 151.296 227.291 151.559 226.931 151.751C226.57 151.942 226.175 152.059 225.768 152.094L222.811 152.276C222.041 152.307 221.289 152.039 220.711 151.529C220.134 151.019 219.776 150.306 219.711 149.539Z" fill="#3A424F"/>
<path d="M221.652 147.946L221.141 141.773C221.038 140.596 221.717 139.554 222.591 139.541H224.092C224.862 139.541 225.516 140.311 225.6 141.353L226.117 147.422C226.221 148.574 225.58 149.59 224.733 149.661L223.238 149.778C222.442 149.816 221.743 149.021 221.652 147.946Z" fill="#FFC061"/>
<path d="M125.977 111.763C126.275 111.459 126.624 111.168 126.896 110.844C126.987 110.653 127.093 110.469 127.213 110.294C127.676 109.644 128.371 109.195 129.154 109.039C129.575 108.515 130.002 107.991 130.448 107.46L128.255 101.158C128.255 101.158 118.161 96.0783 115.592 99.5919C113.023 103.105 116.472 110.948 116.472 110.948L122.476 115.84C123.52 114.38 124.692 113.016 125.977 111.763Z" fill="#91474C"/>
<path d="M147.842 98.8798C147.79 101.286 147.2 103.649 146.114 105.797C145.776 106.472 145.389 107.121 144.956 107.738C144.768 108.01 144.574 108.262 144.373 108.521C144.173 108.78 144.115 108.851 143.979 109.006L143.933 109.052L143.869 109.123L143.616 109.408L143.273 109.77L143.228 109.815L142.905 110.132C142.266 110.757 141.573 111.325 140.834 111.828C140.636 111.966 140.435 112.095 140.232 112.216H140.2C140.083 112.294 139.954 112.371 139.838 112.436C139.453 112.674 139.056 112.89 138.647 113.083C138.485 113.167 138.31 113.245 138.136 113.316C137.961 113.387 137.845 113.445 137.702 113.497C137.456 113.594 137.21 113.691 136.958 113.769C136.706 113.847 136.279 114.002 135.929 114.092C135.58 114.183 135.282 114.254 134.952 114.325L134.305 114.435C134.13 114.435 133.949 114.494 133.768 114.513C133.251 114.58 132.73 114.621 132.209 114.636C132.017 114.646 131.825 114.646 131.633 114.636H131.367C130.776 114.623 130.187 114.578 129.601 114.5C129.394 114.5 129.18 114.448 128.954 114.409C128.522 114.336 128.108 114.246 127.711 114.138C127.524 114.086 127.336 114.047 127.155 113.982H127.136C126.78 113.879 126.43 113.762 126.087 113.627C125.964 113.588 125.841 113.536 125.725 113.491L125.453 113.374C125.304 113.316 125.156 113.245 125.007 113.174C124.858 113.102 124.709 113.038 124.567 112.96L124.204 112.779C124.148 112.754 124.093 112.724 124.043 112.688L123.7 112.501C123.564 112.417 123.421 112.339 123.285 112.248C123.116 112.152 122.952 112.046 122.794 111.931C122.464 111.718 122.147 111.485 121.836 111.239C121.635 111.077 121.435 110.915 121.241 110.747C121.112 110.644 120.989 110.534 120.872 110.417C120.723 110.288 120.587 110.158 120.451 110.022C120.315 109.886 120.108 109.673 119.947 109.498C119.785 109.324 119.649 109.175 119.507 109.006C119.364 108.838 119.19 108.625 119.041 108.431C118.843 108.172 118.651 107.909 118.465 107.641C118.433 107.606 118.404 107.567 118.381 107.525L118.29 107.389L118.148 107.182L117.792 106.612C117.52 106.133 117.274 105.648 117.048 105.143C116.938 104.891 116.821 104.639 116.724 104.386C116.562 103.966 116.42 103.545 116.297 103.092C116.263 102.99 116.235 102.887 116.213 102.782C116.102 102.405 116.014 102.023 115.948 101.636C115.917 101.524 115.895 101.409 115.883 101.293C115.796 100.847 115.737 100.395 115.708 99.941C115.708 99.7642 115.695 99.5895 115.669 99.4169C115.66 99.3309 115.66 99.2441 115.669 99.1581C115.666 99.0977 115.666 99.0372 115.669 98.9769C115.669 98.7116 115.669 98.4463 115.669 98.1745C115.669 97.9028 115.669 97.6116 115.715 97.3333C115.76 97.0551 115.754 96.8351 115.786 96.5892C115.818 96.3433 115.851 96.1104 115.896 95.8774C115.904 95.7747 115.921 95.6729 115.948 95.5733C115.993 95.3404 116.045 95.101 116.097 94.8745C116.532 92.9916 117.303 91.2029 118.374 89.5944L118.982 88.7661C119.196 88.4879 119.416 88.2097 119.63 87.9508C121.847 85.3883 124.823 83.5979 128.126 82.839C128.723 82.6889 129.331 82.5851 129.944 82.5284C130.654 82.4441 131.37 82.4117 132.086 82.4313C135.262 82.4964 138.347 83.503 140.95 85.3237C141.242 85.5243 141.533 85.7443 141.811 85.9708C143.532 87.3464 144.952 89.0618 145.982 91.0099C147.012 92.958 147.629 95.0973 147.796 97.2945C147.83 97.6515 147.845 98.0101 147.842 98.3687C147.842 98.5498 147.842 98.7116 147.842 98.8798Z" fill="#F78431"/>
<path opacity="0.59" d="M144.956 107.731C144.768 108.003 144.574 108.255 144.373 108.514C144.244 108.676 144.115 108.837 143.966 108.999V109.044L143.901 109.116L143.649 109.4L143.306 109.763L143.261 109.808L142.937 110.125C142.298 110.75 141.605 111.317 140.866 111.82C140.668 111.958 140.467 112.088 140.265 112.209H140.232C140.116 112.286 139.986 112.364 139.87 112.429C139.486 112.667 139.088 112.883 138.679 113.076C138.517 113.16 138.343 113.237 138.168 113.309C137.993 113.38 137.877 113.438 137.735 113.49C137.489 113.587 137.243 113.684 136.99 113.762C136.738 113.839 136.311 113.995 135.962 114.085C135.612 114.176 135.315 114.247 134.985 114.318L134.337 114.428C134.163 114.428 133.982 114.486 133.8 114.506C133.283 114.573 132.762 114.614 132.241 114.629C132.049 114.638 131.857 114.638 131.665 114.629H131.4C130.809 114.616 130.219 114.571 129.633 114.493C129.426 114.493 129.213 114.441 128.986 114.402C128.555 114.329 128.141 114.238 127.744 114.13C127.556 114.079 127.368 114.04 127.187 113.975H127.136C126.78 113.872 126.43 113.755 126.087 113.619C125.964 113.58 125.841 113.529 125.725 113.483L125.453 113.367C125.304 113.309 125.156 113.237 125.007 113.166C124.858 113.095 124.709 113.03 124.567 112.953L124.204 112.772C124.148 112.747 124.093 112.716 124.043 112.681L123.7 112.493C123.564 112.409 123.421 112.332 123.285 112.241C123.116 112.144 122.952 112.039 122.794 111.924C122.464 111.71 122.147 111.477 121.836 111.232C121.635 111.07 121.435 110.908 121.241 110.74C121.112 110.636 120.989 110.526 120.872 110.41C120.723 110.28 120.587 110.151 120.451 110.015C120.315 109.879 120.108 109.666 119.947 109.491C119.785 109.316 119.649 109.167 119.507 108.999C119.364 108.831 119.19 108.617 119.041 108.423C118.843 108.165 118.651 107.901 118.465 107.634C118.433 107.598 118.404 107.559 118.381 107.517L118.29 107.382L118.148 107.174L117.792 106.605C117.52 106.126 117.274 105.641 117.048 105.136C116.938 104.884 116.821 104.631 116.724 104.379C116.562 103.959 116.42 103.538 116.297 103.085C116.263 102.983 116.235 102.879 116.213 102.774C116.102 102.398 116.014 102.016 115.948 101.629C115.917 101.517 115.895 101.402 115.883 101.286C115.796 100.84 115.737 100.388 115.708 99.9337C115.708 99.7569 115.695 99.5822 115.669 99.4096C115.66 99.3236 115.66 99.2368 115.669 99.1508C115.666 99.0904 115.666 99.03 115.669 98.9696C115.669 98.7043 115.669 98.439 115.669 98.1672C115.669 97.8955 115.669 97.6043 115.715 97.3261C115.76 97.0478 115.754 96.8278 115.786 96.5819C115.818 96.336 115.851 96.1031 115.896 95.8701C115.904 95.7674 115.921 95.6656 115.948 95.566C115.993 95.3331 116.045 95.0937 116.097 94.8672C116.102 96.2648 116.271 97.6569 116.601 99.0149C116.66 99.2737 116.731 99.539 116.808 99.7914C117.229 101.245 117.843 102.636 118.633 103.926C118.808 104.217 118.989 104.502 119.183 104.774C120.663 106.941 122.617 108.742 124.897 110.041C127.58 111.563 130.623 112.334 133.707 112.275C136.791 112.216 139.803 111.328 142.426 109.704C142.782 109.472 143.144 109.232 143.487 108.967C144.002 108.586 144.492 108.173 144.956 107.731Z" fill="#F07030"/>
<path d="M147.842 98.8798C147.79 101.286 147.2 103.649 146.114 105.797C144.331 107.12 142.303 108.076 140.148 108.612C139.481 108.788 138.802 108.918 138.116 109C134.739 109.451 131.303 108.899 128.237 107.413C125.171 105.926 122.61 103.571 120.872 100.64C120.71 100.368 120.561 100.09 120.425 99.8116C119.108 97.1949 118.564 94.2564 118.859 91.3415C118.859 91.3027 118.859 91.2509 118.859 91.2121C118.917 90.6678 119.008 90.1276 119.131 89.5944C119.246 89.0329 119.397 88.4795 119.584 87.9379C121.816 85.3719 124.808 83.5855 128.126 82.839C128.723 82.6889 129.331 82.5851 129.944 82.5284C130.654 82.4441 131.37 82.4117 132.086 82.4313C135.262 82.4964 138.347 83.503 140.95 85.3237C141.242 85.5243 141.533 85.7443 141.811 85.9708C143.532 87.3464 144.952 89.0618 145.982 91.0099C147.012 92.958 147.629 95.0973 147.796 97.2945C147.83 97.6515 147.845 98.0101 147.842 98.3687C147.842 98.5498 147.842 98.7116 147.842 98.8798Z" fill="#F78F39"/>
<path d="M118.355 107.505C118.561 106.579 118.821 105.665 119.131 104.768C119.472 103.716 119.881 102.687 120.354 101.688C120.471 101.429 120.594 101.183 120.723 100.924C120.775 100.834 120.82 100.73 120.872 100.64C121.308 99.7977 121.787 98.9792 122.308 98.1872C122.464 97.9543 122.619 97.7213 122.787 97.4884C123.288 96.7683 123.825 96.075 124.398 95.4113C125.028 94.6798 125.7 93.9862 126.411 93.3342C126.598 93.1465 126.799 92.9718 126.987 92.8036C131.168 89.1443 136.314 86.7674 141.811 85.9576C141.533 85.7247 141.242 85.5047 140.95 85.3105C135.613 86.2325 130.629 88.5978 126.54 92.1501L125.951 92.6807C125.196 93.384 124.479 94.127 123.803 94.9066C123.281 95.5058 122.791 96.1321 122.334 96.7831C122.158 97.0094 121.994 97.2448 121.843 97.4884C121.326 98.2371 120.853 99.0149 120.425 99.8178C120.322 99.999 120.231 100.174 120.141 100.355C120.005 100.592 119.882 100.836 119.772 101.086C119.329 102.01 118.934 102.956 118.588 103.92C118.271 104.792 117.999 105.68 117.772 106.58L118.355 107.505Z" fill="#332726"/>
<path d="M147.843 98.3684C146.428 97.05 144.755 96.0397 142.929 95.4015C141.103 94.7633 139.165 94.511 137.237 94.6607C136.461 94.7255 135.639 94.8678 134.849 94.9972C132.598 95.379 130.262 95.7802 128.178 94.7384C127.496 94.3987 126.896 93.9153 126.418 93.3213C126.246 93.1196 126.092 92.9031 125.959 92.6742C125.373 91.6599 125.036 90.5208 124.976 89.3508C124.917 88.1808 125.136 87.0134 125.616 85.9447C126.202 84.7226 127.064 83.6529 128.133 82.8194C128.73 82.6693 129.338 82.5655 129.951 82.5088C128.388 83.3678 127.122 84.681 126.321 86.2747C125.904 87.2042 125.707 88.2176 125.746 89.2357C125.786 90.2539 126.06 91.2491 126.548 92.1436C126.678 92.3714 126.827 92.5878 126.994 92.7907C127.41 93.3133 127.935 93.7375 128.534 94.0331C130.385 94.9649 132.494 94.6025 134.72 94.2272C135.522 94.0849 136.351 93.949 137.166 93.8713C139.075 93.71 140.998 93.927 142.823 94.5099C144.649 95.0929 146.341 96.0303 147.804 97.2684C147.836 97.6342 147.849 98.0013 147.843 98.3684Z" fill="#332726"/>
<path d="M143.273 109.763C142.976 109.763 142.671 109.731 142.374 109.705C136.57 109.203 131.071 106.887 126.657 103.086C125.009 101.64 123.548 99.9946 122.308 98.1872C122.146 97.9543 121.991 97.7213 121.842 97.4819C120.6 95.5648 119.599 93.5024 118.859 91.3412C118.659 90.7588 118.484 90.1765 118.322 89.5812L118.931 88.7529C118.989 89.0312 119.06 89.3159 119.144 89.5941C119.845 92.1334 120.92 94.5541 122.334 96.7766C122.476 97.016 122.632 97.2554 122.787 97.4884C124.028 99.3374 125.503 101.019 127.174 102.49C130.856 105.68 135.344 107.798 140.148 108.611C141.234 108.807 142.332 108.926 143.435 108.967C143.616 108.967 143.778 108.967 143.959 108.967L143.273 109.763Z" fill="#332726"/>
<path d="M131.439 114.635L129.608 114.493C127.749 113.338 126.137 111.827 124.865 110.048C124.407 109.407 123.996 108.735 123.635 108.035C123.266 107.317 122.956 106.56 122.645 105.842C122.335 105.123 121.966 104.224 121.552 103.46C121.226 102.831 120.831 102.241 120.374 101.7C120.199 101.48 120.002 101.278 119.785 101.099C119.346 100.685 118.838 100.352 118.284 100.115C117.804 99.9154 117.29 99.81 116.77 99.8044C116.407 99.7999 116.045 99.8479 115.696 99.9468C115.696 99.7699 115.683 99.5952 115.657 99.4226C115.647 99.3366 115.647 99.2498 115.657 99.1638C115.956 99.0798 116.265 99.0341 116.576 99.0279C117.272 98.9908 117.967 99.1148 118.607 99.3903C119.175 99.6319 119.702 99.9617 120.167 100.367C120.377 100.543 120.572 100.735 120.749 100.943C121.344 101.587 121.851 102.308 122.257 103.085C122.684 103.887 123.04 104.729 123.383 105.544C123.68 106.256 123.991 106.987 124.34 107.679C124.936 108.85 125.682 109.938 126.56 110.915C127.933 112.456 129.589 113.719 131.439 114.635Z" fill="#332726"/>
<path d="M128.307 120.201C128.307 120.201 120.963 117.677 118.601 115.671C116.239 113.665 115.54 109.382 115.851 107.421C116.064 106.094 116.938 104.541 118.594 102.82C120.251 101.099 120.62 103.532 120.257 104.645C119.895 105.758 119.371 107.945 119.371 107.945L120.063 110.372C120.063 110.372 124.677 110.048 126.696 113.736C128.714 117.425 128.307 120.201 128.307 120.201Z" fill="#BF6565"/>
<path d="M322 237.162C322 237.338 322 237.514 322 237.698C321.929 244.418 319.201 250.838 314.411 255.553C309.621 260.268 303.159 262.895 296.438 262.859C289.717 262.824 283.283 260.129 278.543 255.364C273.803 250.599 271.142 244.151 271.142 237.43C271.142 230.709 273.803 224.261 278.543 219.496C283.283 214.731 289.717 212.036 296.438 212C303.159 211.965 309.621 214.592 314.411 219.307C319.201 224.022 321.929 230.441 322 237.162Z" fill="white"/>
<path d="M320.518 245.754C319.332 249.054 317.478 252.074 315.072 254.626C312.666 257.178 309.76 259.206 306.535 260.584C303.31 261.963 299.836 262.661 296.329 262.636C292.822 262.611 289.357 261.863 286.152 260.439C282.947 259.015 280.071 256.946 277.701 254.36C275.332 251.774 273.521 248.727 272.383 245.41C271.244 242.093 270.801 238.577 271.082 235.081C271.363 231.585 272.362 228.185 274.016 225.093C271.837 231.156 272.033 237.82 274.565 243.745C277.097 249.67 281.777 254.417 287.666 257.033C293.554 259.65 300.214 259.941 306.308 257.848C312.402 255.756 317.479 251.435 320.518 245.754Z" fill="#CBD2D8"/>
<mask id="mask0_2593_3828" style="mask-type:luminance" maskUnits="userSpaceOnUse" x="271" y="212" width="51" height="51">
<path d="M321.999 237.163C321.999 237.339 321.999 237.515 321.999 237.698C321.928 244.419 319.2 250.838 314.409 255.553C309.619 260.268 303.158 262.895 296.437 262.86C289.715 262.824 283.282 260.13 278.542 255.365C273.801 250.599 271.141 244.152 271.141 237.43C271.141 230.709 273.801 224.261 278.542 219.496C283.282 214.731 289.715 212.036 296.437 212.001C303.158 211.965 309.619 214.592 314.409 219.307C319.2 224.022 321.928 230.442 321.999 237.163Z" fill="white"/>
</mask>
<g mask="url(#mask0_2593_3828)">
<path d="M321.296 251.557C319.755 251.621 318.224 251.295 316.842 250.611C318.041 247.607 318.707 244.416 318.808 241.183C320.408 240.581 322.007 239.987 323.269 239.591C324.993 243.861 324.406 248.989 321.296 251.557Z" fill="#222F38"/>
<path d="M308.983 230.353C308.883 227.197 308.432 224.062 307.641 221.006C303.891 218.995 299.783 218.218 296.232 219.575C294.666 222.034 293.493 224.723 292.754 227.543C294.639 230.561 296.736 233.442 299.027 236.164C302.439 234.234 305.85 232.297 308.983 230.353Z" fill="#222F38"/>
<path d="M290.245 253.86C290.289 255.838 290.674 257.794 291.382 259.642C294.855 260.87 298.601 261.112 302.204 260.339C303.715 258.967 304.339 257.463 305.183 255.694C303.495 253.911 300.78 252.224 298.403 250.36C295.804 251.79 293.072 252.962 290.245 253.86Z" fill="#222F38"/>
<path d="M299.239 233.436L298.183 253.157" stroke="#222F38" stroke-width="0.733694" stroke-miterlimit="10"/>
<path d="M294.933 227.191C291.059 227.537 287.328 228.819 284.06 230.927C280.792 233.034 278.085 235.904 276.172 239.29" stroke="#222F38" stroke-width="0.733694" stroke-miterlimit="10"/>
<path d="M306.988 229.444C310.118 230.429 312.927 232.236 315.12 234.677C317.314 237.117 318.813 240.101 319.461 243.318" stroke="#222F38" stroke-width="0.733694" stroke-miterlimit="10"/>
<path d="M306.943 222.092C309.205 220.636 311.272 218.895 313.091 216.913" stroke="#222F38" stroke-width="0.733694" stroke-miterlimit="10"/>
<path d="M297.773 220.295C295.656 217.121 292.539 214.745 288.917 213.545" stroke="#222F38" stroke-width="0.733694" stroke-miterlimit="10"/>
<path d="M274.507 251.131L279.9 248.644C278.163 245.142 277.145 241.328 276.907 237.426C274.622 236.651 272.14 236.685 269.878 237.521C269.263 239.995 269.372 242.593 270.193 245.006C271.014 247.42 272.512 249.546 274.507 251.131Z" fill="#222F38"/>
<path d="M280.495 215.137C283.854 214.731 287.241 214.616 290.62 214.792C291.067 213.112 291.515 211.439 291.962 209.751C287.788 210.603 283.51 211.505 280.495 215.137Z" fill="#222F38"/>
<path d="M292.431 258.998L286.708 261.69" stroke="#222F38" stroke-width="0.733694" stroke-miterlimit="10"/>
<path d="M301.669 260.347C303.148 261.743 304.271 263.474 304.941 265.395" stroke="#222F38" stroke-width="0.733694" stroke-miterlimit="10"/>
<path d="M304.237 255.571C309.306 255.084 314.073 252.941 317.803 249.474" stroke="#222F38" stroke-width="0.733694" stroke-miterlimit="10"/>
<path d="M291.822 254.147C289.21 254.086 286.646 253.432 284.324 252.235C282.002 251.038 279.982 249.328 278.418 247.236" stroke="#222F38" stroke-width="0.733694" stroke-miterlimit="10"/>
</g>
<path d="M178.789 342.225L182.153 346.281L184.898 350.772L146.213 366.86L154.203 351.955L178.789 342.225Z" fill="#6F7B9E"/>
<path d="M189.311 377.702C186.353 383.675 180.579 389.535 175.767 389.713L151.88 390.533C134.438 391.117 113.423 391.802 110.087 391.802C110.087 391.802 101.697 381.95 109.624 376.041C109.624 376.041 125.05 372.206 133.204 370.21C139.344 368.821 145.696 368.649 151.902 369.704L151.823 369.562L150.248 366.454L148.06 362.177L177.157 340.678C177.157 340.678 180.543 347.628 183.808 355.597C187.408 364.429 190.872 374.558 189.311 377.702Z" fill="#F69887"/>
<path d="M183.78 355.562C173.572 352.525 155.174 363.36 150.22 366.454L148.032 362.177L177.129 340.678C177.129 340.678 180.515 347.592 183.78 355.562Z" fill="#DB6F60"/>
<path d="M122.69 325.274C122.69 325.274 143.597 360.467 146.021 366.882C146.021 366.882 175.475 347.422 178.961 346.609C182.446 345.797 184.827 350.744 184.827 350.744L170.827 311.403L122.69 325.274Z" fill="#C5D1DE"/>
<path d="M165.751 324.319C162.659 336.426 157.32 347.843 150.012 357.979C154.902 347.244 159.757 336.502 165.751 324.319Z" fill="#A1B2CC"/>
<path d="M163.862 324.54C158.831 333.339 151.419 340.539 142.477 345.311C150.108 338.924 157.256 331.981 163.862 324.54Z" fill="#A1B2CC"/>
<path d="M166.985 326.849L170.243 328.524L175.625 315.679L167.078 316.62L166.985 326.849Z" fill="#6F7B9E"/>
<path d="M276.212 317.562C276.445 318.246 276.82 318.874 277.311 319.404C277.802 319.934 278.399 320.356 279.063 320.641C287.168 320.156 290.005 314.318 296.421 311.417C303 308.452 310.463 307.989 316.907 304.731C323.743 301.288 326.559 296.384 326.559 296.384C326.559 296.384 325.732 293.718 325.19 293.796C309.886 300.675 293.797 307.739 276.212 317.562Z" fill="#2E191F"/>
<path d="M280.289 319.822C280.752 320.435 281.209 321.048 281.672 321.654C282.438 321.56 283.185 321.351 283.889 321.034C283.775 320.392 283.668 319.75 283.561 319.109" fill="#2E191F"/>
<path d="M284.394 318.495L285.877 320.241C286.693 320.06 287.444 319.661 288.051 319.086C287.901 318.452 287.559 317.661 287.41 317.026" fill="#2E191F"/>
<path d="M288.915 315.302C289.407 315.886 289.906 316.471 290.405 317.048C291.208 316.862 291.947 316.463 292.543 315.894C292.393 315.259 292.058 314.468 291.902 313.833" fill="#2E191F"/>
<path d="M303.57 308.516C304.004 309.15 304.432 309.778 304.874 310.412C305.701 310.308 306.486 309.986 307.148 309.478C307.07 308.837 306.813 308.01 306.727 307.34" fill="#2E191F"/>
<path d="M310.135 306.442C310.577 307.069 311.005 307.703 311.447 308.331C312.275 308.23 313.061 307.907 313.721 307.397C313.635 306.755 313.386 305.928 313.3 305.258" fill="#2E191F"/>
<path d="M316.715 303.811C317.157 304.439 317.584 305.073 318.026 305.7C318.853 305.599 319.638 305.279 320.3 304.774C320.215 304.125 319.965 303.298 319.88 302.635" fill="#2E191F"/>
<path d="M322.096 299.491C322.531 300.119 323.144 301.316 323.586 301.943C324.555 301.71 325.461 301.265 326.237 300.639C326.159 299.997 325.339 298.415 325.254 297.788" fill="#2E191F"/>
<path d="M271.9 302.627C271.9 302.627 271.579 316.741 276.034 318.523C281.573 320.74 289.25 313.996 291.631 312.05C294.012 310.104 305.089 306.633 308.945 305.806C312.802 304.979 326.388 299.198 325.647 292.861C325.091 288.121 321.413 287.6 318.611 288.228C312.274 289.653 290.547 289.867 283.526 290.124L271.9 302.627Z" fill="#CF3045"/>
<path d="M291.673 289.711C290.671 291.563 290.028 293.588 289.777 295.678" stroke="#F7D9D7" stroke-width="2.85131" stroke-miterlimit="10" stroke-linecap="round"/>
<path d="M296.755 289.711C295.753 291.563 295.11 293.588 294.859 295.678" stroke="#F7D9D7" stroke-width="2.85131" stroke-miterlimit="10" stroke-linecap="round"/>
<path d="M302.351 289.711C301.35 291.563 300.707 293.588 300.455 295.678" stroke="#F7D9D7" stroke-width="2.85131" stroke-miterlimit="10" stroke-linecap="round"/>
<path d="M285.749 290.403L272.812 306.413C272.812 306.413 259.674 305.921 252.617 305.7C247.007 305.507 232.337 307.888 218.402 304.224C214.714 303.271 211.169 301.832 207.859 299.947C207.859 299.947 194.144 309.107 180.657 315.501C174.413 318.474 168.211 320.847 163.443 321.446L173.009 283.417C173.009 283.417 175.86 282.704 179.852 281.663C188.263 279.525 201.95 276.217 205.856 276.068C207.281 276.011 212.906 276.859 220.533 278.206C243.778 282.141 285.749 290.403 285.749 290.403Z" fill="#F69887"/>
<path d="M285.749 290.403L272.812 306.413C272.812 306.413 259.674 305.921 252.617 305.7C247.007 305.507 232.337 307.888 218.402 304.224C217.527 302.169 216.907 300.015 216.555 297.809C215.785 293.339 215.714 288.67 217.104 284.365C217.829 282.101 218.994 280.003 220.533 278.192C243.778 282.141 285.749 290.403 285.749 290.403Z" fill="#271F64"/>
<path d="M87.8595 394.589L95.4461 378.478C95.4461 378.478 106.588 376.195 112.564 374.932C117.318 373.942 129.158 368.93 141.622 369.148C142.778 370.696 143.742 372.38 144.49 374.161C146.054 377.759 147.073 381.668 146.788 385.572C146.644 387.623 146.096 389.625 145.174 391.464C124.828 392.916 87.8595 394.589 87.8595 394.589Z" fill="#271F64"/>
<path d="M180.665 315.508C174.421 318.48 168.219 320.854 163.45 321.453L173.016 283.423C173.016 283.423 175.868 282.711 179.859 281.67C177.949 286.645 170.685 307.66 180.665 315.508Z" fill="#DB6F60"/>
<path d="M289.627 290.231C287.675 287.23 284.873 284.878 281.58 283.474C281.011 283.137 280.345 283.004 279.691 283.096C278.629 283.367 278.229 284.636 278.265 285.683C278.301 286.731 278.65 287.822 278.265 288.82C277.937 289.682 277.089 290.431 277.238 291.343C277.367 292.106 278.151 292.591 278.871 292.969C281.009 294.116 283.148 295.25 285.286 296.39C286.912 294.594 287.746 292.07 289.627 290.231Z" fill="#CF3045"/>
<path d="M179.852 281.015C175.675 288.143 173.28 299.042 171.904 308.622C170.969 315.224 170.374 321.869 170.122 328.532C170.122 328.532 141.024 335.154 130.054 332.146C123.182 330.264 116.724 325.303 114.778 313.783C112.575 300.724 118.057 286.133 118.057 286.133L128.193 287.558L139.092 289.091L179.852 281.015Z" fill="#E4EAF0"/>
<path opacity="0.78" d="M179.852 281.015C175.675 288.143 173.28 299.042 171.904 308.622C171.914 307.625 171.823 306.629 171.633 305.65C171.303 303.539 170.178 301.634 168.489 300.325C166.821 299.156 164.711 298.899 162.68 298.686C155.83 298.065 148.773 298.172 142.279 300.425C135.785 302.677 129.854 307.311 127.309 313.698C128.561 306.863 132.18 300.687 137.531 296.255C131.336 297.718 125.54 300.532 120.559 304.495C125.071 299.128 130.806 294.923 137.282 292.235C132.433 290.761 127.378 290.077 122.312 290.21C124.261 289.312 126.216 288.428 128.179 287.558L139.078 289.091L179.852 281.015Z" fill="white"/>
<path d="M151.879 287.295C139.968 292.962 130.494 304.346 126.253 316.835C127.893 303.526 138.207 290.981 151.879 287.295Z" fill="#BDCBDE"/>
<path d="M151.88 287.295C141.188 290.731 126.169 299.378 117.964 307.026C124.387 297.596 140.133 288.308 151.88 287.295Z" fill="#BDCBDE"/>
<path d="M205.371 232.707C205.371 232.707 225.409 238.517 226.25 247.085C227.091 255.653 221.26 258.889 216.983 258.739C209.705 258.483 193.324 250.471 193.324 250.471L205.371 232.707Z" fill="#DB6F60"/>
<path d="M100.015 237.041C97.3885 238.506 94.6441 239.748 91.8105 240.755C79.393 245.446 58.6711 251.22 58.6711 251.22L55.8911 240.263C59.5622 238.225 72.9277 229.393 79.3431 226.399C82.3299 225.03 86.4072 224.26 89.9215 223.883C92.374 223.609 94.8388 223.459 97.3064 223.434L100.015 237.041Z" fill="#F69887"/>
<path d="M100.015 237.041C97.3887 238.506 94.6442 239.748 91.8106 240.755C90.2416 235.277 89.6196 229.571 89.9715 223.883C92.424 223.609 94.8888 223.459 97.3564 223.434L100.015 237.041Z" fill="#DB6F60"/>
<path d="M42.6535 255.96C42.6535 255.96 40.85 261.185 48.0425 260.757C50.8082 260.607 54.4579 257.906 56.1188 255.653C57.7797 253.4 58.9701 250.87 61.2939 248.603C59.8683 246.065 58.6422 243.421 57.3449 240.762C53.3966 238.894 49.1675 237.69 44.8276 237.198C43.7166 236.99 42.571 237.069 41.4987 237.426C40.1087 238.003 39.2319 239.365 38.5048 240.684C37.4498 242.591 36.5257 244.568 35.7391 246.6C35.1608 247.794 34.9145 249.121 35.0262 250.442C35.2206 251.256 35.604 252.012 36.1452 252.65C36.6864 253.288 37.3702 253.789 38.1413 254.113C39.6739 254.876 42.6535 255.96 42.6535 255.96Z" fill="#F69887"/>
<path d="M42.9893 255.596C44.0493 253.08 44.6528 250.396 44.7713 247.669" stroke="#BD3E42" stroke-width="0.712827" stroke-miterlimit="10" stroke-linecap="round"/>
<path d="M44.0221 252.387C42.9405 251.128 41.6201 250.096 40.1372 249.351" stroke="#BD3E42" stroke-width="0.712827" stroke-miterlimit="10" stroke-linecap="round"/>
<path d="M139.021 289.176C134.908 289.924 121.464 291.058 115.989 293.538C112.746 293.032 112.004 290.095 112.731 287.836C113.459 285.576 115.212 283.773 116.923 282.09C114.207 266.615 116.467 255.594 118.349 246.342C111.071 246.342 106.794 246.306 100.243 245.85C94.2336 239.363 91.3752 228.528 90.2632 218.977C99.5299 219.625 107.72 217.636 117.008 215.84C126.297 214.044 136.169 210.736 146.17 214.222C168.735 216.273 190.727 222.477 211.037 232.52C204.622 240.582 198.256 248.652 192.689 256.428C188.412 256.428 182.745 255.83 178.433 255.402C177.328 259.558 174.869 268.133 173.856 272.439C175.596 276.003 176.366 278.711 175.824 282.204C162.031 285.255 142.684 288.513 139.021 289.176Z" fill="#33BA53"/>
<path d="M138.508 216.561C138.508 222.734 155.808 238.844 155.808 238.844C155.808 238.844 168.446 231.438 167.434 225.115C158.98 222.563 148.394 221.087 138.508 216.561Z" fill="#DB6F60"/>
<path d="M155.823 238.858C166.401 231.202 168.903 225.571 167.378 218.949C168.872 218.43 170.437 218.144 172.018 218.101C177.792 218.25 179.253 225.079 180.437 233.419C173.986 231.202 163.008 235.094 155.823 238.858Z" fill="#D9FBFF"/>
<path d="M155.822 238.858C146.941 229.976 145.7 223.746 147.368 215.598C144.025 214.172 141.181 213.11 137.631 213.873C134.73 220.346 133.155 224.359 133.155 232.506C138.864 231.287 150.006 234.381 155.822 238.858Z" fill="#D9FBFF"/>
<path d="M178.655 254.342C180.894 248.187 182.565 241.84 183.644 235.38C184.209 242.086 182.447 248.782 178.655 254.342Z" fill="#14822E"/>
<path d="M179.715 252.616C184.507 247.512 188.324 241.574 190.978 235.095C190.215 238.889 188.835 242.532 186.894 245.88C184.89 249.159 182.118 252.039 179.715 252.616Z" fill="#14822E"/>
<path d="M171.041 272.875C161.95 271.036 152.613 270.751 143.426 272.034C152.372 268.391 162.822 268.691 171.041 272.875Z" fill="#14822E"/>
<path d="M119.782 245.702C123.682 239.947 126.274 233.406 127.374 226.542C127.57 230.094 126.993 233.648 125.683 236.956C124.372 240.264 122.359 243.248 119.782 245.702Z" fill="#14822E"/>
<path d="M120.744 246.421C124.96 243.032 128.55 238.931 131.351 234.303C131.357 236.029 131.017 237.739 130.349 239.331C129.682 240.923 128.701 242.364 127.466 243.57C124.964 245.951 121.514 247.255 120.744 246.421Z" fill="#14822E"/>
<path d="M167.84 253.244C168.667 250.592 170.891 248.967 172.83 249.53C174.769 250.093 175.624 252.766 174.79 255.411C173.956 258.055 171.739 259.723 169.8 259.124C167.861 258.526 167.02 255.888 167.84 253.244Z" fill="#FFC061"/>
<path d="M205.984 238.487C209.876 238.131 213.825 237.775 217.653 238.708C221.481 239.642 225.109 242.08 226.428 245.758C227.854 249.807 226.036 254.633 222.536 257.164C219.036 259.694 214.239 259.958 210.218 258.432C206.198 256.907 202.94 253.728 200.759 250.028C202.548 246.307 204.33 242.629 205.984 238.487Z" fill="#F08678"/>
<path d="M192.212 239.913C191.105 240.472 190.194 241.353 189.596 242.439C188.998 243.525 188.742 244.766 188.861 246C189.02 247.23 189.509 248.394 190.276 249.369C191.043 250.344 192.059 251.094 193.217 251.539C194.384 251.955 195.634 252.085 196.862 251.917C198.09 251.75 199.26 251.29 200.274 250.576C198.484 246.425 195.718 242.767 192.212 239.913Z" fill="#F08678"/>
<path d="M213.197 243.57C212.235 240.062 209.177 237.411 206.297 235.187C203.418 232.963 199.49 231.765 196.075 233.048C194.127 233.837 192.464 235.199 191.307 236.955C190.486 238.006 190.01 239.286 189.945 240.618C189.986 241.375 190.237 242.106 190.67 242.728C191.104 243.35 191.702 243.839 192.397 244.14C192.195 244.76 192.148 245.421 192.261 246.064C192.374 246.706 192.644 247.311 193.046 247.825C193.858 248.837 195.184 249.415 197.323 249.336C197.301 249.892 197.405 250.446 197.627 250.955C197.849 251.465 198.184 251.918 198.606 252.28C199.454 252.993 200.652 253.278 202.298 253.407C202.733 255.224 204.979 256.137 206.789 255.666C208.6 255.196 209.954 253.699 210.931 252.102C212.214 249.999 214.26 247.469 213.197 243.57Z" fill="#F69887"/>
<path d="M192.725 243.449C194.089 241.043 195.974 238.972 198.242 237.39" stroke="#BD3E42" stroke-width="0.712827" stroke-miterlimit="10" stroke-linecap="round"/>
<path d="M197.672 249.023C199.63 247.097 201.351 244.943 202.797 242.607" stroke="#BD3E42" stroke-width="0.712827" stroke-miterlimit="10" stroke-linecap="round"/>
<path d="M203.161 252.801C205.018 250.987 206.509 248.833 207.552 246.457" stroke="#BD3E42" stroke-width="0.712827" stroke-miterlimit="10" stroke-linecap="round"/>
<path d="M173.672 208.876C177.486 207.251 181.513 208.163 182.711 210.943C183.908 213.723 181.756 217.273 177.935 218.898C174.114 220.524 170.094 219.611 168.896 216.831C167.699 214.051 169.873 210.501 173.672 208.876Z" fill="#DB6F60"/>
<path d="M136.861 212.719C134.765 199.404 142.293 187.157 153.662 185.375C165.032 183.593 175.539 186.509 178.041 206.254C179.731 219.627 175.988 232.187 164.619 233.969C153.249 235.751 138.957 226.035 136.861 212.719Z" fill="#F69887"/>
<path d="M160.998 211.108C160.313 210.362 159.481 209.766 158.555 209.355C157.629 208.944 156.629 208.728 155.616 208.72C153.596 208.718 151.598 209.138 149.75 209.953C153.335 210.502 156.935 210.794 160.998 211.108Z" fill="#271F64"/>
<path d="M170.378 210.103C170.385 209.288 170.596 208.488 170.994 207.776C171.391 207.065 171.962 206.465 172.652 206.032C173.317 205.628 174.065 205.38 174.84 205.31C175.615 205.24 176.395 205.348 177.122 205.626C174.862 207.009 172.724 208.627 170.378 210.103Z" fill="#271F64"/>
<path d="M157.974 218.657C158.699 218.657 159.286 217.946 159.286 217.068C159.286 216.19 158.699 215.478 157.974 215.478C157.25 215.478 156.663 216.19 156.663 217.068C156.663 217.946 157.25 218.657 157.974 218.657Z" fill="#323F6E"/>
<path d="M173.743 215.471C174.467 215.471 175.054 214.759 175.054 213.881C175.054 213.003 174.467 212.292 173.743 212.292C173.018 212.292 172.431 213.003 172.431 213.881C172.431 214.759 173.018 215.471 173.743 215.471Z" fill="#323F6E"/>
<path d="M170.484 215.185C171.084 217.063 171.039 219.088 170.356 220.938" stroke="#BD3E42" stroke-width="0.712827" stroke-miterlimit="10" stroke-linecap="round"/>
<path d="M169.822 229.307C170.403 228.659 170.808 227.874 170.999 227.025C171.19 226.177 171.16 225.293 170.913 224.459C170.747 224.029 170.467 223.652 170.102 223.37C169.738 223.087 169.303 222.909 168.845 222.855C167.88 222.9 166.969 223.313 166.301 224.01C165.027 224.973 164.134 226.354 163.777 227.909C163.682 228.444 163.749 228.995 163.97 229.492C164.185 229.864 164.488 230.178 164.852 230.406C165.216 230.635 165.63 230.771 166.058 230.804C166.906 230.896 168.168 230.896 169.822 229.307Z" fill="white"/>
<path d="M178.426 212.677C178.141 208.043 177.364 201.129 175.824 196.994C169.031 198.833 156.342 199.696 147.019 199.133C147.019 206.119 144.88 212.484 142.029 218.971C140.121 218.076 138.355 216.904 136.79 215.492C134.302 209.418 132.624 203.043 131.8 196.531C131.651 195.452 131.62 194.359 131.707 193.273C131.78 192.008 132.266 190.801 133.09 189.838C134.188 188.647 135.856 188.113 136.989 186.986C138.686 185.24 138.864 182.431 140.553 180.671C142.35 178.782 145.308 178.653 147.888 179.031C150.469 179.409 153.092 180.172 155.63 179.594C157.654 179.131 159.564 177.819 161.632 178.076C164.597 178.454 166.393 181.833 169.309 182.46C170.734 182.773 172.296 182.381 173.643 182.937C175.432 183.65 176.188 185.789 176.63 187.671C176.801 188.417 176.957 189.172 177.1 189.937C177.57 192.397 177.877 194.877 178.134 197.265C178.675 202.227 179.224 207.138 178.426 212.677Z" fill="#271F64"/>
<path d="M177.129 189.887C177.033 189.712 176.926 189.543 176.808 189.381C175.568 187.606 173.658 186.181 171.505 186.052C169.352 185.924 167.313 186.979 165.382 186.259C163.678 185.617 162.602 183.743 160.82 183.351C158.104 182.752 155.901 185.91 153.128 186.109C150.355 186.309 147.761 183.336 144.981 183.971C142.6 184.534 141.623 187.328 139.848 189.003C138.194 190.557 135.878 191.106 133.803 192.019C133.073 192.339 132.384 192.746 131.75 193.23C131.824 191.965 132.309 190.758 133.133 189.795C134.231 188.604 135.899 188.07 137.033 186.943C138.729 185.197 138.907 182.388 140.597 180.628C142.393 178.739 145.351 178.61 147.932 178.988C150.512 179.366 153.135 180.129 155.673 179.551C157.697 179.088 159.608 177.776 161.675 178.033C164.64 178.411 166.437 181.79 169.352 182.417C170.778 182.73 172.339 182.338 173.686 182.894C175.475 183.607 176.231 185.746 176.673 187.628C176.834 188.383 176.986 189.136 177.129 189.887Z" fill="#45478C"/>
<path d="M131.265 216.083C132.135 213.232 136.063 211.856 140.033 213.061C144.004 214.265 146.506 217.573 145.636 220.453C144.766 223.332 140.832 224.687 136.868 223.475C132.905 222.263 130.389 218.963 131.265 216.083Z" fill="#F69887"/>
<path d="M92.9167 364.693C92.403 364.184 91.7883 363.789 91.1123 363.533C90.4363 363.277 89.7141 363.165 88.9923 363.206C81.9515 367.249 82.0114 373.74 77.5594 379.195C72.9892 384.78 66.5132 388.519 62.1944 394.305C57.6072 400.432 57.2703 406.077 57.2703 406.077C57.2703 406.077 59.1979 408.096 59.6481 407.785C70.2874 394.81 81.5462 381.32 92.9167 364.693Z" fill="#2E191F"/>
<path d="M88.2597 364.485C87.5718 364.142 86.8903 363.797 86.2056 363.46C85.5616 363.886 84.9855 364.406 84.4969 365.003C84.8847 365.527 85.2662 366.053 85.6477 366.58" fill="#2E191F"/>
<path d="M85.1754 367.502L83.0701 366.598C82.4206 367.124 81.9256 367.816 81.6378 368.601C82.0543 369.102 82.713 369.658 83.1296 370.159" fill="#2E191F"/>
<path d="M82.5494 372.374C81.8487 372.069 81.1416 371.768 80.4377 371.474C79.8014 371.998 79.3178 372.684 79.0373 373.46C79.4539 373.961 80.1062 374.52 80.5292 375.019" fill="#2E191F"/>
<path d="M72.4508 384.976C71.7789 384.602 71.1166 384.231 70.4384 383.859C69.7438 384.321 69.1847 384.959 68.8183 385.708C69.1742 386.248 69.7722 386.874 70.1472 387.436" fill="#2E191F"/>
<path d="M67.4957 389.757C66.8206 389.392 66.1552 389.015 65.4801 388.65C64.7835 389.109 64.2237 389.748 63.86 390.499C64.2223 391.035 64.814 391.664 65.189 392.226" fill="#2E191F"/>
<path d="M62.7762 395.043C62.1012 394.678 61.4357 394.3 60.7606 393.935C60.0653 394.394 59.5049 395.03 59.1374 395.778C59.5028 396.321 60.0945 396.95 60.4663 397.505" fill="#2E191F"/>
<path d="M59.8819 401.307C59.2132 400.939 58.131 400.139 57.4559 399.775C56.6915 400.415 56.079 401.217 55.6626 402.124C56.0186 402.663 57.4573 403.715 57.8132 404.238" fill="#2E191F"/>
<path d="M103.43 376.144C103.43 376.144 97.431 363.364 92.6484 363.753C86.702 364.235 82.8315 373.691 81.5665 376.494C80.3015 379.297 71.9294 387.338 68.8448 389.796C65.7602 392.254 56.1702 403.481 59.6562 408.825C62.2651 412.821 65.7902 411.649 68.019 409.84C73.058 405.741 92.4161 395.873 98.5883 392.517L103.43 376.144Z" fill="#CF3045"/>
<path d="M91.4774 396.514C91.5491 394.41 91.2236 392.311 90.5179 390.327" stroke="#F7D9D7" stroke-width="2.85131" stroke-miterlimit="10" stroke-linecap="round"/>
<path d="M86.9268 398.778C86.9986 396.673 86.6731 394.575 85.9673 392.591" stroke="#F7D9D7" stroke-width="2.85131" stroke-miterlimit="10" stroke-linecap="round"/>
<path d="M81.9166 401.27C81.9883 399.166 81.6628 397.067 80.9571 395.084" stroke="#F7D9D7" stroke-width="2.85131" stroke-miterlimit="10" stroke-linecap="round"/>
<path d="M93.077 395.138C96.1619 396.955 99.7179 397.814 103.292 397.604C103.951 397.653 104.607 397.475 105.152 397.101C105.982 396.386 105.774 395.072 105.276 394.149C104.777 393.227 103.979 392.406 103.879 391.341C103.788 390.423 104.215 389.375 103.674 388.625C103.22 387.999 102.302 387.914 101.489 387.897C99.0631 387.821 96.6436 387.759 94.221 387.69C93.5658 390.022 93.9429 392.653 93.077 395.138Z" fill="#CF3045"/>
<path d="M313.19 450.573L319.95 450.736L319.243 456.385L312.439 456.22L310.589 470.933L304.927 470.796L306.777 456.083L299.183 455.899L299.934 450.252L307.528 450.436L308.455 442.992L306.655 442.948C305.856 444.51 304.839 446.008 303.604 447.442L299.857 446.209L296.721 470.509L290.927 470.369L293.602 450.582L287.893 448.731C289.443 447.597 291.038 445.835 292.677 443.444C294.316 441.024 295.694 438.554 296.809 436.034C297.925 433.484 298.529 431.508 298.621 430.105L304.743 431.219C303.768 434.006 302.373 437.223 300.557 440.868L300.183 443.626C301.511 441.96 302.671 439.997 303.663 437.737C304.656 435.448 305.231 433.427 305.391 431.674L308.886 432.461C308.649 434.974 308.463 436.594 308.329 437.323L309.163 437.343L310.029 430.6L315.691 430.738L314.825 437.48L320.312 437.613L319.604 443.262L314.117 443.129L313.19 450.573Z" fill="#271F64"/>
<path d="M277.795 447.124L277.534 448.831C277.752 453.14 278.352 456.786 279.334 459.767C280.346 462.719 281.943 465.671 284.126 468.623L278.207 470.017C277.138 468.234 276.301 466.516 275.697 464.861C275.121 463.237 274.708 461.543 274.458 459.78C272.813 463.635 270.522 466.961 267.585 469.76L263.663 468.479L263.5 469.749L258.145 469.619L258.942 463.929C257.879 464.284 256.656 464.62 255.272 464.938L252.29 459.288C254.138 459.186 256.638 458.69 259.793 457.8L260.544 452.153L257.118 452.202C256.59 452.218 256.096 452.06 255.636 451.727C255.205 451.394 254.922 450.977 254.788 450.476C254.708 450.152 254.671 449.844 254.678 449.551C254.693 448.937 254.931 448.167 255.393 447.241C256.253 445.563 257.453 442.577 258.992 438.28L256.973 438.232L257.632 432.757L260.793 432.834L261.752 429.475L267.663 430.233L266.718 432.977L269.835 433.053L269.175 438.527L264.786 438.421C264.47 439.379 264.172 440.177 263.893 440.815L267.405 440.9L267.088 443.088C268.558 441.63 269.72 439.594 270.574 436.98C271.429 434.336 271.87 431.828 271.898 429.457L277.497 430.427C277.478 431.188 277.307 432.194 276.984 433.446L281.768 433.605C283.055 433.636 283.983 434.01 284.552 434.727C285.15 435.415 285.432 436.476 285.397 437.91C285.31 441.509 284.292 444.851 282.343 447.937L277.795 447.124ZM274.962 438.974C274.559 439.902 274.174 440.698 273.806 441.362L278.371 441.473L278.021 445.066L277.852 446.599C279.12 445.019 279.788 442.825 279.856 440.015C279.87 439.43 279.658 439.132 279.219 439.121L274.962 438.974ZM263.751 441.25C262.78 443.862 262.064 445.616 261.603 446.513L263.052 446.548L263.751 441.25ZM264.036 465.765C266.559 463.161 268.473 460.294 269.778 457.164C271.084 454.004 272.078 449.841 272.76 444.675L272.98 442.835C272.063 444.424 271.184 445.661 270.343 446.549L266.872 444.752L266.605 446.722L268.054 446.757L267.441 452.1L265.904 452.107L265.422 455.697C266.044 455.39 266.638 455.038 267.204 454.642L267.851 458.742C267.273 459.636 266.198 460.532 264.624 461.431L264.036 465.765Z" fill="#271F64"/>
<path d="M229.063 450.293C228.585 450.691 228.212 450.975 227.945 451.144L226.44 462.483C226.118 464.935 225.518 466.707 224.643 467.798C223.796 468.919 222.363 469.456 220.344 469.407C219.115 469.377 218.131 468.87 217.394 467.886C216.686 466.903 216.35 465.665 216.386 464.172C216.428 462.417 216.982 460.702 218.047 459.03L221.473 459.025L222.212 453.904C221.504 454.121 220.857 454.238 220.271 454.253L219.056 448.206C220.849 447.927 222.217 447.653 223.161 447.383L224.328 439.067L222.31 438.974L223.014 433.501L225.12 433.596L225.859 428.431L230.951 428.554L230.253 433.808L231.614 433.841L230.91 439.314L229.506 439.28L228.753 444.971C228.842 444.915 229.169 444.703 229.735 444.336L230.645 448.443C231.896 447.595 233.019 446.553 234.015 445.318L229.977 445.22L230.351 440.662L237.813 440.842L238.56 435.371C237.505 435.404 236.714 435.414 236.188 435.401C234.812 435.368 233.599 435.28 232.549 435.137L231.553 430.897L233.22 430.981C235.971 431.048 238.625 430.863 241.183 430.427C243.742 429.962 245.941 429.225 247.781 428.215L250.161 433.324C248.739 433.992 246.691 434.528 244.017 434.932L243.168 440.972L243.782 440.987C244.059 440.437 244.279 439.828 244.441 439.158C244.633 438.489 244.736 437.862 244.751 437.277C244.767 436.604 244.677 436.075 244.482 435.69L249.183 435.628C249.221 436.478 249.14 437.398 248.94 438.389C248.741 439.35 248.456 440.251 248.084 441.091L250.235 441.143L249.729 445.699L245.471 445.596C246.461 447.054 248.165 448.618 250.584 450.287L246.32 452.292C244.678 451.14 243.326 449.555 242.262 447.538L241.735 451.171L236.336 451.04L236.809 447.845C235.777 449.343 234.326 450.596 232.457 451.605L229.063 450.293ZM233.733 440.656C233.4 438.657 232.731 437.294 231.723 436.567L236.62 435.675C237.216 436.451 237.501 437.394 237.474 438.506C237.461 439.062 237.36 439.587 237.172 440.08L233.733 440.656ZM244.306 452.024C245.827 452.06 246.885 452.511 247.479 453.374C248.103 454.209 248.344 455.137 248.202 456.159L246.534 468.811L227.528 468.351L229.689 451.67L244.306 452.024ZM234.318 456.393L234.053 458.276L236.335 458.331L236.6 456.449L234.318 456.393ZM242.814 457.39C242.827 456.863 242.555 456.593 241.999 456.579L240.595 456.545L240.33 458.428L241.954 458.467L241.424 462.187L239.888 462.15L239.623 464.032L241.949 464.089L242.811 457.521L242.814 457.39ZM220.259 463.827C220.463 463.861 220.612 463.777 220.704 463.574C220.826 463.372 220.924 462.979 220.996 462.395L221.469 459.201C221.077 459.689 220.725 460.325 220.413 461.108C220.13 461.891 219.982 462.561 219.969 463.117C219.958 463.556 220.055 463.793 220.259 463.827ZM233.346 463.88L235.585 463.934L235.85 462.052L233.611 461.998L233.346 463.88Z" fill="#271F64"/>
<path d="M203.429 435.53L202.893 437.713L206.492 437.8C207.78 437.831 208.766 438.192 209.452 438.882C210.168 439.573 210.511 440.489 210.484 441.63C210.477 441.893 210.458 442.098 210.425 442.243L207.649 462.555L211.468 462.648L210.766 468.077L182.191 467.385L182.893 461.956L186.404 462.041L189.68 437.393L197.055 437.571L197.591 435.388L186.836 435.128L187.535 429.875L198.903 430.15L199.391 428.141L205.229 428.283L204.741 430.291L214.969 430.539L214.271 435.792L203.429 435.53ZM204.629 443.992C204.643 443.436 204.371 443.151 203.815 443.137L194.51 442.912L194.243 444.838L203.374 445.059L202.841 448.911L193.755 448.691L193.489 450.617L202.575 450.837L202.042 454.689L193 454.47L192.734 456.396L201.776 456.615L201.244 460.467L192.201 460.249L191.979 462.176L202.075 462.42L204.627 444.079L204.629 443.992Z" fill="#271F64"/>
<path d="M175.368 433.884C176.568 433.913 177.523 434.361 178.234 435.227C178.975 436.065 179.272 437.097 179.126 438.323L176.045 460.34C175.694 462.762 174.948 464.545 173.808 465.688C172.667 466.832 171.088 467.379 169.068 467.331C167.898 467.302 166.91 467 166.104 466.424C165.326 465.878 164.759 465.118 164.402 464.143C163.671 465.326 162.973 466.319 162.31 467.123L156.589 465.755C158.197 464.652 159.616 462.885 160.846 460.456C156.798 461.968 153.327 462.616 150.434 462.4C149.498 462.348 148.818 462.024 148.393 461.428C147.968 460.832 147.767 460.095 147.788 459.217C147.811 458.251 148.053 457.335 148.513 456.468C150.415 452.912 152.044 449.116 153.401 445.079L149.494 444.984L150.244 439.381L164.115 439.717L163.408 445.321L158.843 445.211C158.56 446.053 158.106 447.257 157.482 448.823L160.32 447.706C160.97 448.688 161.497 449.901 161.901 451.346C162.305 452.79 162.591 454.29 162.758 455.846C164.082 451.955 165.217 446.829 166.161 440.469L166.368 439.2L164.392 439.152L165.097 433.635L167.16 433.685L168.11 427.076L173.597 427.209L172.603 433.817L175.368 433.884ZM164.122 434.007L151.787 433.708L152.494 428.104L164.828 428.402L164.122 434.007ZM173.151 440.199C173.157 439.965 173.073 439.772 172.901 439.622C172.73 439.442 172.513 439.349 172.249 439.343L171.767 439.331L171.555 440.819C170.508 447.762 169.126 453.468 167.407 457.935L169.871 457.775C169.48 458.176 169.175 458.71 168.953 459.378C168.762 460.018 168.66 460.616 168.647 461.172C168.639 461.464 168.663 461.699 168.717 461.876C168.772 462.053 168.843 462.142 168.93 462.145C169.252 462.152 169.566 461.896 169.871 461.377C170.206 460.858 170.462 459.971 170.638 458.716L173.147 440.374L173.151 440.199ZM156.739 450.518C155.808 452.662 154.774 454.848 153.637 457.075C155.012 457.108 156.706 456.695 158.718 455.836C158.337 453.426 157.677 451.653 156.739 450.518Z" fill="#271F64"/>
<path d="M120.336 436.065C120.369 435.92 120.389 435.701 120.396 435.408C120.418 434.472 120.252 433.487 119.896 432.453C119.571 431.391 119.051 430.457 118.339 429.649C117.627 428.812 116.748 428.263 115.7 428.004L123.303 425.992C124.011 426.975 124.567 428.204 124.97 429.678C125.404 431.123 125.605 432.489 125.574 433.777C125.556 434.508 125.452 435.165 125.263 435.746L120.336 436.065ZM143.972 433.959L127.819 433.568L128.571 427.876L144.725 428.267L143.972 433.959ZM132.778 460.918C134.768 460.966 136.418 460.567 137.726 459.72C139.065 458.874 140.086 457.786 140.792 456.457L144.357 463.394C141.376 465.577 137.326 466.606 132.204 466.482C129.337 466.413 126.932 465.959 124.991 465.122C123.078 464.285 121.469 463.045 120.162 461.403C119.46 462.557 118.53 463.487 117.371 464.191C116.211 464.924 114.872 465.213 113.353 465.059L111.525 458.954C112.551 458.891 113.359 458.764 113.949 458.574C114.57 458.354 115.107 457.943 115.56 457.339C116.014 456.735 116.373 455.836 116.636 454.642L118.428 444.101L118.433 443.925C118.438 443.691 118.355 443.499 118.183 443.348C118.012 443.168 117.794 443.075 117.531 443.069L114.634 442.999L115.339 437.482L120.562 437.608C121.908 437.641 122.954 437.974 123.7 438.606C124.447 439.21 124.806 440.097 124.778 441.268C124.765 441.765 124.727 442.145 124.662 442.407L122.032 454.904C122.543 456.761 123.796 458.212 125.791 459.256C127.816 460.3 130.145 460.854 132.778 460.918ZM125.33 443.829L126.039 438.136L145.133 438.598L144.381 444.29L136.216 444.092L134.975 446.39L139.229 444.824C140.432 445.936 141.331 447.51 141.926 449.545C142.521 451.579 142.782 453.46 142.711 455.185C141.282 456.176 139.255 457.034 136.632 457.761C134.038 458.46 131.513 458.779 129.054 458.72C127.942 458.693 126.906 458.58 125.944 458.381C125.041 458.183 124.363 457.786 123.909 457.19C123.485 456.565 123.282 455.857 123.302 455.067C123.323 454.189 123.604 453.449 124.146 452.847C126.436 450.18 128.44 447.212 130.159 443.945L125.33 443.829ZM138.007 451.778C137.351 449.829 136.233 448.221 134.654 446.953C133.19 449.377 131.647 451.419 130.026 453.078C132.485 453.079 135.145 452.645 138.007 451.778Z" fill="#271F64"/>
<path d="M311.938 380.969C313.064 380.992 313.925 381.281 314.52 381.835C315.137 382.39 315.393 383.089 315.289 383.932L314.689 389.284L312.447 389.237L314.114 391.905C312.743 392.18 310.735 392.322 308.091 392.332L308.01 393.11L310.187 393.156C311.032 393.173 311.698 393.415 312.187 393.88C312.676 394.324 312.882 394.87 312.803 395.519L312.223 399.928L307.121 399.821L307.041 400.567L310.55 400.641C311.59 400.662 312.364 400.971 312.871 401.567C313.401 402.142 313.615 402.818 313.512 403.596L312.904 407.745C312.703 409.084 312.227 410.071 311.477 410.706C310.748 411.362 309.625 411.675 308.109 411.643C306.982 411.619 306.078 411.351 305.395 410.838C304.733 410.348 304.41 409.745 304.425 409.03C304.433 408.64 304.549 408.274 304.773 407.932L308.323 407.649C307.972 407.836 307.794 408.049 307.789 408.288C307.784 408.548 307.987 408.682 308.398 408.691C308.918 408.701 309.229 408.372 309.329 407.702L309.449 406.664C308.749 406.953 308.182 407.136 307.747 407.214C307.006 407.393 306.136 407.527 305.137 407.614C304.16 407.724 303.162 407.768 302.144 407.747C301.559 407.734 301.126 407.715 300.844 407.687L300.45 406.346L299.98 410.172L296.275 410.095L297.682 400.371L303.336 400.489L303.417 399.743L298.607 399.643L299.496 392.932L304.305 393.032L304.386 392.254L300.846 392.115L299.605 389.26C301.138 389.531 302.761 389.684 304.472 389.72C306.595 389.764 308.744 389.593 310.92 389.205L299.254 388.96L299.057 390.614L298.857 392.398C298.643 394.323 298.4 396.073 298.129 397.65C297.88 399.205 297.429 401.048 296.778 403.18C296.148 405.291 295.276 407.603 294.162 410.115L290.02 409.183C291.121 407.299 292.01 405.205 292.687 402.9C293.386 400.574 293.885 398.482 294.184 396.624C294.505 394.745 294.798 392.682 295.062 390.433L296.242 380.64L311.938 380.969ZM311.008 385.013C311.012 384.818 310.95 384.654 310.823 384.521C310.696 384.389 310.534 384.32 310.339 384.316L299.843 384.096L299.682 385.588L310.926 385.824L311.006 385.078L311.008 385.013ZM302.337 396.957L304.092 396.994L304.246 395.827L302.492 395.79L302.337 396.957ZM309.172 396.613C309.176 396.418 309.114 396.254 308.987 396.121C308.859 395.989 308.698 395.92 308.503 395.916L307.301 395.891L307.147 397.058L309.129 397.1L309.17 396.678L309.172 396.613ZM300.678 404.758C301.585 404.907 302.277 405.008 302.753 405.061L302.949 403.44L300.837 403.396L300.678 404.758ZM306.654 403.517L306.456 405.204L307.401 405.094C307.193 404.677 306.928 404.368 306.608 404.167L308.666 403.657C308.899 403.922 309.087 404.251 309.231 404.644C309.396 405.038 309.507 405.43 309.564 405.822L309.758 404.33L309.759 404.265C309.763 404.07 309.701 403.906 309.574 403.774C309.447 403.641 309.286 403.573 309.091 403.568L306.654 403.517Z" fill="#271F64"/>
<path d="M275.046 393.33C274.708 393.952 274.371 394.519 274.035 395.032L282.289 395.205C283.134 395.223 283.758 395.452 284.16 395.894C284.563 396.336 284.756 396.915 284.742 397.629C284.733 398.041 284.625 398.559 284.416 399.183C283.795 400.926 282.19 403.038 279.602 405.519C280.517 406.319 281.269 407.158 281.858 408.037L278.582 410.765C277.989 410.102 277.138 409.358 276.028 408.533C274.94 407.708 273.688 406.934 272.273 406.211C270.858 405.488 269.428 404.948 267.983 404.593L271.648 400.346C273.578 401.318 275.227 402.274 276.595 403.213C277.923 401.875 278.858 400.714 279.398 399.728C279.421 399.685 279.433 399.621 279.435 399.534C279.437 399.426 279.396 399.338 279.31 399.271C279.247 399.205 279.161 399.171 279.053 399.168L271.645 398.948C270.8 398.909 270.144 398.678 269.676 398.257C269.208 397.835 268.981 397.288 268.995 396.617C269.009 395.989 269.216 395.375 269.619 394.777C269.843 394.435 270.157 393.921 270.562 393.236L266.045 393.141L266.555 388.958L272.437 389.082C272.621 388.544 272.842 387.855 273.098 387.015L267.898 386.906L268.441 382.723L274.095 382.842L274.535 380.478L279.428 381.263C279.355 381.652 279.224 382.213 279.035 382.945L287.094 383.114L286.584 387.297L277.81 387.114C277.532 387.931 277.28 388.62 277.051 389.178L287.547 389.398L287.037 393.581L275.046 393.33Z" fill="#271F64"/>
<path d="M259.924 384.561C260.921 384.581 261.738 384.859 262.377 385.392C263.038 385.905 263.358 386.67 263.337 387.688C263.333 387.905 263.318 388.078 263.294 388.207L261.184 403.573C260.928 405.453 260.54 406.865 260.022 407.807C259.526 408.75 258.873 409.365 258.065 409.652C257.257 409.96 256.16 410.1 254.773 410.071C253.083 410.035 251.836 409.586 251.03 408.724C250.224 407.884 249.834 406.835 249.861 405.579C249.879 404.712 250.069 403.903 250.432 403.152L255.741 402.646C255.345 402.963 255.044 403.325 254.841 403.732C254.659 404.14 254.564 404.539 254.556 404.929C254.549 405.254 254.608 405.527 254.734 405.746C254.88 405.987 255.062 406.11 255.279 406.115C255.604 406.122 255.855 406.029 256.032 405.838C256.21 405.647 256.358 405.303 256.476 404.807C256.596 404.289 256.732 403.48 256.885 402.377L258.648 389.605L258.651 389.475C258.655 389.28 258.593 389.127 258.465 389.016C258.338 388.884 258.177 388.815 257.982 388.811L256.682 388.784C255.582 390.603 254.493 391.881 253.416 392.617L251.066 391.495L248.837 409.426L237.984 409.199L241.351 383.456L243.691 383.505C244.074 382.82 244.272 382.141 244.286 381.47C244.297 380.971 244.209 380.493 244.024 380.034L249.076 380.952C248.928 381.838 248.617 382.72 248.143 383.599L248.501 383.606C249.627 383.63 250.455 383.94 250.984 384.536C251.536 385.111 251.759 385.831 251.654 386.696L251.305 389.419C252.172 388.375 252.926 387.047 253.566 385.435C254.229 383.824 254.572 382.411 254.598 381.198C254.602 380.981 254.586 380.721 254.549 380.417L260.021 381.474C259.765 382.314 259.375 383.335 258.852 384.538L259.924 384.561ZM247.176 387.87C247.18 387.653 247.119 387.489 246.991 387.378C246.864 387.245 246.703 387.177 246.508 387.173L245.208 387.146L244.353 393.792L246.076 393.828L245.678 397.299L243.923 397.262L242.837 405.659L245.014 405.705L247.174 387.935L247.176 387.87ZM252.171 402.376C252.27 401.771 252.33 401.014 252.349 400.104C252.397 397.786 251.992 395.914 251.133 394.487L254.047 393.508C254.575 394.169 255.02 395.175 255.382 396.527C255.765 397.878 255.944 399.204 255.916 400.504C255.908 400.916 255.891 401.219 255.865 401.413L252.171 402.376Z" fill="#271F64"/>
<path d="M234.984 382.022C235.893 382.041 236.571 382.294 237.016 382.78C237.483 383.245 237.709 383.824 237.695 384.517C237.687 384.886 237.614 385.263 237.476 385.651C237.087 386.639 236.768 387.359 236.52 387.809C236.294 388.259 235.871 388.781 235.252 389.375L231.053 388.052C231.761 387.395 232.248 386.896 232.515 386.554C232.56 386.512 232.583 386.426 232.586 386.296C232.588 386.188 232.547 386.089 232.462 386.001C232.399 385.913 232.302 385.867 232.172 385.865L227.005 385.756C225.821 387.465 224.78 388.527 223.883 388.942L220.717 387.965L220.047 393.575C220.619 393.154 221.195 392.57 221.774 391.824C222.353 391.077 222.649 390.422 222.661 389.859C222.663 389.751 222.644 389.631 222.603 389.5L225.847 389.861C225.812 390.489 225.622 391.265 225.278 392.19C224.955 393.093 224.638 393.747 224.326 394.153L220.009 393.835L219.306 399.444L215.277 399.36L216.441 390.346L212.203 389.347C213.342 388.764 214.478 387.835 215.61 386.558C216.742 385.281 217.691 383.968 218.456 382.619C219.221 381.269 219.633 380.216 219.692 379.459L224.166 380.073C223.35 381.789 222.303 383.631 221.027 385.598L220.836 386.96C222.068 386.054 223.09 384.883 223.9 383.448C224.711 382.013 225.16 380.722 225.249 379.575L230.08 380.229C229.762 380.916 229.49 381.474 229.264 381.902L234.984 382.022ZM225.451 394.761C224.857 395.204 224.556 395.599 224.549 395.945C224.546 396.075 224.587 396.185 224.672 396.273C224.779 396.34 224.919 396.376 225.092 396.379C225.59 396.39 225.917 395.812 226.071 394.644L227.245 386.737L231.079 386.817L229.963 395.116C229.76 396.499 229.293 397.584 228.562 398.37C227.83 399.157 226.706 399.534 225.189 399.502C223.933 399.476 222.888 399.194 222.054 398.657C221.241 398.119 220.843 397.461 220.86 396.681C220.874 395.988 221.257 395.28 222.009 394.559L225.451 394.761ZM234.494 389.879C234.401 390.159 234.349 390.559 234.339 391.079C234.316 392.162 234.487 393.325 234.851 394.568C235.236 395.812 235.707 396.645 236.261 397.069L232.181 397.861C231.823 397.333 231.558 396.58 231.383 395.601C231.208 394.622 231.132 393.623 231.153 392.605C231.177 391.479 231.292 390.647 231.498 390.109L234.494 389.879ZM233.558 398.865C234.361 399.814 234.963 401.116 235.361 402.772C235.782 404.406 235.976 406.046 235.941 407.693C235.932 408.126 235.915 408.44 235.889 408.634L231.133 409.087C231.414 408.096 231.569 406.886 231.599 405.456C231.614 404.741 231.604 404.21 231.567 403.862C231.528 405.725 230.989 407.145 229.95 408.12C228.933 409.095 227.07 409.555 224.362 409.498C220.051 409.408 217.931 407.673 218.002 404.293C218.024 403.21 218.29 401.894 218.8 400.344L222.504 400.421C222.311 401.393 222.208 402.171 222.195 402.756C222.177 403.622 222.359 404.255 222.741 404.653C223.144 405.051 223.833 405.261 224.808 405.281C225.891 405.304 226.687 405.071 227.196 404.584C227.726 404.118 227.999 403.484 228.016 402.683C228.03 402.033 227.892 401.369 227.603 400.691L231.43 402.657C231.2 401.243 230.776 400.248 230.16 399.672L233.558 398.865ZM223.875 404.807C223.892 404.027 223.727 403.102 223.381 402.033C223.056 400.964 222.605 400.283 222.026 399.989L226.324 399.656C226.556 399.965 226.749 400.554 226.905 401.424C227.06 402.294 227.131 403.033 227.118 403.639C227.113 403.877 227.088 404.061 227.042 404.19L223.875 404.807ZM217.6 400.189C217.722 400.581 217.776 401.113 217.762 401.785C217.735 403.085 217.489 404.445 217.026 405.866C216.584 407.309 216.043 408.294 215.404 408.823L211.667 407.184C212.376 406.44 213.003 405.467 213.549 404.265C214.116 403.063 214.41 401.921 214.433 400.838C214.441 400.469 214.395 400.067 214.296 399.632L217.6 400.189Z" fill="#271F64"/>
</g>
<defs>
<clipPath id="clip0_2593_3828">
<rect width="375" height="480" fill="white"/>
</clipPath>
</defs>
</svg>
