<svg width="24" height="24" viewBox="0 0 24 24" fill="none" xmlns="http://www.w3.org/2000/svg">
<g id="Frame 3363" clip-path="url(#clip0_936_3133)">
<circle id="Ellipse 3834" cx="12" cy="12" r="12" fill="#1349D5"/>
<path id="Vector" d="M12.3769 5.15268C12.4856 5.05279 12.6306 4.99799 12.7808 5.00006C12.9309 5.00213 13.0742 5.06089 13.18 5.16374L16.3062 8.20463C16.3615 8.25826 16.4047 8.32223 16.4333 8.39259C16.4619 8.46295 16.4752 8.53822 16.4724 8.61374C16.4697 8.68926 16.451 8.76344 16.4173 8.8317C16.3837 8.89996 16.336 8.96086 16.277 9.01063L8.74408 15.3734C8.63639 15.4645 8.49724 15.5135 8.35401 15.5106L5.56158 15.4531C5.41155 15.4501 5.26872 15.3904 5.16373 15.287C5.05875 15.1836 4.99997 15.0446 5 14.8999V12.1649C4.99999 12.09 5.01574 12.0159 5.04631 11.9471C5.07687 11.8782 5.12162 11.8161 5.17783 11.7644L12.3769 5.15268ZM13.1381 14.0469L17.4374 14.1276C17.5128 14.1291 17.5871 14.1448 17.6561 14.1739C17.7251 14.203 17.7876 14.2449 17.8398 14.2973C17.892 14.3497 17.933 14.4115 17.9605 14.4791C17.988 14.5468 18.0014 14.619 17.9999 14.6916C17.9984 14.7643 17.9821 14.8359 17.9519 14.9025C17.9218 14.9691 17.8783 15.0293 17.824 15.0796C17.7697 15.13 17.7056 15.1696 17.6354 15.196C17.5653 15.2225 17.4904 15.2354 17.4151 15.234L13.1157 15.1533C13.0404 15.1518 12.9661 15.1361 12.8971 15.1069C12.8281 15.0778 12.7657 15.0358 12.7135 14.9834C12.6613 14.931 12.6203 14.8692 12.5928 14.8015C12.5654 14.7339 12.5521 14.6617 12.5536 14.589C12.5551 14.5164 12.5714 14.4447 12.6016 14.3782C12.6318 14.3116 12.6754 14.2514 12.7297 14.2011C12.784 14.1507 12.8481 14.1112 12.9183 14.0848C12.9884 14.0583 13.0633 14.0454 13.1387 14.0469H13.1381ZM12.7612 6.32766L6.14726 12.4017V14.3583L8.15497 14.3998L15.062 8.56587L12.7612 6.32766ZM17.4093 16.8128C17.5615 16.8117 17.7078 16.869 17.8162 16.9719C17.9246 17.0749 17.9861 17.2152 17.9873 17.3619C17.9884 17.5086 17.9291 17.6497 17.8223 17.7543C17.7155 17.8588 17.5701 17.9181 17.4179 17.9192L6.15185 18C5.99971 18.0011 5.85335 17.9439 5.74497 17.8409C5.63659 17.7379 5.57506 17.5977 5.57392 17.4509C5.57278 17.3042 5.63212 17.1631 5.73889 17.0586C5.84566 16.954 5.99111 16.8947 6.14324 16.8936L17.4093 16.8128Z" fill="white"/>
</g>
<defs>
<clipPath id="clip0_936_3133">
<rect width="24" height="24" fill="white"/>
</clipPath>
</defs>
</svg>
